<ttFont>
          <CharString index="0">
            -11 -52 -14 -51 -16 -49 -16 -49 -23 -48 -26 -48 -26 -48 -31 -42 -31 -35 -31 -35 -38 -29 -44 -22 -44 -22 -47 -11 -49 0 -49 0 -41 11 -34 22 rrcurveto
            -34 22 -25 29 -18 35 -18 35 -11 42 -6 48 -4 29 -1 30 0 29 0 19 1 19 1 19 3 49 8 51 11 52 10 48 13 46 16 45 rrcurveto
            16 45 21 44 25 44 25 44 30 38 31 32 31 32 37 27 43 20 43 20 47 10 49 0 61 0 50 -15 39 -30 39 -30 27 -38 13 -50 rrcurveto
            13 -47 5 -50 0 -52 rrcurveto
            -9 vlineto
            -1 -55 -6 -58 -13 -61 rrcurveto
            return
          </CharString>
          <CharString index="1">
            -15 -71 -9 -71 -1 -71 rrcurveto
            -13 vlineto
            0 -67 8 -65 15 -65 16 -69 26 -61 35 -53 35 -53 50 -42 64 -33 64 -33 75 -16 86 0 87 0 81 16 78 33 78 33 67 42 57 53 rrcurveto
            57 53 53 61 46 70 46 70 37 70 28 70 28 70 22 71 15 71 14 67 8 67 1 66 rrcurveto
            10 vlineto
            0 63 -9 62 -16 62 -17 65 -26 58 -36 49 -36 49 -49 40 -64 31 -64 31 -77 15 -87 0 -87 0 -81 -15 -78 -31 -78 -31 -66 -40 -57 -50 rrcurveto
            -57 -50 -51 -57 -45 -65 -45 -65 -36 -65 -27 -66 -27 -66 -22 -67 -14 -67 rrcurveto
            return
          </CharString>
          <CharString index="2">
            -2 -12 -2 -11 0 -11 0 -74 55 -56 78 0 91 0 89 74 19 90 3 12 1 12 0 11 0 74 -54 55 -79 0 -90 0 -90 -73 -19 -91 rrcurveto
            return
          </CharString>
          <CharString index="3">
            -1 -3 0 -3 0 -3 -1 -27 63 -12 23 0 24 0 73 17 9 31 rrcurveto
            100 374 rlineto
            1 7 2 7 -1 6 0 38 -68 18 -32 0 rrcurveto
            -4 hlineto
            -36 0 -82 -26 -11 -50 rrcurveto
            return
          </CharString>
          <CharString index="4">
            -51 -240 266 0 -61 -287 239 0 61 287 288 0 51 240 -287 0 64 302 -240 0 -64 -302 rlineto
            return
          </CharString>
          <CharString index="5">
            2 10 1 11 0 11 0 63 -38 66 -98 0 -86 0 -90 -83 -17 -78 -4 -16 -1 -16 0 -14 0 -71 42 -38 44 -11 0 -3 0 -4 -1 -4 rrcurveto
            -7 -34 -50 -72 -13 -16 rrcurveto
            64 -43 rlineto
            54 36 163 142 35 164 rrcurveto
            return
          </CharString>
          <CharString index="6">
            -51 -240 772 0 51 240 rlineto
            return
          </CharString>
          <CharString index="7">
            66 -503 -347 0 rlineto
            return
          </CharString>
          <CharString index="8">
            -311 0 -832 -1456 311 0 217 382 463 0 55 -382 311 0 rlineto
            return
          </CharString>
          <CharString index="9">
            295 hlineto
            1 13 1 14 0 14 0 222 -146 253 -328 0 -449 0 -256 -418 -72 -341 -15 -70 -8 -74 0 -73 0 -276 122 -262 356 0 347 0 265 280 78 232 rrcurveto
            -294 hlineto
            -54 -126 -133 -146 -158 0 -184 0 -62 144 0 171 0 65 9 68 14 67 53 247 136 272 254 0 rrcurveto
            158 70 -150 -126 hvcurveto
            return
          </CharString>
          <CharString index="10">
            -66 -310 -194 -202 -240 0 rrcurveto
            -139 0 208 977 139 0 rlineto
            198 109 -134 -198 hvcurveto
            0 -42 -5 -44 -10 -47 rrcurveto
            return
          </CharString>
          <CharString index="11">
            13 63 7 62 0 58 rrcurveto
            300 -175 221 -310 vhcurveto
            -467 0 -309 -1456 467 0 rlineto
            364 0 319 323 91 429 rrcurveto
            return
          </CharString>
          <CharString index="12">
            -309 -1456 982 0 51 240 -714 0 82 386 651 0 51 240 -651 0 74 350 714 0 51 240 rlineto
            return
          </CharString>
          <CharString index="13">
            -309 -1456 268 0 133 627 651 0 51 239 -651 0 75 351 714 0 50 239 rlineto
            return
          </CharString>
          <CharString index="14">
            433 0 220 368 68 320 rrcurveto
            32 146 -581 0 -51 -240 303 0 rlineto
            -30 -139 -96 -217 -247 0 -175 0 -69 168 0 192 0 63 8 65 13 63 48 227 164 268 235 0 59 0 117 -69 5 -74 rrcurveto
            276 86 rlineto
            -42 186 -161 111 -203 0 -457 0 -252 -397 -72 -338 -17 -79 -9 -81 0 -80 0 -288 124 -261 357 0 rrcurveto
            return
          </CharString>
          <CharString index="15">
            -309 -1456 268 0 133 624 485 0 -133 -624 270 0 309 1456 -270 0 -125 -592 -485 0 125 592 rlineto
            return
          </CharString>
          <CharString index="16">
            268 0 309 1456 -268 0 rlineto
            return
          </CharString>
          <CharString index="17">
            -15 -72 -9 -69 0 -63 0 -246 121 -171 285 0 340 0 227 257 77 364 rrcurveto
            184 870 -268 0 -184 -870 rlineto
            -39 -182 -93 -199 -193 0 -143 0 -42 97 0 119 0 53 8 57 12 55 rrcurveto
            return
          </CharString>
          <CharString index="18">
            -309 -1456 268 0 105 496 145 132 321 -628 336 0 -413 808 693 648 -335 0 -675 -623 132 623 rlineto
            return
          </CharString>
          <CharString index="19">
            -309 -1456 984 0 51 240 -716 0 258 1216 rlineto
            return
          </CharString>
          <CharString index="20">
            268 0 204 962 103 -962 270 0 516 962 -204 -962 268 0 309 1456 -359 0 -575 -1032 -131 1032 -360 0 rlineto
            return
          </CharString>
          <CharString index="21">
            268 0 207 973 362 -973 264 0 309 1456 -268 0 -199 -940 -374 940 -260 0 rlineto
            return
          </CharString>
          <CharString index="22">
            -52 -243 -134 -272 -255 0 -184 0 -62 144 0 171 0 65 9 68 14 67 53 247 136 272 254 0 184 0 61 -142 0 -172 0 -66 -9 -70 -15 -69 rrcurveto
            return
          </CharString>
          <CharString index="23">
            -15 -70 -8 -74 0 -73 0 -276 122 -262 356 0 450 0 252 418 72 337 15 72 9 76 0 74 0 277 -121 260 -355 0 -449 0 -256 -418 -72 -341 rrcurveto
            return
          </CharString>
          <CharString index="24">
            -309 -1456 268 0 124 584 rlineto
            280 0 442 7 91 429 8 39 4 36 0 33 rrcurveto
            323 -386 5 -254 vhcurveto
            return
          </CharString>
          <CharString index="25">
            83 392 71 0 rlineto
            211 129 -18 -126 hvcurveto
            0 -16 -2 -18 -4 -19 -37 -174 -142 -21 -238 0 rrcurveto
            return
          </CharString>
          <CharString index="26">
            306 0 -227 627 rlineto
            216 54 130 138 43 201 8 39 4 35 0 33 rrcurveto
            323 -386 6 -254 vhcurveto
            -268 0 -309 -1456 268 0 123 582 rlineto
            23 0 36 -1 32 0 24 0 23 1 13 1 rrcurveto
            return
          </CharString>
          <CharString index="27">
            -1 -11 0 -11 0 -10 0 -242 180 -159 266 0 280 0 261 163 57 270 8 38 4 35 0 32 0 165 -102 85 -132 69 rrcurveto
            return
          </CharString>
          <CharString index="28">
            -119 62 -233 54 0 124 0 7 1 7 2 8 26 124 109 37 110 0 110 0 46 -45 15 -71 rrcurveto
            284 51 rlineto
            -21 170 -153 136 -230 0 -247 0 -265 -130 -58 -272 -7 -32 -3 -29 0 -27 0 -151 100 -70 103 -55 180 -96 203 -29 0 -153 0 -14 -2 -14 -3 -16 rrcurveto
            -23 -110 -97 -81 -153 0 rrcurveto
            return
          </CharString>
          <CharString index="29">
            -158 0 -56 115 -5 119 rrcurveto
            return
          </CharString>
          <CharString index="30">
            -51 -240 477 0 -258 -1216 268 0 258 1216 457 0 51 240 rlineto
            return
          </CharString>
          <CharString index="31">
            341 0 237 257 77 364 rrcurveto
            184 870 -268 0 -184 -870 rlineto
            -39 -182 -103 -199 -194 0 -142 0 -48 108 0 129 0 47 7 49 10 48 rrcurveto
            184 870 -268 0 -184 -870 rlineto
            -15 -69 -7 -64 0 -60 0 -258 136 -170 276 0 rrcurveto
            return
          </CharString>
          <CharString index="32">
            -521 -1045 -73 1045 -289 0 118 -1456 317 0 726 1456 rlineto
            return
          </CharString>
          <CharString index="33">
            -71 -1456 320 0 385 975 -29 -975 320 0 547 1456 -271 0 -331 -964 18 937 -314 0 -379 -931 76 958 rlineto
            return
          </CharString>
          <CharString index="34">
            301 -765 -147 -690 268 0 147 690 623 765 -340 0 -357 -475 -155 475 rlineto
            return
          </CharString>
          <CharString index="35">
            -51 -240 713 0 -1038 -1216 1228 0 51 240 -772 0 1036 1216 rlineto
            return
          </CharString>
          <CharString index="36">
            -211 344 -236 0 -356 -341 277 0 157 158 98 -161 rlineto
            return
          </CharString>
          <CharString index="37">
            3 -3 5 -2 5 0 3 0 3 1 4 1 12 3 13 6 15 11 15 11 13 10 10 10 10 10 11 15 10 20 7 12 2 10 2 9 rrcurveto
            1 6 1 7 0 5 0 5 -1 5 -3 3 rrcurveto
            -231 247 rlineto
            -7 7 -8 3 -11 0 -6 0 -6 -1 -7 -2 -15 -4 -17 -7 -16 -10 -16 -10 -15 -12 -11 -11 -14 -13 -12 -17 -10 -22 -6 -12 -3 -11 -2 -11 rrcurveto
            -2 -8 -1 -8 0 -7 0 -15 5 -10 8 -8 rrcurveto
            return
          </CharString>
          <CharString index="38">
            106 54 -62 -73 hvcurveto
            0 -11 -1 -11 -2 -11 -18 -86 -87 -79 -122 0 -108 0 -63 62 0 74 0 9 1 10 2 10 rrcurveto
            18 86 98 82 122 0 rrcurveto
            return
          </CharString>
          <CharString index="39">
            -198 0 -197 -161 -47 -222 -7 -31 -3 -30 0 -29 0 -175 119 -122 173 0 140 0 120 87 42 78 rrcurveto
            return
          </CharString>
          <CharString index="40">
            -29 -136 257 0 65 305 64 304 rlineto
            11 52 6 47 0 42 0 259 -193 93 -225 0 -107 0 -163 -46 -69 -48 rrcurveto
            68 -164 rlineto
            59 24 69 29 100 0 87 0 117 -26 0 -142 0 -21 -2 -24 -6 -26 rrcurveto
            -18 -82 rlineto
            -8 78 -85 87 -140 0 rrcurveto
            return
          </CharString>
          <CharString index="41">
            46 -109 106 -76 116 0 262 0 171 256 65 304 16 74 8 71 0 66 0 206 -82 151 -200 0 -116 0 -138 -74 -92 -109 rrcurveto
            114 537 -258 0 rlineto
            return
          </CharString>
          <CharString index="42">
            -48 -224 -140 -107 -94 0 -79 0 -87 51 0 157 0 36 4 40 10 47 54 253 141 76 97 0 78 0 79 -54 0 -150 0 -36 -5 -42 -10 -47 rrcurveto
            return
          </CharString>
          <CharString index="43">
            236 112 rlineto
            -48 142 -142 90 -153 0 -289 0 -260 -229 -72 -339 -12 -55 -5 -53 0 -49 0 -249 150 -155 268 0 172 0 154 119 93 114 rrcurveto
            -190 111 rlineto
            -40 -53 -33 -59 -107 0 -119 0 -80 90 0 144 0 30 4 31 7 34 42 199 138 139 130 0 92 0 42 -53 22 -61 rrcurveto
            return
          </CharString>
          <CharString index="44">
            258 0 309 1454 -258 0 -114 -537 rlineto
            -46 109 -106 74 -116 0 -264 0 -171 -264 -65 -304 -15 -72 -8 -70 0 -64 rrcurveto
            return
          </CharString>
          <CharString index="45">
            -205 83 -149 200 vhcurveto
            116 0 138 76 92 109 rrcurveto
            return
          </CharString>
          <CharString index="46">
            52 245 133 84 97 0 79 0 87 -51 0 -156 0 -35 -4 -41 -10 -46 -54 -255 -141 -76 -97 0 -77 0 -78 71 0 148 0 33 4 38 9 41 rrcurveto
            return
          </CharString>
          <CharString index="47">
            31 109 95 108 126 0 112 0 52 -82 0 -97 0 -13 -1 -12 -2 -13 rrcurveto
            return
          </CharString>
          <CharString index="48">
            -65 -103 29 153 hvcurveto
            0 25 3 29 6 32 rrcurveto
            664 0 14 68 rlineto
            12 55 6 53 0 49 0 240 -135 164 -221 0 -266 0 -265 -238 -69 -323 -10 -49 -5 -47 0 -45 0 -252 158 -173 227 0 133 0 177 67 114 131 rrcurveto
            -207 98 rlineto
            -48 -46 -61 -20 -59 0 rrcurveto
            return
          </CharString>
          <CharString index="49">
            165 0 49 229 -165 0 21 100 rlineto
            13 60 31 27 57 0 20 0 42 -11 18 -28 rrcurveto
            187 179 rlineto
            -47 58 -78 31 -84 0 -198 0 -195 -203 -28 -133 rrcurveto
            -17 -80 -139 0 -49 -229 139 0 -179 -844 258 0 rlineto
            return
          </CharString>
          <CharString index="50">
            -23 -106 -98 -61 -123 0 -123 0 -50 58 0 76 rrcurveto
            15 vlineto
            -96 -4 -149 -7 0 0 -1 -11 -1 -12 0 -12 0 -143 87 -184 286 0 310 0 198 199 45 212 rrcurveto
            239 1123 -258 0 -33 -156 rlineto
            return
          </CharString>
          <CharString index="51">
            -46 109 -106 74 -116 0 -264 0 -171 -264 -65 -304 -15 -72 -8 -70 0 -64 0 -205 83 -149 200 0 116 0 138 76 92 109 rrcurveto
            return
          </CharString>
          <CharString index="52">
            114 536 rlineto
            58 274 103 57 108 0 79 0 54 -29 0 -124 0 -45 -7 -58 -16 -74 rrcurveto
            -114 -537 258 0 142 668 rlineto
            10 47 5 43 0 40 0 200 -118 104 -119 0 -142 0 -142 -86 -79 -104 rrcurveto
            115 542 -258 0 -309 -1454 rlineto
            return
          </CharString>
          <CharString index="53">
            -228 -1073 258 0 228 1073 rlineto
            return
          </CharString>
          <CharString index="54">
            -3 -12 -1 -12 0 -11 0 -71 48 -54 69 0 80 0 83 73 18 87 3 12 0 12 0 11 0 71 -47 54 -69 0 -80 0 -83 -73 -18 -87 rrcurveto
            return
          </CharString>
          <CharString index="55">
            496 476 -315 0 -357 -357 157 738 -258 0 -309 -1454 258 0 94 444 19 23 212 -467 294 0 rlineto
            return
          </CharString>
          <CharString index="56">
            249 1173 -258 0 -250 -1178 rlineto
            -8 -40 -5 -35 0 -31 rrcurveto
            -152 102 -47 197 vhcurveto
            47 223 rlineto
            -58 -19 26 35 hvcurveto
            0 8 1 9 2 9 rrcurveto
            return
          </CharString>
          <CharString index="57">
            34 158 -258 0 -228 -1073 258 0 115 539 rlineto
            return
          </CharString>
          <CharString index="58">
            43 201 54 128 116 0 73 0 28 -51 0 -88 0 -52 -9 -64 -16 -74 rrcurveto
            -115 -539 rlineto
            return
          </CharString>
          <CharString index="59">
            114 536 rlineto
            58 274 103 57 108 0 79 0 54 -29 0 -124 0 -45 -7 -58 -16 -74 rrcurveto
            -114 -537 258 0 142 668 rlineto
            10 47 5 43 0 40 0 200 -118 104 -119 0 -142 0 -142 -86 -79 -104 rrcurveto
            return
          </CharString>
          <CharString index="60">
            34 162 -258 0 -228 -1074 rlineto
            return
          </CharString>
          <CharString index="61">
            55 261 121 68 116 0 91 0 78 -43 0 -149 0 -38 -6 -45 -11 -54 -55 -261 -122 -70 -115 0 -92 0 -77 44 0 148 0 39 6 46 11 54 rrcurveto
            return
          </CharString>
          <CharString index="62">
            -14 -66 -7 -61 0 -56 0 -240 128 -143 246 0 305 0 213 224 73 342 14 65 7 60 0 56 0 237 -125 145 -247 0 -304 0 -216 -221 -73 -342 rrcurveto
            return
          </CharString>
          <CharString index="63">
            33 156 -258 0 -319 -1499 rlineto
            return
          </CharString>
          <CharString index="64">
            -48 -224 -140 -107 -94 0 -79 0 -87 51 0 157 0 36 4 40 10 47 rrcurveto
            return
          </CharString>
          <CharString index="65">
            54 253 141 76 97 0 78 0 79 -54 0 -150 0 -36 -5 -42 -10 -47 rrcurveto
            return
          </CharString>
          <CharString index="66">
            139 201 rlineto
            -44 52 -71 42 -69 0 -80 0 -129 -83 -80 -107 rrcurveto
            return
          </CharString>
          <CharString index="67">
            34 161 -258 0 -228 -1073 258 0 118 553 rlineto
            return
          </CharString>
          <CharString index="68">
            29 137 82 178 155 0 rrcurveto
            47 0 77 -48 20 -13 rrcurveto
            return
          </CharString>
          <CharString index="69">
            113 -68 143 -29 0 -82 0 -5 -1 -6 -1 -6 -18 -84 -75 -10 -81 0 -79 0 -67 42 0 81 rrcurveto
            0 5 -240 -39 rlineto
            1 -192 118 -127 220 0 215 0 211 123 37 176 8 36 4 32 0 29 0 112 -56 68 -105 57 -138 74 -119 11 0 76 0 6 1 6 1 6 rrcurveto
            16 74 61 13 68 0 65 0 47 -16 0 -85 rrcurveto
            0 -11 249 43 rlineto
            0 5 1 5 0 5 0 139 -101 145 -216 0 -224 0 -170 -112 -38 -178 -8 -38 -4 -32 0 -28 0 -113 61 -48 101 -60 rrcurveto
            return
          </CharString>
          <CharString index="70">
            -117 -551 rlineto
            -8 -39 -5 -35 0 -32 rrcurveto
            -136 85 -66 232 vhcurveto
            39 0 46 217 -39 0 rlineto
            -40 -54 8 60 hvcurveto
            0 8 1 9 2 10 rrcurveto
            116 547 154 0 49 229 -154 0 53 250 -258 0 -53 -250 -141 0 -49 -229 rlineto
            return
          </CharString>
          <CharString index="71">
            228 1073 -259 0 -114 -536 rlineto
            return
          </CharString>
          <CharString index="72">
            -58 -274 -130 -57 -80 0 -62 0 -67 33 0 142 0 42 6 51 13 62 rrcurveto
            114 537 -258 0 -114 -538 rlineto
            -20 -95 -10 -82 0 -71 0 -212 86 -104 144 0 137 0 141 86 79 104 rrcurveto
            return
          </CharString>
          <CharString index="73">
            213 0 567 1073 -247 0 -339 -686 -34 686 -271 0 rlineto
            return
          </CharString>
          <CharString index="74">
            -5 -664 219 0 543 1073 -243 0 -311 -666 12 670 -232 0 -273 -673 -26 669 -255 0 87 -1073 201 0 rlineto
            return
          </CharString>
          <CharString index="75">
            -225 545 458 528 -314 0 -257 -330 -120 330 -290 0 209 -537 -455 -536 307 0 261 335 119 -335 rlineto
            return
          </CharString>
          <CharString index="76">
            12 58 222 1044 -259 0 -114 -536 rlineto
            -58 -274 -130 -57 -80 0 -62 0 -67 33 0 142 0 42 6 51 13 62 rrcurveto
            114 537 -258 0 -114 -538 rlineto
            -20 -95 -10 -82 0 -71 0 -212 86 -104 144 0 137 0 141 86 79 104 rrcurveto
            -47 -220 rlineto
            -23 -109 -101 -65 -109 0 -109 0 -61 51 -9 70 rrcurveto
            -228 -112 rlineto
            32 -124 121 -117 211 0 215 0 280 219 46 217 rrcurveto
            return
          </CharString>
          <CharString index="77">
            615 833 -806 0 -51 -239 387 0 -613 -834 823 0 51 240 rlineto
            return
          </CharString>
          <CharString index="78">
            82 0 50 -152 115 0 83 0 72 66 43 28 rrcurveto
            55 260 rlineto
            -52 -41 -79 -66 -70 0 rrcurveto
            return
          </CharString>
          <CharString index="79">
            2 12 2 11 0 11 0 74 -55 56 -78 0 -91 0 -89 -74 -19 -90 -3 -12 -1 -12 0 -11 0 -74 54 -55 79 0 90 0 90 73 19 91 rrcurveto
            return
          </CharString>
          <CharString index="80">
            -3 -12 0 -12 0 -11 0 -30 9 -27 18 -23 25 -32 36 -17 45 0 45 0 42 16 39 32 39 32 23 39 10 45 3 12 1 13 0 11 rrcurveto
            0 30 -9 27 -18 23 -25 32 -36 16 -45 0 -45 0 -42 -16 -39 -32 -39 -32 -24 -39 -10 -45 rrcurveto
            return
          </CharString>
          <CharString index="81">
            -27 -127 772 0 27 127 rlineto
            return
          </CharString>
          <CharString index="82">
            -5 -22 -2 -21 0 -21 0 -142 106 -106 153 0 176 0 170 139 37 173 5 22 2 22 0 21 0 142 -104 105 -153 0 -176 0 -172 -139 -37 -173 rrcurveto
            return
          </CharString>
          <CharString index="83">
            10 19 rlineto
            14 26 15 20 15 11 15 11 20 6 22 0 23 0 17 -7 11 -14 7 -9 3 -12 0 -15 0 -8 -1 -10 -2 -10 -3 -15 -6 -16 -9 -14 rrcurveto
            -9 -14 -13 -13 -12 -11 -12 -11 -15 -13 -19 -13 -19 -13 -19 -12 -18 -11 -18 -11 -21 -13 -23 -16 -23 -16 -21 -15 -16 -13 -27 -22 -22 -22 -20 -22 rrcurveto
            -20 -22 -15 -23 -13 -24 -13 -24 -9 -23 -8 -22 -8 -22 -8 -26 -6 -29 rrcurveto
            -4 -20 525 0 34 160 -315 0 rlineto
            6 6 11 10 15 13 15 13 26 18 38 25 rrcurveto
            81 53 rlineto
            16 10 19 13 19 16 39 32 30 32 19 30 19 30 14 37 9 43 5 24 3 23 0 21 0 10 -1 10 -1 10 -4 29 -9 24 -13 18 rrcurveto
            -13 18 -17 15 -19 12 -19 12 -21 8 -21 4 -21 4 -21 3 -23 0 -55 0 -55 -18 -56 -36 -56 -36 -39 -46 -22 -53 rrcurveto
            -8 -17 rlineto
            return
          </CharString>
          <CharString index="84">
            3 -20 rlineto
            7 -43 13 -36 23 -29 23 -29 27 -21 31 -12 31 -12 36 -7 40 0 38 0 37 7 37 13 37 13 32 18 29 23 29 23 24 26 20 30 rrcurveto
            20 30 14 33 7 33 4 19 2 18 0 17 0 7 0 7 -1 7 -2 23 -7 20 -9 17 -9 17 -10 13 -8 9 -8 9 -6 7 -7 6 rrcurveto
            48 36 28 46 12 55 4 19 2 17 0 17 0 16 -2 16 -4 14 -8 29 -12 23 -20 17 -20 17 -24 12 -26 8 -26 8 -28 4 -32 0 rrcurveto
            -112 0 -87 -51 -61 -103 rrcurveto
            -12 -21 155 -43 9 16 rlineto
            8 12 10 10 14 9 14 9 13 4 15 0 22 0 18 -8 11 -13 11 -13 3 -20 -6 -26 -4 -18 -10 -17 -18 -16 -18 -16 -19 -9 -19 0 rrcurveto
            -92 0 -31 -146 103 0 rlineto
            25 0 21 -9 15 -18 12 -14 7 -15 0 -18 0 -5 -1 -5 -1 -6 -5 -25 -13 -21 -22 -17 -22 -17 -25 -8 -29 0 -21 0 -19 6 -16 12 rrcurveto
            -16 12 -11 20 -5 27 rrcurveto
            -4 16 rlineto
            return
          </CharString>
          <CharString index="85">
            353 213 rlineto
            10 7 8 10 6 13 4 8 3 9 2 9 2 10 1 9 0 10 0 24 -4 19 -9 14 -7 11 -9 12 -12 10 -12 10 -13 7 -13 4 rrcurveto
            -7 2 -6 1 -6 0 -11 0 -11 -3 -9 -7 rrcurveto
            -334 -247 rlineto
            -5 -3 -4 -5 -2 -5 -2 -5 -2 -5 -1 -5 -1 -6 -1 -7 0 -7 0 -4 1 -5 0 -5 2 -20 3 -15 6 -10 6 -10 7 -10 11 -11 rrcurveto
            11 -11 11 -6 10 -3 4 -1 3 -1 3 0 5 0 4 2 5 3 rrcurveto
            return
          </CharString>
          <CharString index="86">
            86 -127 rlineto
            98 46 173 75 24 111 3 15 1 14 0 14 0 66 -31 58 -37 40 0 0 -110 -55 -71 -35 20 -26 5 -23 0 -20 0 -15 -3 -13 -3 -14 rrcurveto
            -9 -41 -97 -45 -49 -25 rrcurveto
            return
          </CharString>
          <CharString index="87">
            -128 -603 174 0 163 768 -160 0 -216 -165 rlineto
            return
          </CharString>
          <CharString index="88">
            1310 1740 -201 0 -1319 -1740 rlineto
            return
          </CharString>
          <CharString index="89">
            93 436 -176 0 -390 -466 -27 -128 293 0 -37 -174 174 0 37 174 69 0 33 158 rlineto
            return
          </CharString>
          <CharString index="90">
            3 -20 rlineto
            7 -43 13 -36 23 -29 23 -29 27 -21 31 -12 31 -12 36 -7 40 0 38 0 37 7 37 13 37 13 32 18 29 23 29 23 24 26 20 30 rrcurveto
            20 30 13 33 7 33 4 20 3 20 0 18 0 6 0 5 -1 6 -2 23 -7 20 -9 17 -9 17 -10 13 -8 9 -8 9 -6 7 -7 6 rrcurveto
            48 36 28 46 12 55 4 19 2 17 0 17 0 16 -2 16 -4 14 -8 29 -12 23 -20 17 -20 17 -24 12 -26 8 -26 8 -28 4 -32 0 rrcurveto
            -112 0 -87 -51 -61 -103 rrcurveto
            -12 -21 155 -43 9 16 rlineto
            8 12 10 10 14 9 14 9 14 4 15 0 22 0 17 -8 11 -13 11 -13 3 -20 -6 -26 -4 -18 -10 -17 -18 -16 -18 -16 -20 -9 -19 0 rrcurveto
            -90 0 -31 -146 102 0 rlineto
            25 0 21 -9 15 -18 11 -14 7 -15 0 -17 0 -6 -1 -5 -1 -6 -5 -25 -12 -21 -22 -17 -22 -17 -25 -8 -29 0 -21 0 -19 6 -16 12 rrcurveto
            -16 12 -11 20 -5 27 rrcurveto
            -4 16 rlineto
            return
          </CharString>
          <CharString index="91">
            3 -3 5 -2 5 0 3 0 3 1 4 1 12 3 13 6 15 11 15 11 13 10 10 10 10 10 11 15 10 20 7 12 2 10 2 9 rrcurveto
            1 6 1 7 0 5 0 5 -1 5 -3 3 rrcurveto
            -231 247 rlineto
            -7 7 -8 3 -11 0 -6 0 -6 -1 -7 -2 -15 -4 -17 -7 -16 -10 -16 -10 -15 -12 -11 -11 -14 -13 -12 -17 -10 -22 -6 -12 -3 -11 -2 -11 rrcurveto
            -2 -9 -1 -9 0 -8 0 -13 5 -10 8 -7 rrcurveto
            return
          </CharString>
          <CharString index="92">
            353 213 rlineto
            10 7 8 10 6 13 4 8 3 9 2 9 2 10 1 9 0 10 0 24 -4 19 -9 14 -7 11 -9 12 -12 10 -12 10 -13 7 -13 4 rrcurveto
            -7 2 -6 1 -6 0 -11 0 -11 -3 -9 -7 rrcurveto
            -334 -247 rlineto
            -5 -3 -4 -5 -2 -5 -2 -5 -2 -5 -1 -5 -2 -10 0 -11 1 -13 2 -20 3 -15 6 -10 6 -10 7 -10 11 -11 11 -11 11 -6 10 -3 rrcurveto
            4 -1 3 -1 3 0 5 0 4 2 5 3 rrcurveto
            return
          </CharString>
          <CharString index="93">
            -211 344 -236 0 -357 -341 277 0 158 158 98 -161 rlineto
            return
          </CharString>
          <CharString index="94">
            72 45 52 52 77 0 rrcurveto
            return
          </CharString>
          <CharString index="95">
            3 -3 5 -2 5 0 3 0 3 1 4 1 12 3 13 6 15 11 15 11 13 10 10 10 10 10 11 15 10 20 7 12 2 10 2 9 rrcurveto
            1 6 1 7 0 5 0 5 -1 5 -3 3 rrcurveto
            -231 247 rlineto
            -7 7 -8 3 -11 0 -6 0 -6 -1 -7 -2 -15 -4 -17 -7 -16 -10 -16 -10 -15 -12 -11 -11 -14 -13 -12 -17 -10 -22 -6 -12 -3 -11 -2 -11 rrcurveto
            -2 -9 0 -9 0 -8 0 -13 4 -10 8 -7 rrcurveto
            return
          </CharString>
          <CharString index="96">
            353 213 rlineto
            10 7 8 10 6 13 4 8 3 9 2 9 2 11 1 11 0 12 0 22 -5 17 -8 13 -7 11 -9 12 -12 10 -12 10 -13 7 -13 4 rrcurveto
            -7 2 -6 1 -6 0 -11 0 -11 -3 -9 -7 rrcurveto
            -334 -247 rlineto
            -5 -3 -4 -5 -2 -5 -2 -5 -2 -5 -1 -5 -2 -10 0 -11 1 -13 2 -20 3 -15 6 -10 6 -10 7 -10 11 -11 11 -11 11 -6 10 -3 rrcurveto
            4 -1 3 -1 3 0 5 0 4 2 5 3 rrcurveto
            return
          </CharString>
          <CharString index="97">
            -3 -12 -1 -12 0 -11 0 -30 9 -27 18 -23 25 -32 36 -17 45 0 45 0 42 16 39 32 39 32 24 39 10 45 3 12 1 13 0 11 rrcurveto
            0 30 -10 27 -18 23 -25 32 -35 16 -45 0 -45 0 -43 -16 -39 -32 -39 -32 -23 -39 -10 -45 rrcurveto
            return
          </CharString>
          <CharString index="98">
            -3 -12 -1 -12 0 -11 0 -30 9 -27 18 -23 25 -32 36 -17 45 0 45 0 42 16 39 32 39 32 24 39 10 45 3 12 1 13 0 11 rrcurveto
            0 30 -9 27 -18 23 -25 32 -36 16 -45 0 -45 0 -42 -16 -39 -32 -39 -32 -24 -39 -10 -45 rrcurveto
            return
          </CharString>
          <CharString index="99">
            82 0 49 -152 115 0 83 0 72 66 43 28 rrcurveto
            55 260 rlineto
            -52 -41 -78 -66 -70 0 rrcurveto
            return
          </CharString>
          <CharString index="100">
            -104 0 -42 152 -98 0 -78 0 -74 -66 -53 -37 rrcurveto
            return
          </CharString>
          <CharString index="101">
            -52 -243 -134 -272 -255 0 -184 0 -62 144 0 171 0 65 9 68 14 67 53 247 136 272 254 0 184 0 61 -142 0 -172 rrcurveto
            0 -66 -9 -70 -15 -69 rrcurveto
            return
          </CharString>
          <CharString index="102">
            72 45 51 52 77 0 rrcurveto
            return
          </CharString>
          <CharString index="103">
            -3 -12 -1 -12 0 -11 0 -30 10 -27 18 -23 25 -32 36 -17 45 0 45 0 42 16 39 32 39 32 23 39 10 45 3 12 1 13 0 11 rrcurveto
            0 30 -9 27 -18 23 -25 32 -36 16 -45 0 -45 0 -42 -16 -39 -32 -39 -32 -24 -39 -10 -45 rrcurveto
            return
          </CharString>
          <CharString index="104">
            -3 -12 -1 -12 0 -11 0 -30 9 -27 18 -23 25 -32 36 -17 45 0 45 0 42 16 39 32 39 32 24 39 10 45 3 12 1 13 0 11 rrcurveto
            0 30 -10 27 -18 23 -25 32 -36 16 -45 0 -45 0 -42 -16 -39 -32 -39 -32 -23 -39 -10 -45 rrcurveto
            return
          </CharString>
          <CharString index="105">
            353 213 rlineto
            10 7 9 10 6 13 4 8 2 9 2 9 2 10 1 9 0 10 0 24 -4 19 -9 14 -7 11 -9 12 -12 10 -12 10 -13 7 -13 4 rrcurveto
            -7 2 -6 1 -6 0 -11 0 -11 -3 -9 -7 rrcurveto
            -334 -247 rlineto
            -5 -3 -4 -5 -2 -5 -2 -5 -2 -5 -1 -5 -1 -6 -1 -7 0 -7 0 -4 1 -5 0 -5 2 -20 3 -15 6 -10 6 -10 7 -10 11 -11 rrcurveto
            11 -11 11 -6 10 -3 4 -1 3 -1 3 0 5 0 4 2 5 3 rrcurveto
            return
          </CharString>
          <CharString index="106">
            106 54 -62 -73 hvcurveto
            0 -11 -1 -11 -2 -11 rrcurveto
            return
          </CharString>
          <CharString index="107">
            -18 -86 -87 -79 -122 0 -108 0 -63 62 0 74 0 9 1 10 2 10 18 86 98 82 122 0 rrcurveto
            return
          </CharString>
          <CharString index="108">
            -104 0 -41 152 -98 0 -78 0 -74 -66 -53 -37 rrcurveto
            return
          </CharString>
          <CharString index="109">
            86 -127 rlineto
            98 46 173 75 24 111 rrcurveto
            return
          </CharString>
          <CharString index="110">
            354 213 rlineto
            10 7 8 10 6 13 4 8 3 9 2 9 2 10 1 9 0 10 0 24 -4 19 -9 14 -7 11 -9 12 -12 10 -12 10 -14 7 -13 4 rrcurveto
            -7 2 -5 1 -6 0 -11 0 -11 -3 -9 -7 rrcurveto
            -335 -247 rlineto
            -5 -3 -3 -5 -2 -5 -2 -5 -3 -5 -1 -5 -2 -10 0 -11 1 -13 2 -20 4 -15 6 -10 6 -10 7 -10 11 -11 11 -11 11 -6 10 -3 rrcurveto
            4 -1 2 -1 3 0 5 0 4 2 5 3 rrcurveto
            return
          </CharString>
          <CharString index="111">
            -3 -12 -1 -12 0 -11 0 -30 10 -27 18 -23 25 -32 35 -17 45 0 45 0 42 16 39 32 39 32 24 39 10 45 3 12 1 13 0 11 rrcurveto
            0 30 -9 27 -18 23 -25 32 -36 16 -45 0 -45 0 -42 -16 -39 -32 -39 -32 -24 -39 -10 -45 rrcurveto
            return
          </CharString>
          <CharString index="112">
            -228 -1073 269 0 228 1073 rlineto
            return
          </CharString>
          <CharString index="113">
            -2 -12 -1 -11 0 -11 0 -74 54 -56 78 0 91 0 89 74 19 90 3 12 1 12 0 11 0 74 -54 55 -79 0 -90 0 -90 -73 -19 -91 rrcurveto
            return
          </CharString>
          <CharString index="114">
            3 -3 5 -2 5 0 3 0 4 1 4 1 12 3 13 6 15 11 15 11 13 10 10 10 10 10 10 15 10 20 7 12 3 10 2 9 rrcurveto
            1 6 1 7 0 5 0 5 -2 5 -3 3 rrcurveto
            -230 247 rlineto
            -7 7 -8 3 -11 0 -6 0 -7 -1 -7 -2 -15 -4 -16 -7 -16 -10 -16 -10 -15 -12 -11 -11 -14 -13 -12 -17 -10 -22 -6 -12 -3 -11 -2 -11 rrcurveto
            -2 -9 -1 -9 0 -8 0 -13 5 -10 8 -7 rrcurveto
            return
          </CharString>
          <CharString index="115">
            55 261 121 68 116 0 91 0 78 -43 0 -149 0 -38 -6 -45 -11 -54 -55 -261 -122 -70 -115 0 -92 0 -77 44 0 148 rrcurveto
            0 39 6 46 11 54 rrcurveto
            return
          </CharString>
          <CharString index="116">
            -3 -12 -1 -12 0 -11 0 -30 10 -27 18 -23 25 -32 35 -17 45 0 45 0 43 16 39 32 39 32 23 39 10 45 3 12 1 13 0 11 rrcurveto
            0 30 -9 27 -18 23 -25 32 -36 16 -45 0 -45 0 -42 -16 -39 -32 -39 -32 -24 -39 -10 -45 rrcurveto
            return
          </CharString>
          <CharString index="117">
            -16 -10 -23 -5 -27 -1 -31 1 -22 5 -14 11 -37 29 -28 57 -20 87 rrcurveto
            -161 hlineto
            -3 -10 -3 -11 -2 -10 -6 -28 -3 -28 0 -28 0 -50 10 -50 19 -51 17 -46 34 -38 48 -31 46 -30 49 -15 53 0 53 0 57 15 58 30 rrcurveto
            62 31 48 38 37 46 64 79 39 78 17 78 2 10 3 11 1 10 rrcurveto
            -157 hlineto
            -73 -93 -54 -58 -37 -23 rrcurveto
            return
          </CharString>
          <CharString index="118">
            -16 -10 -22 -5 -27 -1 -31 1 -22 5 -14 11 -37 29 -29 57 -20 87 rrcurveto
            -161 hlineto
            -3 -10 -2 -11 -2 -10 -6 -28 -3 -28 0 -28 0 -50 10 -50 19 -51 17 -46 33 -38 48 -31 46 -30 50 -15 53 0 53 0 56 15 58 30 rrcurveto
            62 31 49 38 37 46 64 79 39 78 17 78 2 10 2 11 1 10 rrcurveto
            -157 hlineto
            -73 -93 -54 -58 -37 -23 rrcurveto
            return
          </CharString>
          <CharString index="119">
            -10 5 -12 8 -13 9 -13 9 -13 9 -11 9 -11 9 -8 11 -8 11 -8 11 -3 11 2 9 3 15 3 11 3 8 3 8 6 12 10 14 rrcurveto
            10 14 13 15 16 14 rrcurveto
            -143 90 rlineto
            -86 -64 -50 -69 -16 -74 -2 -8 0 -8 0 -8 0 -9 1 -10 2 -9 4 -17 8 -16 10 -14 10 -14 13 -13 14 -14 14 -14 15 -12 16 -10 rrcurveto
            16 -10 15 -10 16 -10 16 -10 14 -9 14 -7 rrcurveto
            return
          </CharString>
          <CharString index="120">
            -10 5 -12 8 -13 9 -13 9 -13 9 -11 9 -11 9 -8 11 -8 11 rrcurveto
            return
          </CharString>
          <CharString index="121">
            -8 11 -3 11 2 9 3 15 3 11 3 8 3 8 6 12 10 14 10 14 13 15 16 14 rrcurveto
            -143 90 rlineto
            -86 -64 -50 -69 -16 -74 -2 -8 0 -8 0 -8 0 -9 1 -10 2 -9 4 -17 8 -16 10 -14 10 -14 13 -13 14 -14 14 -14 15 -12 16 -10 rrcurveto
            16 -10 15 -10 16 -10 16 -10 14 -9 14 -7 rrcurveto
            return
          </CharString>
          <CharString index="122">
            354 213 rlineto
            10 7 8 10 6 13 4 8 3 9 2 9 2 10 1 9 0 10 0 24 -4 19 -9 14 -7 11 -9 12 -12 10 -12 10 -14 7 -13 4 rrcurveto
            -7 2 -5 1 -6 0 -11 0 -11 -3 -9 -7 rrcurveto
            -335 -247 rlineto
            -5 -3 -3 -5 -2 -5 -2 -5 -3 -5 -1 -5 -1 -6 0 -7 0 -7 rrcurveto
            -14 vlineto
            2 -20 4 -15 6 -10 6 -10 7 -10 11 -11 11 -11 11 -6 10 -3 4 -1 2 -1 3 0 5 0 4 2 5 3 rrcurveto
            return
          </CharString>
          <CharString index="123">
            -271 0 -166 -161 -91 158 -277 0 212 -341 236 0 rlineto
            return
          </CharString>
          <CharString index="124">
            -271 0 -166 -161 -90 158 -277 0 211 -341 236 0 rlineto
            return
          </CharString>
          <CharString index="125">
            2 10 2 10 0 10 0 21 -6 20 -10 18 -15 27 -25 13 -37 0 -29 0 -30 -13 -28 -27 -28 -27 -17 -30 -7 -32 -3 -15 -1 -14 0 -13 rrcurveto
            0 -18 2 -17 7 -13 11 -23 16 -14 21 -6 1 -2 -1 -2 -1 -4 -3 -12 -6 -16 -13 -22 -13 -22 -9 -16 -7 -10 rrcurveto
            44 -34 rlineto
            12 9 13 12 16 16 16 16 19 20 19 24 19 24 18 28 17 31 17 31 11 32 6 30 rrcurveto
            return
          </CharString>
          <CharString index="126">
            -51 -241 rlineto
            10 7 17 11 22 15 22 15 18 12 11 7 11 7 16 6 18 7 rrcurveto
            return
          </CharString>
          <CharString index="127">
            18 7 19 3 18 0 18 0 19 -8 20 -16 20 -16 18 -17 16 -19 16 -19 19 -17 25 -16 rrcurveto
            return
          </CharString>
          <CharString index="128">
            25 -16 25 -8 26 0 19 0 20 4 22 8 22 8 16 8 13 8 13 8 16 10 20 14 20 14 13 9 4 3 rrcurveto
            55 260 rlineto
            -29 -23 -21 -16 -13 -10 -13 -10 -20 -13 -29 -14 -29 -14 -26 -7 -21 0 -19 0 -18 5 -18 10 -18 10 -16 13 -14 15 -21 22 1 2 -21 22 rrcurveto
            -14 15 -16 13 -17 10 rrcurveto
            return
          </CharString>
          <CharString index="129">
            -17 10 -17 5 -18 0 -15 0 -15 -3 -15 -4 -15 -4 -16 -7 -16 -9 -16 -9 -14 -7 -10 -7 -10 -7 -13 -9 -17 -13 -17 -13 -11 -8 -5 -3 rrcurveto
            return
          </CharString>
          <CharString index="130">
            25 -16 25 -8 26 0 19 0 21 4 22 8 22 8 16 8 13 8 13 8 16 10 20 14 20 14 12 9 4 3 rrcurveto
            55 260 rlineto
            -29 -23 -21 -16 -13 -10 -13 -10 -20 -13 -29 -14 -29 -14 -25 -7 -21 0 -19 0 -19 5 -18 10 -18 10 -16 13 -14 15 -21 22 2 2 -21 22 rrcurveto
            -14 15 -16 13 -17 10 rrcurveto
            return
          </CharString>
          <CharString index="131">
            -13 37 -7 41 0 43 0 40 5 43 10 46 rrcurveto
            return
          </CharString>
          <CharString index="132">
            -3 -12 -1 -12 0 -11 0 -28 8 -26 16 -23 22 -32 31 -16 40 0 40 0 37 16 36 32 36 32 23 37 9 43 3 12 0 12 0 11 rrcurveto
            0 28 -8 26 -16 23 -22 32 -30 16 -40 0 -40 0 -38 -16 -36 -32 -36 -32 -22 -37 -9 -43 rrcurveto
            return
          </CharString>
          <CharString index="133">
            27 -39 29 -27 35 -13 35 -13 46 -7 55 0 63 0 65 19 68 37 68 37 60 49 50 62 50 62 32 64 14 67 rrcurveto
            235 1108 -258 0 -248 -1165 rlineto
            -7 -32 -17 -27 -26 -21 -26 -21 -30 -10 -33 0 -17 0 -17 5 -15 8 -15 8 -11 10 -6 11 rrcurveto
            return
          </CharString>
          <CharString index="134">
            306 -414 336 0 -385 549 618 524 -335 0 -485 -401 85 402 -268 0 -228 -1075 268 0 rlineto
            return
          </CharString>
          <CharString index="135">
            3 15 1 14 0 14 0 66 -31 58 -37 40 0 0 -110 -55 -71 -35 20 -26 5 -23 0 -20 0 -15 -3 -13 -3 -14 -9 -41 -97 -45 -49 -25 rrcurveto
            return
          </CharString>
          <CharString index="136">
            2 10 2 11 0 11 0 63 -38 66 -98 0 -86 0 -91 -83 -17 -78 -4 -16 -1 -16 0 -14 0 -71 42 -38 44 -11 0 -3 1 -4 -1 -4 rrcurveto
            -7 -34 -51 -72 -13 -16 rrcurveto
            65 -43 rlineto
            54 36 162 142 35 164 rrcurveto
            return
          </CharString>
          <CharString index="137">
            -32 19 -35 9 -37 0 -69 0 -66 -18 -66 -36 -66 -36 -54 -45 -42 -55 rrcurveto
            return
          </CharString>
          <CharString index="138">
            303 286 rlineto
            9 9 5 11 3 13 2 7 1 7 0 8 0 12 -3 12 -4 12 -7 20 -9 15 -12 9 -9 9 -12 7 -16 6 -16 6 -14 4 -15 0 rrcurveto
            -20 0 -16 -6 -12 -13 rrcurveto
            -276 -312 rlineto
            -4 -4 -2 -5 -1 -5 -1 -4 0 -5 0 -4 0 -10 2 -11 5 -13 7 -18 8 -13 9 -7 9 -7 11 -8 14 -7 14 -7 12 -3 11 0 rrcurveto
            10 0 8 3 6 6 rrcurveto
            return
          </CharString>
          <CharString index="139">
            303 286 rlineto
            9 9 5 11 3 13 1 7 1 6 0 7 0 12 -3 13 -4 13 -7 20 -9 15 -12 9 -9 9 -12 7 -16 6 -16 6 -14 4 -15 0 rrcurveto
            -20 0 -16 -6 -12 -13 rrcurveto
            -275 -312 rlineto
            -4 -4 -2 -5 -1 -5 -3 -13 3 -16 7 -18 7 -18 7 -13 9 -7 9 -7 10 -8 14 -7 14 -7 13 -3 11 0 10 0 8 3 6 6 rrcurveto
            return
          </CharString>
          <CharString index="140">
            303 286 rlineto
            9 9 5 11 3 13 2 7 0 7 0 8 0 12 -2 12 -4 12 -7 20 -10 15 -12 9 -9 9 -12 7 -16 6 -16 6 -14 4 -15 0 rrcurveto
            -20 0 -16 -6 -12 -13 rrcurveto
            -275 -312 rlineto
            -4 -4 -2 -5 -1 -5 -1 -4 0 -5 0 -4 0 -10 2 -11 5 -13 7 -18 8 -13 9 -7 9 -7 10 -8 14 -7 14 -7 13 -3 11 0 rrcurveto
            10 0 8 3 6 6 rrcurveto
            return
          </CharString>
          <CharString index="141">
            113 -68 143 -29 0 -82 0 -5 -1 -6 -1 -6 -18 -84 -75 -10 -81 0 -79 0 -67 42 0 81 rrcurveto
            0 5 -240 -39 rlineto
            1 -192 118 -127 220 0 215 0 211 123 37 176 8 36 4 32 0 29 0 112 -56 68 -105 57 -138 74 -119 11 0 76 0 6 1 6 1 6 rrcurveto
            16 74 61 13 68 0 65 0 47 -16 0 -85 rrcurveto
            0 -11 249 43 rlineto
            0 5 1 5 0 5 0 139 -101 145 -216 0 -224 0 -170 -112 -38 -178 -8 -38 -4 -32 0 -28 rrcurveto
            0 -113 61 -48 101 -60 rrcurveto
            return
          </CharString>
          <CharString index="142">
            341 0 237 257 77 364 rrcurveto
            184 870 -268 0 -184 -870 rlineto
            -39 -182 -103 -199 -194 0 -142 0 -48 108 0 129 0 47 7 49 10 48 rrcurveto
            184 870 -268 0 -184 -870 rlineto
            -15 -69 -7 -64 0 -60 rrcurveto
            -258 136 -170 276 vhcurveto
            return
          </CharString>
          <CharString index="143">
            6 30 16 26 24 21 24 21 28 10 29 0 29 0 22 -10 16 -21 11 -15 6 -18 0 -19 0 -8 -1 -8 -2 -9 -6 -30 -16 -25 -24 -21 rrcurveto
            -24 -21 -28 -10 -29 0 -29 0 -22 10 -16 21 -11 15 -6 17 0 19 0 8 1 8 2 9 rrcurveto
            return
          </CharString>
          <CharString index="144">
            -4 -17 -1 -16 0 -16 0 -41 12 -37 26 -32 36 -44 49 -21 63 0 63 0 60 21 53 44 53 44 35 53 13 62 4 17 1 16 0 15 rrcurveto
            0 42 -13 37 -25 32 -35 44 -50 22 -63 0 -63 0 -59 -22 -54 -44 -54 -44 -34 -53 -13 -62 rrcurveto
            return
          </CharString>
          <CharString index="145">
            303 286 rlineto
            9 9 5 11 3 13 1 7 1 6 0 7 0 12 -3 13 -4 13 -7 20 -8 15 -12 9 -9 9 -12 7 -16 6 -16 6 -14 4 -15 0 rrcurveto
            -20 0 -16 -6 -12 -13 rrcurveto
            -276 -312 rlineto
            -4 -4 -2 -5 -1 -5 -3 -13 3 -16 7 -18 7 -18 7 -13 9 -7 9 -7 11 -8 14 -7 14 -7 12 -3 11 0 10 0 8 3 6 6 rrcurveto
            return
          </CharString>
          <CharString index="146">
            -51 -240 773 0 51 240 rlineto
            return
          </CharString>
          <CharString index="147">
            -51 -239 773 0 51 239 rlineto
            return
          </CharString>
          <CharString index="148">
            2 11 1 10 0 11 0 28 -8 26 -16 25 -22 34 -37 16 -53 0 -42 0 -41 -16 -39 -34 -39 -34 -23 -37 -9 -40 -4 -18 -2 -17 0 -15 rrcurveto
            0 -25 5 -21 11 -17 17 -28 23 -18 30 -7 0 -3 1 -3 -1 -5 -3 -15 -10 -20 -17 -27 -17 -27 -14 -20 -10 -13 rrcurveto
            65 -43 rlineto
            16 11 20 16 22 20 22 20 25 25 27 30 27 30 25 35 22 39 22 39 16 39 8 38 rrcurveto
            return
          </CharString>
          <CharString index="149">
            -51 -241 rlineto
            10 7 17 11 22 15 22 15 18 12 11 7 11 7 16 6 18 7 18 7 19 3 18 0 18 0 19 -8 20 -16 20 -16 18 -17 16 -19 rrcurveto
            16 -19 19 -17 25 -16 rrcurveto
            return
          </CharString>
          <CharString index="150">
            -229 -254 275 0 222 254 rlineto
            return
          </CharString>
          <CharString index="151">
            -3 -12 -1 -13 0 -11 0 -16 3 -15 5 -13 19 -56 42 -28 64 0 30 0 29 7 26 14 63 31 37 48 14 64 3 13 2 13 0 12 rrcurveto
            0 15 -3 14 -5 13 -19 56 -43 28 -64 0 -30 0 -28 -6 -26 -14 -63 -31 -38 -49 -14 -64 rrcurveto
            return
          </CharString>
          <CharString index="152">
            -3 -13 -1 -13 0 -12 0 -15 2 -14 5 -13 19 -56 43 -28 64 0 rrcurveto
            return
          </CharString>
          <CharString index="153">
            30 0 28 7 26 14 63 31 38 48 14 64 3 12 1 13 0 11 0 16 -3 15 -5 13 -19 56 -42 28 -64 0 rrcurveto
            return
          </CharString>
          <CharString index="154">
            -207 hlineto
            7 -38 8 -35 9 -31 9 -31 11 -28 13 -23 28 -48 37 -37 48 -25 48 -25 51 -13 57 0 63 0 62 16 60 31 60 31 52 40 46 46 rrcurveto
            23 23 22 27 22 31 22 31 18 29 17 27 rrcurveto
            -195 0 -47 -65 1 2 rlineto
            -29 -34 -30 -25 -30 -15 -30 -15 -34 -8 -36 0 -30 0 -27 9 -25 16 -25 16 -19 26 -12 36 rrcurveto
            -8 10 -5 19 -5 30 rrcurveto
            return
          </CharString>
          <CharString index="155">
            -3 -12 -1 -13 0 -11 0 -16 3 -15 5 -13 rrcurveto
            return
          </CharString>
          <CharString index="156">
            -3 -12 -1 -13 0 -11 0 -16 3 -15 5 -13 19 -56 42 -28 64 0 30 0 29 6 26 14 63 31 37 49 14 64 3 13 2 13 0 12 rrcurveto
            0 15 -3 14 -5 13 -19 56 -43 28 -64 0 -30 0 -28 -7 -26 -14 -63 -31 -38 -48 -14 -64 rrcurveto
            return
          </CharString>
          <CharString index="157">
            -30 0 -29 -7 -26 -14 rrcurveto
            -63 -31 -37 -48 -14 -64 rrcurveto
            return
          </CharString>
          <CharString index="158">
            30 0 29 7 26 14 63 31 37 48 14 64 3 13 1 13 0 12 0 15 -2 14 -5 13 -19 56 -43 28 -64 0 rrcurveto
            return
          </CharString>
          <CharString index="159">
            -30 0 -29 -7 -26 -14 -63 -31 -37 -48 -14 -64 rrcurveto
            return
          </CharString>
          <CharString index="160">
            -5 -23 -2 -22 0 -21 0 -45 11 -42 22 -38 47 -81 75 -40 104 0 72 0 69 22 65 42 96 62 60 82 22 104 5 23 2 22 0 21 rrcurveto
            0 45 -10 41 -22 38 -47 82 -75 41 -104 0 -74 0 -69 -21 -64 -42 -96 -63 -60 -83 -22 -104 rrcurveto
            return
          </CharString>
          <CharString index="161">
            -3 -12 -1 -13 0 -11 0 -30 9 -27 18 -23 25 -32 36 -16 45 0 45 0 42 16 39 32 39 32 24 39 10 45 3 12 1 13 0 11 rrcurveto
            0 30 -10 27 -18 23 -25 32 -35 16 -45 0 -45 0 -43 -16 -39 -32 -39 -32 -23 -39 -10 -45 rrcurveto
            return
          </CharString>
          <CharString index="162">
            -3 -12 -1 -13 0 -11 0 -30 9 -27 18 -23 25 -32 36 -16 45 0 45 0 42 16 39 32 39 32 24 39 10 45 3 12 0 13 0 11 rrcurveto
            0 30 -9 27 -18 23 -25 32 -36 16 -45 0 -45 0 -42 -16 -39 -32 -39 -32 -23 -39 -10 -45 rrcurveto
            return
          </CharString>
          <CharString index="163">
            156 300 rlineto
            2 4 1 3 1 4 1 7 0 8 -2 8 -4 17 -11 16 -15 13 -15 13 -17 8 -16 3 -10 2 -11 1 -13 0 rrcurveto
            -13 hlineto
            -18 -1 -17 -5 -14 -6 -20 -8 -13 -12 -6 -15 rrcurveto
            -117 -310 rlineto
            -2 -5 1 -5 1 -5 3 -12 8 -11 15 -12 15 -12 14 -8 12 -2 12 -2 14 -1 17 0 17 0 14 2 11 5 9 4 6 6 4 8 rrcurveto
            return
          </CharString>
          <CharString index="164">
            51 -423 -300 0 rlineto
            return
          </CharString>
          <CharString index="165">
            44 -379 307 0 -199 1456 -256 0 -872 -1456 311 0 217 379 rlineto
            return
          </CharString>
          <CharString index="166">
            156 300 rlineto
            2 4 1 3 1 4 1 7 0 8 -2 8 -4 17 -11 16 -15 13 -15 13 -17 8 -16 3 -10 2 -11 1 -13 0 rrcurveto
            -13 hlineto
            -18 -1 -17 -5 -14 -6 -20 -8 -13 -12 -6 -15 rrcurveto
            -117 -310 rlineto
            -1 -2 0 -3 0 -2 0 -3 0 -2 1 -3 3 -12 8 -11 15 -12 15 -12 14 -8 12 -2 12 -2 14 -1 17 0 17 0 14 2 11 5 rrcurveto
            9 4 6 6 4 8 rrcurveto
            return
          </CharString>
          <CharString index="167">
            -309 -1456 982 0 51 240 -714 0 82 387 652 0 51 239 -652 0 75 351 714 0 50 239 rlineto
            return
          </CharString>
          <CharString index="168">
            -309 -1456 268 0 133 625 485 0 -133 -625 269 0 309 1456 -269 0 -125 -592 -485 0 125 592 rlineto
            return
          </CharString>
          <CharString index="169">
            269 0 309 1456 -269 0 rlineto
            return
          </CharString>
          <CharString index="170">
            303 -751 -150 -705 269 0 150 705 610 751 -278 0 -424 -537 -196 537 rlineto
            return
          </CharString>
          <CharString index="171">
            -34 22 -34 32 -32 41 -32 41 -20 44 -6 48 -4 29 -1 30 0 29 0 19 1 19 1 19 3 49 8 51 11 52 10 48 13 46 16 45 rrcurveto
            16 45 21 44 25 44 25 44 30 38 31 32 31 32 37 27 43 20 43 20 47 10 49 0 61 0 50 -15 39 -30 39 -30 27 -38 13 -50 rrcurveto
            13 -47 5 -50 0 -52 rrcurveto
            -9 vlineto
            -1 -55 -6 -58 -13 -61 -11 -52 -14 -51 -16 -49 -16 -49 -22 -50 -26 -53 -26 -53 -41 -47 -57 -41 -59 -42 -51 -27 -43 -11 rrcurveto
            -49 -229 602 0 49 229 -191 0 rlineto
            27 32 26 35 24 36 46 70 37 70 28 70 28 70 22 71 15 71 14 67 8 67 1 66 rrcurveto
            10 vlineto
            0 63 -9 62 -16 62 -17 65 -26 58 -36 49 -36 49 -49 40 -64 31 -64 31 -77 15 -87 0 -87 0 -81 -15 -78 -31 -78 -31 -66 -40 -57 -50 rrcurveto
            -57 -50 -51 -57 -45 -65 -45 -65 -36 -65 -27 -66 -27 -66 -22 -67 -14 -67 -15 -71 -9 -71 -1 -71 rrcurveto
            -13 vlineto
            0 -67 8 -65 15 -65 8 -36 13 -34 13 -32 rrcurveto
            -212 0 -49 -229 602 0 rlineto
            return
          </CharString>
          <CharString index="172">
            -3 -12 -1 -13 0 -11 0 -30 10 -27 18 -23 25 -32 35 -16 45 0 45 0 43 16 39 32 39 32 23 39 10 45 3 12 1 13 0 11 rrcurveto
            0 30 -9 27 -18 23 -25 32 -36 16 -45 0 -45 0 -42 -16 -39 -32 -39 -32 -24 -39 -10 -45 rrcurveto
            return
          </CharString>
          <CharString index="173">
            227 hlineto
            166 83 -49 -98 hvcurveto
            0 -14 -2 -15 -3 -16 -13 -60 -32 -50 -52 -39 -52 -39 -77 -19 -103 0 rrcurveto
            -227 hlineto
            return
          </CharString>
          <CharString index="174">
            168 hlineto
            91 0 62 -17 33 -33 rrcurveto
            return
          </CharString>
          <CharString index="175">
            25 -25 13 -29 0 -33 0 -11 -2 -11 -2 -11 -10 -47 -28 -40 -47 -34 -47 -34 -70 -17 -91 0 rrcurveto
            -168 hlineto
            return
          </CharString>
          <CharString index="176">
            -309 -1456 525 0 rlineto
            85 0 77 11 69 21 69 21 56 26 43 31 43 31 36 35 32 42 32 42 23 39 14 35 14 35 12 35 7 35 rrcurveto
            return
          </CharString>
          <CharString index="177">
            4 20 3 21 0 21 0 23 -2 24 -5 24 -9 47 -24 45 -37 44 -37 44 -49 30 -61 15 66 19 57 33 47 45 47 45 30 58 16 73 rrcurveto
            5 23 3 23 2 22 rrcurveto
            return
          </CharString>
          <CharString index="178">
            0 6 1 6 0 6 0 17 -2 20 -3 19 -4 26 -8 24 -11 22 -11 22 -17 22 -22 22 -22 22 -28 19 -32 15 -32 15 -41 12 -49 9 rrcurveto
            -49 9 -56 5 -62 0 rrcurveto
            return
          </CharString>
          <CharString index="179">
            714 0 50 239 -982 0 -309 -1456 268 0 rlineto
            return
          </CharString>
          <CharString index="180">
            1332 0 -220 1456 -270 0 rlineto
            return
          </CharString>
          <CharString index="181">
            262 0 210 988 103 -988 270 0 530 999 -212 -999 262 0 309 1456 -359 0 -576 -1032 -130 1032 -360 0 rlineto
            return
          </CharString>
          <CharString index="182">
            -309 -1456 268 0 259 1217 485 0 -259 -1217 269 0 309 1456 rlineto
            return
          </CharString>
          <CharString index="183">
            84 394 130 0 rlineto
            160 79 -50 -99 hvcurveto
            0 -15 -1 -16 -4 -17 -28 -131 -106 -66 -184 0 rrcurveto
            return
          </CharString>
          <CharString index="184">
            -309 -1456 268 0 123 580 130 0 rlineto
            85 0 81 12 75 23 75 23 64 32 55 40 55 40 45 47 36 53 36 53 24 57 13 60 7 31 3 31 0 29 0 28 -3 26 -6 25 rrcurveto
            -12 52 -24 46 -35 40 -35 40 -53 31 -66 23 -66 23 -78 11 -90 0 rrcurveto
            -130 hlineto
            return
          </CharString>
          <CharString index="185">
            56 262 -814 0 506 446 -325 455 824 0 56 262 -1102 0 -76 -359 257 -357 -407 -349 -77 -360 rlineto
            return
          </CharString>
          <CharString index="186">
            -50 -239 477 0 -259 -1217 268 0 259 1217 457 0 50 239 rlineto
            return
          </CharString>
          <CharString index="187">
            19 2 20 4 19 3 61 11 63 17 64 25 64 25 59 30 52 37 52 37 46 47 40 57 40 57 26 63 15 69 7 34 4 33 0 31 rrcurveto
            0 32 -4 30 -8 29 -16 57 -26 46 -37 37 -37 37 -45 31 -53 25 -53 25 -55 18 -58 11 -17 3 -18 3 -18 2 rrcurveto
            36 171 -243 0 -36 -169 rlineto
            -25 -3 -25 -4 -25 -4 -66 -11 -68 -18 -67 -25 -67 -25 -62 -30 -55 -37 -55 -37 -49 -47 -41 -57 -41 -57 -28 -62 -15 -69 -7 -32 -3 -30 0 -29 rrcurveto
            0 -34 5 -33 9 -31 17 -57 29 -46 39 -37 39 -37 48 -31 58 -25 58 -25 59 -17 61 -11 23 -4 25 -3 23 -3 rrcurveto
            -67 -314 243 0 rlineto
            return
          </CharString>
          <CharString index="188">
            1 hlineto
            39 -5 37 -9 37 -13 37 -13 31 -17 25 -19 25 -19 18 -26 11 -31 7 -18 3 -19 0 -21 0 -15 -1 -16 -4 -17 -10 -49 -22 -43 -35 -36 rrcurveto
            -35 -36 -41 -28 -49 -19 -49 -19 -49 -14 -52 -9 -11 -2 -12 -2 -11 -1 rrcurveto
            return
          </CharString>
          <CharString index="189">
            -6 1 -6 0 -6 1 -43 5 -42 9 -40 13 -40 13 -34 17 -28 19 -28 19 -21 26 -13 31 -8 18 -3 21 0 21 0 15 2 15 3 16 rrcurveto
            8 39 16 35 27 31 27 31 31 25 36 20 36 20 41 16 46 13 46 13 45 9 45 5 6 1 7 0 6 1 rrcurveto
            return
          </CharString>
          <CharString index="190">
            267 -729 -582 -727 337 0 345 460 153 -460 337 0 -275 727 578 729 -310 0 -378 -501 -163 501 rlineto
            return
          </CharString>
          <CharString index="191">
            156 300 rlineto
            2 4 1 3 1 4 1 7 0 8 -2 8 -4 17 -11 16 -15 13 -15 13 -17 8 -16 3 -10 2 -11 1 -13 0 rrcurveto
            -13 hlineto
            -18 -1 -17 -5 -14 -6 -20 -8 -13 -12 -6 -15 rrcurveto
            -117 -310 rlineto
            -2 -5 1 -5 1 -5 3 -12 8 -11 15 -12 15 -12 14 -8 12 -2 12 -2 14 -1 17 0 17 0 14 2 11 5 rrcurveto
            9 4 6 6 4 8 rrcurveto
            return
          </CharString>
          <CharString index="192">
            47 219 86 111 126 0 92 0 45 -59 0 -117 0 -43 -5 -52 -13 -59 -47 -221 -87 -110 -126 0 -92 0 -46 59 0 117 0 44 7 51 13 60 rrcurveto
            return
          </CharString>
          <CharString index="193">
            -36 21 -42 11 -50 0 -81 0 -67 -23 -55 -45 rrcurveto
            -60 52 rlineto
            return
          </CharString>
          <CharString index="194">
            -49 27 -60 14 -68 0 -131 0 -118 -51 -104 -101 -104 -101 -70 -138 -37 -173 -14 -67 -8 -61 0 -56 0 -91 19 -76 38 -63 61 -101 87 -51 113 0 rrcurveto
            81 0 75 15 67 30 rrcurveto
            46 23 66 -12 rlineto
            return
          </CharString>
          <CharString index="195">
            36 -25 39 -13 42 0 8 0 9 1 8 1 42 0 48 11 54 21 46 18 42 26 38 35 rrcurveto
            -132 172 rlineto
            -10 -11 -16 -10 -19 -8 -15 -7 -14 -4 -14 -1 rrcurveto
            128 601 rlineto
            13 -2 11 -3 12 -6 15 -8 11 -11 6 -11 rrcurveto
            return
          </CharString>
          <CharString index="196">
            -12 16 -6 17 0 19 0 7 0 7 2 7 8 36 17 28 24 19 24 19 27 10 31 0 22 0 19 -6 14 -12 14 -12 9 -15 3 -17 rrcurveto
            236 65 rlineto
            -24 141 -89 70 -154 0 -44 0 -45 -5 -40 -11 -40 -11 -39 -18 -37 -22 -37 -22 -32 -31 -26 -39 -26 -39 -20 -45 -11 -52 -4 -19 -2 -19 0 -18 rrcurveto
            0 -61 24 -50 47 -40 -27 -16 -25 -16 -21 -16 -21 -16 -23 -19 -23 -24 -23 -24 -19 -27 -17 -32 -17 -32 -13 -33 -8 -38 rrcurveto
            return
          </CharString>
          <CharString index="197">
            -141 -664 rlineto
            -5 -25 -3 -24 0 -24 0 -41 8 -40 15 -39 24 -62 36 -49 52 -37 52 -37 59 -19 63 0 55 0 47 7 41 13 41 13 42 27 43 39 rrcurveto
            -133 172 rlineto
            -10 -11 -15 -10 -19 -8 -19 -8 -19 -5 -17 0 -33 0 -25 10 -18 21 -13 14 -6 18 0 21 0 8 1 10 2 9 rrcurveto
            12 57 142 664 rlineto
            return
          </CharString>
          <CharString index="198">
            47 219 97 110 148 0 113 0 56 -63 0 -127 0 -40 -6 -47 -11 -52 -47 -221 -97 -110 -148 0 -112 0 -57 64 0 127 0 40 6 47 11 53 rrcurveto
            return
          </CharString>
          <CharString index="199">
            -14 -66 -7 -61 0 -56 0 -92 19 -77 38 -63 61 -101 105 -50 151 0 150 0 126 51 104 102 104 102 70 137 37 174 14 66 7 61 0 55 rrcurveto
            0 91 -18 76 -38 63 -61 101 -105 50 -150 0 -150 0 -127 -51 -104 -101 -104 -101 -71 -137 -37 -173 rrcurveto
            return
          </CharString>
          <CharString index="200">
            236 112 rlineto
            -24 70 -43 56 -64 42 -64 42 -71 22 -77 0 -145 0 -132 -53 -116 -105 -116 -105 -76 -137 -36 -168 -12 -57 -6 -53 0 -50 0 -97 23 -83 48 -68 rrcurveto
            72 -102 117 -51 159 0 41 0 41 7 42 13 42 13 38 18 36 23 36 23 32 24 30 27 30 27 27 28 24 30 rrcurveto
            -190 111 rlineto
            -9 -13 -11 -14 -11 -13 -11 -13 -10 -12 -12 -11 -12 -11 -17 -8 -19 -7 -19 -7 -24 -3 -25 0 -73 0 -55 30 -37 61 -23 39 -11 46 0 53 rrcurveto
            0 31 3 33 8 36 21 98 41 80 60 64 60 64 62 32 66 0 77 0 52 -38 27 -76 rrcurveto
            return
          </CharString>
          <CharString index="201">
            -258 0 -114 -538 rlineto
            -27 -125 -13 -99 0 -72 0 -57 8 -41 17 -24 55 -78 62 -47 67 -16 44 -10 42 -6 43 0 43 0 44 6 42 10 47 11 52 19 53 30 rrcurveto
            49 26 48 40 48 56 41 47 34 60 30 71 33 78 21 60 9 43 20 93 10 82 0 69 rrcurveto
            9 vlineto
            -1 67 -9 60 -19 53 -19 53 -31 41 -43 30 -43 30 -53 16 -64 0 rrcurveto
            -143 -234 rlineto
            26 0 24 -6 21 -12 21 -12 19 -17 16 -25 16 -25 9 -34 4 -44 1 -9 0 -9 0 -9 0 -41 -6 -49 -12 -57 -17 -80 -13 -46 -12 -13 rrcurveto
            -18 -40 -17 -32 -19 -24 -19 -24 -20 -19 -21 -15 -21 -15 -20 -10 -18 -5 -8 -2 -17 -3 -28 -3 -5 0 -4 -1 -5 0 -24 0 -22 7 -20 13 rrcurveto
            -19 14 -14 25 -7 36 -5 28 -3 27 0 28 rrcurveto
            13 vlineto
            1 40 6 47 11 53 rrcurveto
            return
          </CharString>
          <CharString index="202">
            -11 -53 -13 -47 -17 -40 -13 -32 -16 -32 -20 -32 -23 -36 -24 -25 -25 -14 -26 -13 -24 -7 -24 0 -5 0 -4 1 -5 0 -26 3 -17 3 -8 2 rrcurveto
            -16 5 -14 10 -15 15 -15 15 -11 19 -9 24 -9 24 -4 32 0 40 -2 3 -1 6 0 8 0 22 6 41 13 59 15 70 19 58 23 46 rrcurveto
            22 44 25 34 26 25 26 25 26 17 27 12 27 12 25 6 26 0 rrcurveto
            -43 234 rlineto
            -64 0 -61 -16 -55 -30 -55 -30 -49 -41 -41 -53 -41 -53 -35 -60 -29 -67 -31 -71 -26 -85 -21 -97 -9 -43 -6 -61 0 -78 0 -71 10 -59 21 -47 rrcurveto
            24 -56 32 -40 37 -26 41 -30 42 -19 43 -11 38 -10 40 -6 43 0 43 0 46 6 48 10 55 12 59 29 63 46 43 -46 47 -29 51 -12 rrcurveto
            44 -10 42 -6 43 0 43 0 44 6 42 10 51 12 50 20 51 28 51 28 49 41 45 53 41 47 34 60 30 71 33 78 21 60 9 43 rrcurveto
            20 93 11 83 0 69 rrcurveto
            8 vlineto
            -1 67 -10 60 -19 53 -19 53 -31 41 -43 30 -43 30 -53 16 -64 0 rrcurveto
            -143 -234 rlineto
            26 0 24 -6 21 -12 21 -12 19 -17 16 -25 16 -25 9 -34 4 -44 1 -9 0 -9 0 -9 0 -41 -6 -49 -12 -57 -17 -80 -13 -46 -12 -13 rrcurveto
            -18 -40 -17 -32 -19 -24 -19 -24 -20 -19 -21 -15 -21 -15 -20 -10 -18 -5 -8 -2 -16 -3 -28 -3 -5 0 -4 -1 -5 0 -24 0 -23 7 -20 13 rrcurveto
            -19 14 -13 25 -7 36 -6 29 -3 28 0 29 rrcurveto
            10 vlineto
            1 40 6 47 11 53 rrcurveto
            56 264 -258 0 rlineto
            return
          </CharString>
          <CharString index="203">
            -3 -12 -1 -13 0 -11 0 -30 9 -27 18 -23 25 -32 36 -16 45 0 45 0 42 16 39 32 39 32 24 39 10 45 3 12 1 13 0 11 rrcurveto
            0 30 -9 27 -18 23 -25 32 -36 16 -45 0 -45 0 -42 -16 -39 -32 -39 -32 -24 -39 -10 -45 rrcurveto
            return
          </CharString>
          <CharString index="204">
            -14 -66 -7 -61 0 -56 0 -92 19 -77 38 -63 43 -71 65 -46 88 -21 rrcurveto
            -81 -380 243 0 80 379 rlineto
            98 21 86 47 75 73 104 102 70 137 37 174 14 66 7 61 0 55 0 91 -18 76 -38 63 -44 72 -66 47 -90 20 rrcurveto
            78 366 -243 0 -78 -367 rlineto
            -96 -21 -85 -47 -73 -71 -104 -101 -71 -137 -37 -173 rrcurveto
            return
          </CharString>
          <CharString index="205">
            -124 -584 rlineto
            -35 31 -17 51 0 70 0 41 6 47 11 53 31 145 53 97 75 49 rrcurveto
            return
          </CharString>
          <CharString index="206">
            38 -31 20 -53 0 -74 0 -40 -6 -46 -11 -52 -32 -151 -56 -99 -79 -48 rrcurveto
            return
          </CharString>
          <CharString index="207">
            130 hlineto
            160 79 -50 -99 hvcurveto
            0 -15 -1 -16 -4 -17 -28 -131 -106 -66 -184 0 rrcurveto
            -130 hlineto
            return
          </CharString>
          <CharString index="208">
            303 -751 -349 -445 rlineto
            -25 -21 -29 -10 -35 0 -17 0 -18 5 -15 8 -15 8 -10 10 -6 11 rrcurveto
            -206 -172 rlineto
            27 -39 29 -27 35 -13 35 -13 46 -7 55 0 63 0 65 19 68 37 68 37 59 49 50 62 rrcurveto
            393 501 611 751 -278 0 -424 -537 -196 537 rlineto
            return
          </CharString>
          <CharString index="209">
            -309 -1456 260 0 773 940 -200 -940 269 0 309 1456 -265 0 -775 -973 206 973 rlineto
            return
          </CharString>
          <CharString index="210">
            -238 100 rlineto
            -103 -134 -98 -67 -90 0 -61 0 -49 15 -40 29 -40 29 -29 41 -16 51 -17 52 -7 60 0 66 0 63 8 67 15 72 12 55 15 52 17 47 rrcurveto
            17 47 22 45 26 44 26 44 29 37 33 31 33 31 39 25 45 18 45 18 49 9 53 0 43 0 40 -16 38 -31 38 -31 27 -37 18 -44 rrcurveto
            274 89 rlineto
            -20 86 -46 73 -73 60 -73 60 -97 31 -118 0 -91 0 -84 -14 -79 -27 -79 -27 -68 -37 -58 -46 -58 -46 -51 -56 -46 -64 -46 -64 -37 -68 -29 -70 rrcurveto
            -29 -70 -23 -75 -17 -79 -18 -83 -8 -77 -3 -74 0 -10 -1 -9 0 -10 0 -64 8 -62 15 -59 18 -68 27 -58 36 -50 36 -50 52 -40 67 -29 rrcurveto
            67 -29 80 -15 92 0 232 0 193 114 155 229 rrcurveto
            return
          </CharString>
          <CharString index="211">
            57 -229 145 -114 232 0 92 0 86 15 79 29 79 29 70 40 58 50 58 50 51 58 46 68 46 68 39 72 29 74 29 74 22 77 18 83 rrcurveto
            17 79 9 75 1 70 rrcurveto
            10 vlineto
            0 67 -8 64 -18 61 -18 64 -29 56 -38 46 -38 46 -54 37 -67 27 -67 27 -78 14 -91 0 -118 0 -109 -31 -99 -60 -99 -60 -78 -73 -56 -86 rrcurveto
            236 -89 rlineto
            36 44 43 37 52 31 52 31 46 16 43 0 53 0 45 -9 37 -18 37 -18 31 -25 19 -31 19 -31 13 -37 8 -44 6 -32 2 -32 0 -33 rrcurveto
            0 -13 0 -13 -1 -13 -3 -47 -7 -52 -12 -55 -16 -74 -21 -69 -28 -64 -28 -64 -32 -58 -38 -51 -38 -51 -45 -41 -52 -29 -52 -29 -57 -15 -61 0 rrcurveto
            -90 0 -68 67 -47 134 rrcurveto
            return
          </CharString>
          <CharString index="212">
            -228 -1074 258 0 187 835 627 0 51 239 rlineto
            return
          </CharString>
          <CharString index="213">
            17 59 32 51 46 43 46 43 52 21 59 0 60 0 45 -22 28 -42 22 -32 10 -39 0 -43 0 -13 -1 -12 -2 -14 rrcurveto
            return
          </CharString>
          <CharString index="214">
            -229 -1077 209 0 611 696 -148 -696 217 0 229 1077 -214 0 -612 -720 153 720 rlineto
            return
          </CharString>
          <CharString index="215">
            -232 -1074 268 0 91 426 362 0 -91 -426 269 0 232 1074 -269 0 -91 -409 -362 0 91 409 rlineto
            return
          </CharString>
          <CharString index="216">
            12 58 222 1044 -259 0 -114 -536 rlineto
            -11 -53 -13 -46 -18 -40 -18 -40 -17 -32 -19 -24 -19 -24 -20 -19 -21 -15 -21 -15 -20 -10 -18 -5 -18 -5 -17 -3 -18 0 -18 0 -16 3 -15 5 rrcurveto
            -15 5 -13 9 -13 15 -13 15 -10 18 -7 24 -6 21 -2 27 0 33 rrcurveto
            15 vlineto
            1 40 6 47 11 53 rrcurveto
            114 537 -258 0 -114 -538 rlineto
            -20 -95 -11 -84 0 -71 0 -68 9 -56 18 -47 37 -96 68 -47 99 0 66 0 66 19 66 36 66 36 52 45 41 54 rrcurveto
            -47 -220 rlineto
            -11 -53 -28 -43 -44 -31 -44 -31 -50 -16 -56 0 -53 0 -42 11 -31 22 -31 22 -17 30 -5 36 rrcurveto
            -228 -112 rlineto
            17 -67 40 -57 63 -47 63 -47 82 -23 99 0 53 0 57 13 59 25 59 25 55 34 51 40 51 40 44 47 38 53 38 53 25 53 11 53 rrcurveto
            return
          </CharString>
          <CharString index="217">
            161 hlineto
            123 61 -35 -73 hvcurveto
            0 -10 -1 -12 -3 -12 -9 -44 -24 -37 -38 -29 -38 -29 -58 -14 -76 0 rrcurveto
            -161 hlineto
            return
          </CharString>
          <CharString index="218">
            353 213 rlineto
            10 7 9 10 6 13 4 8 2 9 2 9 2 11 1 11 0 12 0 22 -5 17 -8 13 -7 11 -9 12 -12 10 -12 10 -13 7 -13 4 rrcurveto
            -7 2 -6 1 -6 0 -11 0 -11 -3 -9 -7 rrcurveto
            -334 -247 rlineto
            -5 -3 -4 -5 -2 -5 -2 -5 -2 -5 -1 -5 -2 -10 0 -11 1 -13 2 -20 3 -15 6 -10 6 -10 7 -10 11 -11 11 -11 11 -6 10 -3 rrcurveto
            4 -1 3 -1 3 0 5 0 4 2 5 3 rrcurveto
            return
          </CharString>
          <CharString index="219">
            -3 -13 -2 -12 0 -12 0 -28 8 -25 16 -22 22 -32 32 -16 40 0 40 0 38 16 36 32 36 32 22 37 9 43 3 13 1 12 0 12 rrcurveto
            0 28 -8 25 -16 22 -22 32 -31 16 -40 0 -40 0 -39 -16 -36 -32 -36 -32 -21 -37 -9 -43 rrcurveto
            return
          </CharString>
          <CharString index="220">
            -3 -12 0 -12 0 -11 0 -30 9 -27 18 -23 25 -32 36 -17 45 0 45 0 42 16 39 32 39 32 23 39 10 45 3 12 1 13 0 11 rrcurveto
            0 30 -9 27 -18 23 -25 32 -36 16 -45 0 -45 0 -42 -16 -39 -32 rrcurveto
            -39 -32 -24 -39 -10 -45 rrcurveto
            return
          </CharString>
          <CharString index="221">
            -3 -13 -1 -13 0 -12 0 -15 2 -14 5 -13 19 -56 43 -28 64 0 30 0 29 6 26 14 63 31 37 49 14 64 3 12 1 13 0 11 rrcurveto
            0 16 -3 15 -5 13 -19 56 -42 28 -64 0 -30 0 -28 -7 -26 -14 -63 -31 -38 -48 -14 -64 rrcurveto
            return
          </CharString>
          <CharString index="222">
            -3 -12 -1 -13 0 -11 0 -16 3 -15 5 -13 19 -56 42 -28 64 0 30 0 29 6 26 14 63 31 37 49 14 64 3 13 2 13 0 12 rrcurveto
            0 15 -3 14 -5 13 -19 56 -43 28 -64 0 -30 0 -28 -7 -26 -14 rrcurveto
            -63 -31 -38 -48 -14 -64 rrcurveto
            return
          </CharString>
          <CharString index="223">
            -310 -1458 268 0 133 625 486 0 -133 -625 269 0 310 1458 -269 0 -126 -593 -486 0 126 593 rlineto
            return
          </CharString>
          <CharString index="224">
            129 605 rlineto
            14 68 35 61 55 53 57 55 53 27 49 0 22 0 18 -13 13 -26 19 -36 10 -45 0 -53 0 -38 -5 -43 -10 -47 rrcurveto
            -121 -568 259 0 122 572 rlineto
            19 87 8 80 0 70 0 12 -1 11 0 11 -11 174 -72 86 -131 0 -144 0 -108 -50 -76 -100 rrcurveto
            106 503 -258 0 -309 -1456 rlineto
            return
          </CharString>
          <CharString index="225">
            -310 -1458 1035 0 51 240 -767 0 259 1218 rlineto
            return
          </CharString>
          <CharString index="226">
            -3 -13 -1 -13 0 -12 0 -15 2 -14 5 -13 19 -56 43 -28 64 0 30 0 29 6 26 14 63 31 37 49 14 64 3 12 1 13 0 11 rrcurveto
            0 16 -3 15 -5 13 -19 56 -42 28 -64 0 -30 0 -28 -7 -26 -14 rrcurveto
            -63 -31 -38 -48 -14 -64 rrcurveto
            return
          </CharString>
          <CharString index="227">
            249 1175 -259 0 -250 -1179 rlineto
            return
          </CharString>
          <CharString index="228">
            -9 -40 -4 -36 0 -32 0 -33 5 -29 10 -23 32 -75 95 -38 157 0 rrcurveto
            47 224 rlineto
            -52 -24 20 40 hvcurveto
            0 8 1 8 2 10 rrcurveto
            return
          </CharString>
          <CharString index="229">
            -3 -12 -1 -12 0 -11 0 -30 9 -27 18 -23 25 -32 36 -17 45 0 45 0 42 16 39 32 39 32 24 39 10 45 3 12 1 13 0 11 rrcurveto
            0 30 -10 27 -18 23 -25 32 -35 16 -45 0 -45 0 -43 -16 -39 -32 rrcurveto
            -39 -32 -23 -39 -10 -45 rrcurveto
            return
          </CharString>
          <CharString index="230">
            262 0 210 988 104 -990 270 0 531 1002 -213 -1000 262 0 310 1458 -358 0 -579 -1034 -129 1034 -360 0 rlineto
            return
          </CharString>
          <CharString index="231">
            -3 -12 -1 -13 0 -11 0 -16 3 -15 5 -13 19 -56 42 -28 64 0 30 0 28 6 26 14 63 31 38 49 14 64 3 13 1 13 0 12 rrcurveto
            0 15 -2 14 -5 13 -19 56 -43 28 -64 0 -30 0 -29 -7 -26 -14 -63 -31 -37 -48 -14 -64 rrcurveto
            return
          </CharString>
          <CharString index="232">
            268 0 207 974 363 -974 265 0 310 1458 -269 0 -200 -941 -374 941 -260 0 rlineto
            return
          </CharString>
          <CharString index="233">
            129 605 rlineto
            14 68 35 61 55 53 rrcurveto
            return
          </CharString>
          <CharString index="234">
            57 55 53 27 49 0 22 0 18 -13 13 -26 19 -36 10 -45 0 -53 0 -38 -5 -43 -10 -47 rrcurveto
            -121 -568 259 0 122 572 rlineto
            19 87 8 80 0 70 0 12 -1 11 0 11 -11 174 -72 86 -131 0 -137 0 -106 -40 -79 -81 rrcurveto
            return
          </CharString>
          <CharString index="235">
            19 92 -258 0 -228 -1074 rlineto
            return
          </CharString>
          <CharString index="236">
            84 394 98 0 rlineto
            26 0 23 -1 22 -1 135 -10 67 -43 0 -77 0 -11 0 -11 -3 -12 -3 -14 -4 -13 -4 -12 -42 -126 -114 -63 -187 0 rrcurveto
            return
          </CharString>
          <CharString index="237">
            305 0 -311 633 rlineto
            62 15 56 23 51 30 151 83 91 118 32 150 6 29 3 26 0 26 0 52 -12 47 -24 41 -72 123 -157 62 -242 0 rrcurveto
            -98 0 -269 0 -310 -1458 269 0 123 580 84 0 rlineto
            return
          </CharString>
          <CharString index="238">
            138 201 rlineto
            -10 11 -12 10 -16 11 rrcurveto
            return
          </CharString>
          <CharString index="239">
            -61 41 -62 21 -63 0 -74 0 -79 -48 -86 -96 rrcurveto
            return
          </CharString>
          <CharString index="240">
            24 115 -258 0 -228 -1074 258 0 131 615 rlineto
            9 44 26 46 41 49 rrcurveto
            return
          </CharString>
          <CharString index="241">
            67 77 67 38 64 0 19 0 42 -20 63 -41 rrcurveto
            return
          </CharString>
          <CharString index="242">
            -3 -12 -1 -12 0 -11 0 -30 10 -27 18 -23 25 -32 35 -17 45 0 45 0 42 16 39 32 39 32 24 39 10 45 3 12 1 13 0 11 rrcurveto
            0 30 -9 27 -18 23 -25 32 -36 16 -45 0 -45 0 -42 -16 -39 -32 rrcurveto
            -39 -32 -24 -39 -10 -45 rrcurveto
            return
          </CharString>
          <CharString index="243">
            -51 -240 478 0 -259 -1218 268 0 259 1218 457 0 51 240 rlineto
            return
          </CharString>
          <CharString index="244">
            -51 -240 894 0 51 240 rlineto
            return
          </CharString>
          <CharString index="245">
            -2 -10 -1 -11 0 -11 0 -63 38 -66 98 0 86 0 90 83 17 78 4 16 1 16 0 14 0 71 -41 38 -44 11 0 3 -1 4 1 4 rrcurveto
            7 34 51 72 13 16 rrcurveto
            -65 43 rlineto
            -54 -36 -163 -142 -35 -164 rrcurveto
            return
          </CharString>
          <CharString index="246">
            2 10 1 11 0 11 0 63 -38 66 -98 0 -86 0 -90 -83 -17 -78 -4 -16 -1 -16 0 -14 0 -71 42 -38 44 -11 0 -3 0 -4 -1 -4 rrcurveto
            -7 -34 -51 -72 -13 -16 rrcurveto
            65 -43 rlineto
            54 36 163 142 35 164 rrcurveto
            return
          </CharString>
          <CharString index="247">
            2 10 1 11 0 11 0 63 -38 66 -98 0 -86 0 -90 -83 -17 -78 -4 -16 -1 -16 0 -14 0 -71 41 -38 44 -11 0 -3 1 -4 -1 -4 rrcurveto
            -7 -34 -51 -72 -13 -16 rrcurveto
            65 -43 rlineto
            54 36 163 142 35 164 rrcurveto
            return
          </CharString>
          <CharString index="248">
            3 16 7 16 8 15 25 41 30 21 36 0 12 0 11 -3 10 -5 24 -14 12 -22 0 -31 0 -10 -1 -12 -3 -12 -2 -10 -3 -9 -3 -8 rrcurveto
            -18 -49 -33 -24 -48 0 -8 0 -7 1 -7 1 -33 9 -16 23 0 35 rrcurveto
            0 10 2 10 2 11 rrcurveto
            return
          </CharString>
          <CharString index="249">
            -5 -25 -3 -23 0 -22 0 -41 9 -39 19 -34 43 -82 72 -41 103 0 67 0 65 20 64 41 94 60 56 82 22 104 5 25 3 23 0 23 rrcurveto
            0 43 -10 40 -19 37 -45 82 -70 41 -100 0 -67 0 -65 -21 -64 -41 -94 -63 -58 -84 -22 -105 rrcurveto
            return
          </CharString>
          <CharString index="250">
            3 16 7 16 8 15 25 41 30 21 36 0 12 0 10 -3 10 -5 rrcurveto
            return
          </CharString>
          <CharString index="251">
            24 -14 12 -24 0 -31 0 -10 -1 -10 -2 -12 -2 -10 -3 -8 -3 -8 -18 -49 -34 -25 -48 0 -8 0 -7 1 -7 1 -32 9 -16 23 0 34 rrcurveto
            0 10 2 10 2 12 rrcurveto
            return
          </CharString>
          <CharString index="252">
            -5 -23 -3 -22 0 -21 0 -42 10 -40 19 -36 43 -82 72 -41 102 0 68 0 65 20 62 41 95 60 59 82 22 104 5 25 3 23 0 23 rrcurveto
            0 43 -10 40 -19 37 -45 82 -72 41 -101 0 -68 0 -66 -21 -62 -41 -94 -63 -58 -84 -22 -105 rrcurveto
            return
          </CharString>
          <CharString index="253">
            922 1220 -201 2 -931 -1220 rlineto
            return
          </CharString>
          <CharString index="254">
            3 16 7 16 8 15 25 41 30 21 36 0 12 0 11 -3 10 -5 24 -14 12 -22 0 -31 0 -10 -1 -12 -3 -12 -2 -10 -3 -9 -3 -8 rrcurveto
            -18 -49 -33 -24 -48 0 -8 0 -7 1 -7 1 -33 9 -16 23 0 35 0 10 2 10 2 11 rrcurveto
            return
          </CharString>
          <CharString index="255">
            -5 -25 -3 -23 0 -22 0 -41 9 -39 19 -34 43 -82 73 -41 102 0 67 0 65 20 64 41 94 60 57 82 22 104 5 24 2 23 0 22 rrcurveto
            0 44 -10 41 -19 37 -45 82 -70 41 -100 0 -67 0 -65 -21 -64 -41 -94 -63 -58 -84 -22 -105 rrcurveto
            return
          </CharString>
          <CharString index="256">
            242 951 rlineto
            1 3 0 4 0 3 0 19 -12 18 -24 16 -28 19 -30 10 -29 0 -29 0 -32 -10 -36 -19 -36 -19 -21 -21 -5 -25 rrcurveto
            -160 -949 rlineto
            -3 -15 8 -14 21 -12 21 -12 21 -6 19 0 18 0 22 6 27 12 rrcurveto
            27 12 15 14 3 15 rrcurveto
            return
          </CharString>
          <CharString index="257">
            -3 -12 -1 -11 0 -11 0 -31 9 -26 19 -24 25 -32 35 -17 45 0 45 0 42 16 39 32 39 32 24 39 10 45 3 12 1 13 0 11 rrcurveto
            0 30 -9 27 -18 23 -25 32 -36 16 -45 0 -45 0 -42 -16 -39 -32 -39 -32 -24 -39 -10 -45 rrcurveto
            return
          </CharString>
          <CharString index="258">
            1 3 0 4 0 3 0 19 -12 18 -24 16 -28 19 -30 10 -29 0 -29 0 -32 -10 -36 -19 -36 -19 -21 -21 -5 -25 rrcurveto
            -160 -949 rlineto
            -3 -15 8 -14 21 -12 21 -12 21 -6 19 0 18 0 22 6 27 12 27 12 15 14 3 15 rrcurveto
            return
          </CharString>
          <CharString index="259">
            -3 -12 -1 -12 0 -11 0 -30 9 -27 18 -23 25 -32 36 -17 45 0 45 0 42 16 39 32 39 32 24 39 10 45 3 12 1 13 0 11 rrcurveto
            0 30 -9 27 -18 23 -25 32 -36 16 -45 0 -45 0 -42 -16 -39 -32 rrcurveto
            -39 -32 -24 -39 -10 -45 rrcurveto
            return
          </CharString>
          <CharString index="260">
            5 25 11 23 18 22 18 22 20 20 24 18 24 18 26 18 28 19 28 19 30 21 29 23 29 23 28 26 26 28 26 28 24 35 22 42 rrcurveto
            22 42 15 46 11 50 rrcurveto
            return
          </CharString>
          <CharString index="261">
            6 28 3 27 0 26 0 21 -1 20 -4 20 -9 44 -16 37 -24 31 -24 31 -31 27 -36 22 -36 22 -40 16 -45 11 -45 11 -47 5 -49 0 rrcurveto
            -127 0 -111 -36 -97 -73 -97 -73 -66 -92 -37 -113 rrcurveto
            259 -41 rlineto
            16 53 30 43 41 35 41 35 47 18 53 0 34 0 31 -5 26 -10 26 -10 20 -16 16 -25 10 -16 6 -19 0 -22 0 -11 -1 -12 -3 -13 rrcurveto
            -7 -32 -12 -30 -18 -27 -18 -27 -22 -24 -23 -20 -23 -20 -26 -21 -28 -19 -28 -19 -28 -18 -27 -19 -27 -19 -27 -20 -23 -21 -23 -21 -21 -24 -18 -28 rrcurveto
            -18 -28 -14 -30 -7 -33 rrcurveto
            -41 -195 268 0 rlineto
            return
          </CharString>
          <CharString index="262">
            -3 -12 -1 -13 0 -11 0 -30 9 -27 18 -23 25 -32 36 -16 45 0 45 0 42 16 39 32 39 32 24 39 10 45 3 12 1 13 0 11 rrcurveto
            0 30 -10 27 -18 23 -25 32 -35 16 -45 0 -45 0 -43 -16 -39 -32 rrcurveto
            -39 -32 -23 -39 -10 -45 rrcurveto
            return
          </CharString>
          <CharString index="263">
            -51 -241 rlineto
            10 7 17 11 22 15 22 15 17 12 11 7 11 7 17 6 18 7 18 7 19 3 18 0 18 0 19 -8 20 -16 20 -16 18 -17 16 -19 rrcurveto
            16 -19 20 -17 25 -16 rrcurveto
            return
          </CharString>
          <CharString index="264">
            25 -16 24 -8 26 0 19 0 20 4 22 8 22 8 17 8 13 8 13 8 16 10 20 14 20 14 12 9 4 3 rrcurveto
            55 260 rlineto
            -29 -23 -20 -16 -13 -10 -13 -10 -22 -13 -29 -14 -29 -14 -25 -7 -21 0 -19 0 -18 5 -18 10 -18 10 -15 13 -14 15 -21 22 -1 2 -21 22 rrcurveto
            -14 15 -15 13 -17 10 rrcurveto
            return
          </CharString>
          <CharString index="265">
            -17 10 -17 5 -18 0 -15 0 -16 -3 -15 -4 -15 -4 -15 -7 -16 -9 -16 -9 -13 -7 -10 -7 -10 -7 -15 -9 -17 -13 rrcurveto
            -17 -13 -10 -8 -5 -3 rrcurveto
            return
          </CharString>
          <CharString index="266">
            -3 -12 -1 -13 0 -11 0 -30 9 -27 18 -23 25 -32 36 -16 45 0 45 0 42 16 39 32 39 32 24 39 10 45 3 12 1 13 0 11 rrcurveto
            0 30 -9 27 -18 23 -25 32 -36 16 -45 0 -45 0 -42 -16 -39 -32 rrcurveto
            -39 -32 -24 -39 -10 -45 rrcurveto
            return
          </CharString>
          <CharString index="267">
            -3 -12 -1 -13 0 -11 0 -30 10 -27 18 -23 25 -32 36 -16 45 0 45 0 42 16 39 32 39 32 23 39 10 45 3 12 1 13 0 11 rrcurveto
            0 30 -9 27 -18 23 -25 32 -36 16 -45 0 -45 0 -42 -16 -39 -32 -39 -32 -24 -39 -10 -45 rrcurveto
            return
          </CharString>
          <CharString index="268">
            -63 -69 -45 -95 -25 -119 -12 -55 -5 -51 0 -46 0 -21 1 -19 2 -19 7 -61 21 -49 34 -36 34 -36 45 -19 57 0 rrcurveto
            1 hlineto
            57 0 53 19 50 36 50 36 41 48 33 62 33 62 26 70 17 79 11 53 5 47 0 43 0 55 -8 46 -18 39 -31 69 -59 35 -87 0 rrcurveto
            -87 0 -75 -35 -63 -69 rrcurveto
            return
          </CharString>
          <CharString index="269">
            18 87 21 59 22 32 22 32 29 16 38 0 37 0 22 -16 6 -31 2 -8 0 -10 0 -12 0 -34 -6 -49 -14 -66 -10 -45 -10 -38 -10 -31 rrcurveto
            -10 -31 -11 -26 -12 -21 -12 -21 -14 -15 -14 -9 -14 -9 -17 -5 -19 0 -15 0 -11 3 -10 6 -10 6 -8 9 -4 12 -4 12 -2 17 -1 21 rrcurveto
            7 vlineto
            0 19 2 22 3 23 4 26 4 32 8 36 rrcurveto
            return
          </CharString>
          <CharString index="270">
            92 435 -175 0 -390 -466 -27 -128 292 0 -37 -174 174 0 37 174 70 0 34 159 rlineto
            return
          </CharString>
          <CharString index="271">
            -36 -171 -110 0 rlineto
            return
          </CharString>
          <CharString index="272">
            18 16 25 8 31 0 30 0 23 -11 15 -21 10 -14 4 -17 0 -19 0 -9 -1 -9 -2 -10 -6 -30 -15 -24 -23 -19 -23 -19 -26 -10 -31 0 rrcurveto
            -12 0 -10 2 -10 4 -10 4 -8 5 -6 6 -6 6 -6 8 -4 8 -4 8 -2 6 -2 7 -2 7 0 6 0 5 rrcurveto
            0 19 -179 -30 0 -20 rlineto
            0 -18 3 -18 5 -18 5 -18 8 -19 11 -19 11 -19 14 -17 17 -15 17 -15 21 -12 27 -10 27 -10 29 -4 32 0 51 0 50 11 45 21 rrcurveto
            45 21 40 31 33 41 33 41 22 45 11 52 4 21 3 20 0 19 0 28 -5 26 -9 25 -15 41 -27 31 -37 21 -37 21 -44 11 -51 0 rrcurveto
            -19 0 -17 -1 -13 -2 rrcurveto
            40 97 238 0 34 160 -379 0 -147 -386 145 -55 rlineto
            return
          </CharString>
          <CharString index="273">
            -581 0 -35 -167 289 0 -431 -601 207 0 rlineto
            return
          </CharString>
          <CharString index="274">
            -34 -160 487 0 34 160 rlineto
            return
          </CharString>
          <CharString index="275">
            -34 -160 440 0 34 160 rlineto
            return
          </CharString>
          <CharString index="276">
            25 117 -258 0 -228 -1074 258 0 129 605 rlineto
            14 66 27 56 40 48 rrcurveto
            return
          </CharString>
          <CharString index="277">
            4 -20 rlineto
            7 -43 13 -36 23 -29 23 -29 27 -21 31 -12 31 -12 36 -7 40 0 38 0 37 7 37 13 37 13 31 18 29 23 29 23 24 26 20 30 rrcurveto
            20 30 13 32 7 33 4 21 3 19 0 19 0 6 -1 6 0 5 -2 23 -7 20 -9 17 -9 17 -10 13 -8 9 -8 9 -6 7 -7 6 rrcurveto
            48 36 28 46 12 55 4 19 2 17 0 17 0 16 -2 16 -4 14 -8 29 -12 23 -20 17 -20 17 -23 12 -26 8 -26 8 -29 3 -32 0 rrcurveto
            -112 0 -86 -50 -61 -103 rrcurveto
            -13 -21 155 -43 9 16 rlineto
            8 12 10 10 14 9 14 9 15 3 15 0 22 0 16 -7 11 -13 11 -13 4 -20 -6 -26 -4 -18 -11 -17 -18 -16 -18 -16 -19 -8 -19 0 rrcurveto
            -90 0 -31 -146 102 0 rlineto
            25 0 21 -10 15 -18 11 -14 6 -15 0 -17 0 -6 -1 -6 -1 -6 -5 -25 -12 -20 -22 -17 -22 -17 -24 -8 -29 0 -21 0 -19 6 -16 12 rrcurveto
            -16 12 -12 20 -5 27 rrcurveto
            -3 16 rlineto
            return
          </CharString>
          <CharString index="278">
            -177 80 880 600 169 -77 rlineto
            return
          </CharString>
          <CharString index="279">
            10 19 rlineto
            14 26 15 20 15 11 15 11 20 6 22 0 23 0 17 -7 11 -14 7 -9 3 -12 0 -15 0 -8 -1 -10 -2 -10 -3 -15 -6 -16 -9 -14 rrcurveto
            -9 -14 -13 -13 -12 -11 -12 -11 -15 -13 -19 -13 -19 -13 -19 -12 -18 -11 -18 -11 -21 -13 -23 -16 -23 -16 -21 -15 -16 -13 -27 -22 -22 -22 -20 -22 rrcurveto
            -20 -22 -15 -23 -13 -24 -13 -24 -9 -23 -8 -22 -8 -22 -7 -26 -6 -29 rrcurveto
            -4 -20 524 0 34 160 -315 0 rlineto
            6 6 11 10 15 13 15 13 26 18 38 25 rrcurveto
            81 53 rlineto
            16 10 19 13 19 16 39 32 30 32 19 30 19 30 14 37 9 43 5 24 3 23 0 21 0 10 -1 10 -1 10 -4 29 -9 24 -13 18 rrcurveto
            -13 18 -17 15 -19 12 -19 12 -21 8 -21 4 -21 4 -21 3 -23 0 -55 0 -55 -18 -56 -36 -56 -36 -39 -46 -22 -53 rrcurveto
            -8 -17 rlineto
            return
          </CharString>
          <CharString index="280">
            18 16 25 7 31 0 30 0 22 -10 15 -21 10 -14 5 -16 0 -19 0 -9 -1 -9 -2 -10 -6 -30 -15 -25 -23 -19 -23 -19 -26 -10 -31 0 rrcurveto
            -12 0 -11 2 -10 4 -10 4 -8 5 -6 6 -6 6 -5 8 -4 8 -4 8 -3 6 -2 7 -2 7 0 6 0 5 rrcurveto
            0 19 -178 -30 0 -20 rlineto
            0 -18 2 -18 5 -18 5 -18 8 -19 11 -19 11 -19 14 -17 17 -15 17 -15 22 -12 27 -10 27 -10 29 -4 32 0 51 0 49 11 45 21 rrcurveto
            45 21 40 31 33 41 33 41 23 46 11 52 4 21 2 19 0 19 0 28 -5 26 -9 25 -15 41 -26 31 -37 21 -37 21 -45 10 -51 0 rrcurveto
            -19 0 -16 0 -13 -2 rrcurveto
            40 98 237 0 34 160 -378 0 -148 -387 146 -55 rlineto
            return
          </CharString>
          <CharString index="281">
            18 16 25 7 31 0 30 0 22 -10 15 -21 10 -14 5 -16 0 -19 0 -9 -1 -9 -2 -10 -6 -30 -15 -25 -23 -19 -23 -19 -26 -10 -31 0 rrcurveto
            -12 0 -11 2 -10 4 -10 4 -8 5 -6 6 -6 6 -5 8 -4 8 -4 8 -3 6 -2 7 rrcurveto
            return
          </CharString>
          <CharString index="282">
            206 277 -189 0 -201 -277 rlineto
            -3 -5 -10 -13 -18 -24 -18 -24 -15 -20 -10 -16 -10 -16 -13 -22 -13 -29 -13 -29 -10 -28 -6 -29 -4 -17 -2 -17 0 -16 0 -25 5 -24 8 -23 rrcurveto
            14 -38 23 -30 35 -24 35 -24 42 -12 49 0 37 0 37 8 36 14 36 14 32 19 27 23 27 23 24 27 19 30 19 30 12 29 7 31 rrcurveto
            5 22 2 21 0 20 0 47 -12 41 -27 34 -36 47 -54 23 -73 2 rrcurveto
            return
          </CharString>
          <CharString index="283">
            -39 41 -56 20 -74 0 -75 0 -64 -20 -55 -40 -55 -40 -34 -52 -14 -65 -5 -22 -1 -21 4 -20 4 -19 6 -17 9 -13 9 -13 9 -10 8 -8 rrcurveto
            -23 -13 -22 -19 -24 -25 -39 -41 -24 -44 -10 -47 -4 -21 -3 -20 0 -19 0 -48 14 -40 30 -33 41 -46 63 -23 85 0 39 0 37 6 36 10 rrcurveto
            36 10 34 15 30 21 30 21 27 27 22 32 22 32 14 36 9 40 3 16 2 15 0 15 0 31 -7 29 -14 26 -14 25 -14 19 -18 13 rrcurveto
            3 2 rlineto
            12 8 10 8 10 9 rrcurveto
            22 22 rlineto
            5 5 6 8 6 9 6 9 5 10 6 13 6 13 3 13 3 14 4 16 2 16 0 15 0 42 -15 37 -29 30 rrcurveto
            return
          </CharString>
          <CharString index="284">
            4 20 9 16 15 12 15 12 21 7 27 0 27 0 19 -7 10 -12 10 -12 3 -16 -4 -20 -5 -23 -10 -16 -15 -11 -15 -11 -22 -5 -25 0 rrcurveto
            -26 0 -19 4 -11 11 -11 11 -2 17 5 23 rrcurveto
            return
          </CharString>
          <CharString index="285">
            -33 0 -24 9 -15 19 -11 14 -5 15 0 19 0 7 1 9 2 8 7 31 14 24 22 19 22 19 29 9 34 0 29 0 23 -10 17 -19 rrcurveto
            13 -14 6 -17 0 -20 0 -7 0 -7 -2 -8 -6 -30 -16 -23 -23 -19 -23 -19 -29 -9 -32 0 rrcurveto
            return
          </CharString>
          <CharString index="286">
            -39 41 -56 20 -74 0 -75 0 -64 -20 -55 -40 -55 -40 -34 -52 -14 -65 -5 -22 -1 -21 4 -20 4 -19 6 -17 9 -13 9 -13 9 -10 8 -8 rrcurveto
            -23 -13 -22 -19 -24 -25 -39 -41 -24 -44 -10 -47 rrcurveto
            return
          </CharString>
          <CharString index="287">
            -4 -21 -3 -20 0 -19 0 -48 14 -40 30 -33 41 -46 63 -23 85 0 39 0 37 6 36 10 36 10 34 15 30 21 30 21 27 27 22 32 rrcurveto
            22 32 14 36 9 40 3 16 2 15 0 15 0 31 -7 29 -14 26 -14 25 -14 19 -18 13 rrcurveto
            3 2 rlineto
            12 8 10 8 10 9 rrcurveto
            22 22 rlineto
            5 5 6 8 6 9 6 9 5 10 6 13 6 13 3 13 3 14 4 16 2 16 0 15 0 42 -15 37 -29 30 rrcurveto
            return
          </CharString>
          <CharString index="288">
            -522 -1045 -72 1045 -290 0 119 -1456 316 0 727 1456 rlineto
            return
          </CharString>
          <CharString index="289">
            -33 -153 -57 -124 -82 -94 -82 -94 -89 -47 -97 0 rrcurveto
            -199 0 208 977 199 0 rlineto
            96 0 71 -43 43 -88 26 -53 13 -61 0 -70 0 -46 -6 -50 -11 -54 rrcurveto
            return
          </CharString>
          <CharString index="290">
            14 64 6 61 0 58 0 60 -7 57 -14 54 -27 107 -54 85 -81 63 -81 63 -100 32 -121 0 rrcurveto
            -467 0 -309 -1456 467 0 rlineto
            119 0 114 33 108 65 108 65 91 91 75 114 75 114 54 128 30 142 rrcurveto
            return
          </CharString>
          <CharString index="291">
            -1059 0 179 327 -535 -441 347 -441 -39 327 1059 0 -27 -128 164 0 102 484 -164 0 rlineto
            return
          </CharString>
          <CharString index="292">
            -735 -1519 -26 342 -555 1 -51 -240 339 0 49 -514 317 0 940 1930 rlineto
            return
          </CharString>
          <CharString index="293">
            -9 -43 -5 -41 0 -40 0 -23 2 -24 3 -22 8 -60 17 -51 26 -42 26 -42 31 -36 40 -30 40 -30 43 -23 46 -14 46 -14 48 -7 50 0 rrcurveto
            89 0 88 22 90 45 90 45 78 64 69 84 69 84 46 94 22 104 9 44 5 43 0 41 0 32 -3 32 -6 31 -13 70 -24 58 -38 49 rrcurveto
            -38 49 -48 38 -58 28 -58 28 -64 14 -71 0 -48 0 -49 -6 -51 -14 -51 -14 -53 -22 -52 -30 -52 -30 -49 -36 -45 -42 -45 -42 -41 -53 -35 -63 rrcurveto
            -35 -63 -24 -68 -16 -74 rrcurveto
            return
          </CharString>
          <CharString index="294">
            -49 27 -60 14 -68 0 -131 0 -118 -51 -104 -101 -104 -101 -70 -138 -37 -173 -14 -67 -8 -61 0 -56 0 -91 19 -76 38 -63 61 -101 87 -51 113 0 rrcurveto
            81 0 75 15 67 30 rrcurveto
            return
          </CharString>
          <CharString index="295">
            -3 -13 258 0 114 534 114 539 rlineto
            return
          </CharString>
          <CharString index="296">
            -207 hlineto
            7 -38 8 -35 9 -31 9 -31 11 -28 13 -23 28 -48 37 -37 48 -25 48 -25 52 -13 57 0 63 0 61 16 60 31 60 31 52 40 46 46 rrcurveto
            23 23 22 27 22 31 22 31 19 29 17 27 rrcurveto
            -195 0 -47 -65 0 2 rlineto
            -29 -34 -31 -25 -30 -15 -30 -15 -32 -7 -36 0 -30 0 -27 8 -25 16 -25 16 -20 26 -12 36 -8 10 -5 19 -5 30 rrcurveto
            return
          </CharString>
          <CharString index="297">
            -207 hlineto
            7 -38 8 -35 9 -31 9 -31 11 -28 13 -23 28 -48 37 -37 48 -25 48 -25 51 -13 57 0 63 0 62 16 60 31 60 31 52 40 46 46 rrcurveto
            23 23 22 27 22 31 22 31 18 29 17 27 rrcurveto
            -195 0 -46 -65 1 2 rlineto
            -29 -34 -31 -25 -30 -15 -30 -15 -34 -8 -36 0 -30 0 -27 9 -25 16 -25 16 -18 26 -12 36 rrcurveto
            -8 10 -6 19 -5 30 rrcurveto
            return
          </CharString>
          <CharString index="298">
            129 605 rlineto
            14 66 27 56 40 48 rrcurveto
            return
          </CharString>
          <CharString index="299">
            51 63 54 31 56 0 30 -5 20 -28 7 -50 2 -14 1 -16 0 -18 0 -45 -6 -56 -15 -69 rrcurveto
            -121 -568 258 0 122 572 rlineto
            10 46 7 43 7 40 7 40 3 36 0 33 0 10 1 10 0 9 0 176 -75 88 -149 0 -141 0 -117 -52 -96 -102 rrcurveto
            -3 8 rlineto
            -13 48 -27 37 -41 25 -39 24 -56 12 -71 0 rrcurveto
            -9 hlineto
            -66 0 -70 -49 -76 -97 rrcurveto
            return
          </CharString>
          <CharString index="300">
            51 63 55 31 56 0 30 -5 20 -28 7 -50 2 -13 1 -15 0 -17 0 -45 -7 -58 -15 -70 rrcurveto
            -121 -568 rlineto
            return
          </CharString>
          <CharString index="301">
            -3 -12 -1 -13 0 -11 0 -16 3 -15 5 -13 19 -56 42 -28 64 0 rrcurveto
            return
          </CharString>
          <CharString index="302">
            30 0 29 7 26 14 63 31 37 48 14 64 3 12 1 13 0 11 0 16 -3 15 -5 13 -19 56 -42 28 -64 0 rrcurveto
            return
          </CharString>
          <CharString index="303">
            5 25 11 23 17 23 38 52 49 26 57 0 22 0 20 -5 20 -11 36 -21 19 -32 0 -42 0 -12 -2 -12 -3 -14 -5 -23 -10 -24 -16 -25 rrcurveto
            -38 -52 -50 -26 -57 0 -23 0 -20 5 -20 11 -36 21 -18 32 0 42 0 12 1 13 3 14 rrcurveto
            return
          </CharString>
          <CharString index="304">
            -5 -23 -2 -23 0 -22 0 -44 11 -41 21 -38 47 -81 75 -40 104 0 72 0 69 22 65 42 96 62 60 82 22 104 5 23 3 22 0 22 rrcurveto
            0 44 -10 41 -22 38 -47 82 -76 41 -104 0 -74 0 -68 -21 -64 -42 -96 -63 -60 -83 -22 -104 rrcurveto
            return
          </CharString>
          <CharString index="305">
            5 25 12 23 17 23 38 52 49 26 57 0 22 0 19 -5 20 -11 36 -21 19 -32 0 -42 0 -12 -2 -12 -3 -14 -5 -23 -10 -24 -16 -25 rrcurveto
            -38 -52 -49 -26 -57 0 -23 0 -21 5 -20 11 -36 21 -18 32 0 42 0 12 1 13 3 14 rrcurveto
            return
          </CharString>
          <CharString index="306">
            -5 -23 -2 -22 0 -21 0 -45 11 -42 22 -38 47 -81 75 -40 104 0 72 0 68 22 65 42 96 62 61 82 22 104 5 23 2 22 0 21 rrcurveto
            0 45 -10 41 -22 38 -47 82 -75 41 -104 0 -74 0 -69 -21 -64 -42 -96 -63 -60 -83 -22 -104 rrcurveto
            return
          </CharString>
          <CharString index="307">
            5 25 11 23 17 23 38 52 49 26 57 0 22 0 20 -5 20 -11 36 -21 19 -32 0 -42 0 -12 -2 -12 -3 -14 -5 -23 -11 -24 -16 -25 rrcurveto
            -38 -52 -49 -26 -57 0 -23 0 -20 5 -20 11 -36 21 -18 32 0 42 rrcurveto
            0 12 1 13 3 14 rrcurveto
            return
          </CharString>
          <CharString index="308">
            -5 -23 -2 -23 0 -22 0 -44 11 -41 21 -38 47 -81 75 -40 104 0 72 0 69 22 65 42 96 62 60 82 22 104 5 23 2 22 0 21 rrcurveto
            0 45 -10 41 -22 38 -47 82 -75 41 -104 0 -74 0 -68 -21 -64 -42 -96 -63 -60 -83 -22 -104 rrcurveto
            return
          </CharString>
          <CharString index="309">
            12 58 21 53 30 47 30 47 35 38 38 28 38 28 40 23 41 15 41 15 40 7 39 0 34 0 34 -7 33 -15 33 -15 30 -21 28 -28 rrcurveto
            28 -28 19 -38 12 -48 6 -23 3 -23 0 -25 0 -28 -3 -29 -7 -31 -11 -53 -21 -48 -29 -44 -29 -44 -35 -38 -38 -28 -38 -28 -39 -22 -41 -16 rrcurveto
            -41 -16 -39 -7 -38 0 -38 0 -37 7 -35 14 -35 14 -30 21 -27 27 -27 27 -19 36 -10 45 -5 22 -3 23 0 25 0 26 4 28 6 29 rrcurveto
            return
          </CharString>
        <CharString name=".notdef">
          290 -29 242 132 161 469 120 154 240 hstem
          235 284 191 165 352 285 vstem
          1207 754 rmoveto
          -107 callsubr
          -947 hmoveto
          -106 callsubr
          638 -133 rmoveto
          3 12 6 11 8 11 8 11 11 10 12 9 12 9 12 9 14 9 14 9 15 10 14 11 14 11 14 13 13 14 13 14 12 17 10 21 rrcurveto
          10 21 9 22 5 24 3 13 1 13 0 12 0 11 -1 11 -2 10 -5 21 -7 19 -12 15 -12 15 -14 13 -18 11 -18 11 -20 8 -22 5 rrcurveto
          -22 5 -22 3 -24 0 -62 0 -56 -18 -48 -36 -48 -36 -31 -45 -18 -55 rrcurveto
          127 -20 rlineto
          8 26 14 21 21 17 21 17 22 9 26 0 17 0 14 -2 13 -5 13 -5 11 -8 7 -12 7 -12 3 -16 -4 -18 -3 -16 -7 -14 -9 -13 rrcurveto
          -9 -13 -11 -12 -11 -10 -11 -10 -12 -10 -14 -9 -14 -9 -14 -10 -13 -9 -13 -9 -13 -10 -11 -10 -11 -10 -12 -12 -9 -14 -9 -14 -6 -15 -3 -16 rrcurveto
          -21 -95 131 0 rlineto
          -172 -132 rmoveto
          -1 -6 -1 -6 0 -6 0 -14 4 -13 9 -11 13 -16 17 -8 22 0 22 0 21 8 19 16 19 16 12 18 5 22 1 6 1 5 0 6 rrcurveto
          0 15 -5 13 -9 12 -13 16 -16 8 -22 0 -22 0 -22 -8 -19 -16 -19 -16 -11 -19 -5 -22 rrcurveto
          endchar
        </CharString>
        <CharString name=".null">
          -1119 endchar
        </CharString>
        <CharString name="A">
          302 21 -21 382 239 835 -20 hstem
          939 1124 rmoveto
          -100 callsubr
          505 835 rmoveto
          -99 callsubr
          endchar
        </CharString>
        <CharString name="AE">
          470 0 250 340 250 363 253 hstem
          946 596 rmoveto
          -127 -596 654 0 53 250 -389 0 72 340 389 0 54 250 -388 0 77 363 388 0 53 253 -887 0 -885 -1456 298 0 360 596 rlineto
          424 690 rmoveto
          -95 -447 -198 0 rlineto
          endchar
        </CharString>
        <CharString name="Aacute">
          302 21 -21 382 239 835 -20 hstem
          1051 1533 rmoveto
          -15 callsubr
          -112 -409 rmoveto
          -100 callsubr
          505 835 rmoveto
          -99 callsubr
          endchar
        </CharString>
        <CharString name="Abreve">
          302 21 -21 382 239 835 -20 80 236 hstem
          939 1124 rmoveto
          -100 callsubr
          505 835 rmoveto
          -99 callsubr
          -208 1768 rmoveto
          10 callsubr
          endchar
        </CharString>
        <CharString name="Acircumflex">
          173 21 -21 382 239 835 -20 hstem
          939 1124 rmoveto
          -100 callsubr
          505 835 rmoveto
          -99 callsubr
          59 1560 rmoveto
          -14 callsubr
          endchar
        </CharString>
        <CharString name="Adieresis">
          173 21 -21 382 239 835 -20 63 328 hstem
          653 335 136 335 vstem
          939 1124 rmoveto
          -100 callsubr
          505 835 rmoveto
          -99 callsubr
          -721 1663 rmoveto
          -27 callsubr
          471 hmoveto
          -27 callsubr
          endchar
        </CharString>
        <CharString name="Agrave">
          302 21 -21 382 239 835 -20 hstem
          1077 1533 rmoveto
          -16 callsubr
          124 -622 rmoveto
          -100 callsubr
          505 835 rmoveto
          -99 callsubr
          endchar
        </CharString>
        <CharString name="Alpha">
          302 21 -21 379 246 831 -20 hstem
          949 1048 rmoveto
          57 callsubr
          323 -246 rmoveto
          58 callsubr
          endchar
        </CharString>
        <CharString name="Alphatonos">
          302 21 -21 379 246 831 -20 hstem
          612 1192 rmoveto
          56 callsubr
          337 -144 rmoveto
          57 callsubr
          323 -246 rmoveto
          58 callsubr
          endchar
        </CharString>
        <CharString name="Amacron">
          302 21 -21 382 239 835 -20 250 127 hstem
          939 1124 rmoveto
          -100 callsubr
          505 835 rmoveto
          -99 callsubr
          -658 1813 rmoveto
          -26 callsubr
          endchar
        </CharString>
        <CharString name="Aogonek">
          302 21 -21 382 239 835 -20 hstem
          1014 230 vstem
          915 1124 rmoveto
          -100 callsubr
          505 835 rmoveto
          -99 callsubr
          -1 -217 rmoveto
          12 callsubr
          endchar
        </CharString>
        <CharString name="Aring">
          173 21 -21 382 239 835 -20 36 162 300 162 hstem
          761 177 296 176 vstem
          939 1124 rmoveto
          -100 callsubr
          505 835 rmoveto
          -99 callsubr
          -436 1784 rmoveto
          18 83 78 67 81 0 70 0 46 -50 0 -67 0 -11 -2 -11 -2 -11 -18 -84 -77 -66 -81 0 -70 0 -46 50 0 67 0 11 1 11 2 11 rrcurveto
          -173 hmoveto
          -25 callsubr
          endchar
        </CharString>
        <CharString name="Atilde">
          173 21 -21 382 239 835 -20 82 247 -95 247 hstemhm
          hintmask 11100000
          939 1124 rmoveto
          -100 callsubr
          505 835 rmoveto
          -99 callsubr
          -610 1814 rmoveto
          -52 -241 rlineto
          hintmask 11101000
          -13 callsubr
          hintmask 11110000
          -29 callsubr
          hintmask 11101000
          -104 0 -42 152 -98 0 -78 0 -73 -66 -53 -37 rrcurveto
          endchar
        </CharString>
        <CharString name="B">
          103 519 638 rmoveto
          227 hlineto
          188 56 -66 -84 hvcurveto
          0 -16 -2 -16 -4 -17 -22 -105 -78 -94 -223 0 rrcurveto
          -227 hlineto
          207 976 rmoveto
          168 hlineto
          173 51 -68 -69 hvcurveto
          0 -11 -2 -12 -2 -11 -17 -79 -73 -88 -201 0 rrcurveto
          -168 hlineto
          -146 578 rmoveto
          -309 -1456 525 0 rlineto
          446 0 133 285 33 154 4 18 2 21 0 21 0 113 -59 143 -164 42 123 36 111 83 33 154 6 26 4 29 0 30 rrcurveto
          140 -83 161 -369 vhcurveto
          endchar
        </CharString>
        <CharString name="Bdotaccent">
          107 0 240 398 240 338 240 137 328 hstemhm
          810 335 -155 268 -225 279 hintmask 11111000
          813 1757 rmoveto
          113 callsubr
          -294 -1119 rmoveto
          227 hlineto
          hintmask 11110100
          188 56 -66 -84 hvcurveto
          0 -16 -2 -16 -4 -17 -22 -105 -78 -94 -223 0 rrcurveto
          -227 hlineto
          207 976 rmoveto
          168 hlineto
          hintmask 11110010
          173 51 -68 -69 hvcurveto
          0 -11 -2 -12 -2 -11 -17 -79 -73 -88 -201 0 rrcurveto
          -168 hlineto
          -146 578 rmoveto
          -309 -1456 525 0 rlineto
          446 0 133 285 33 154 rrcurveto
          hintmask 11110100
          4 18 2 21 0 21 0 113 -59 143 -164 42 123 36 111 83 33 154 rrcurveto
          hintmask 11110010
          6 26 4 29 0 30 rrcurveto
          140 -83 161 -369 vhcurveto
          endchar
        </CharString>
        <CharString name="Beta">
          107 0 240 399 238 342 237 hstemhm
          999 264 -225 275 hintmask 11110000
          523 639 rmoveto
          66 callsubr
          208 979 rmoveto
          67 callsubr
          hintmask 11101000
          68 callsubr
          -145 579 rmoveto
          69 callsubr
          hintmask 11110000
          70 callsubr
          hintmask 11101000
          71 callsubr
          endchar
        </CharString>
        <CharString name="C">
          290 -29 240 1034 240 hstem
          231 283 694 297 vstem
          1208 969 rmoveto
          -98 callsubr
          endchar
        </CharString>
        <CharString name="Cacute">
          191 -29 240 1034 240 hstem
          231 283 694 297 vstem
          1208 969 rmoveto
          -98 callsubr
          -187 564 rmoveto
          -22 callsubr
          endchar
        </CharString>
        <CharString name="Ccaron">
          191 -29 240 1034 240 hstem
          231 283 694 297 vstem
          1208 969 rmoveto
          -98 callsubr
          318 937 rmoveto
          16 callsubr
          endchar
        </CharString>
        <CharString name="Ccedilla">
          101 -29 240 1034 240 hstem
          241 283 66 224 404 297 vstem
          1218 969 rmoveto
          -98 callsubr
          -789 -1316 rmoveto
          86 -127 rlineto
          98 46 173 75 24 111 3 15 1 14 0 14 0 66 -31 58 -37 40 0 0 -111 -55 -71 -35 20 -26 6 -23 0 -20 0 -15 -3 -13 -3 -14 rrcurveto
          -9 -41 -97 -45 -49 -25 rrcurveto
          endchar
        </CharString>
        <CharString name="Ccircumflex">
          191 -29 240 1034 240 hstem
          231 283 694 297 vstem
          1208 969 rmoveto
          -98 callsubr
          245 593 rmoveto
          -71 callsubr
          endchar
        </CharString>
        <CharString name="Cdotaccent">
          191 -29 240 1034 240 57 328 hstemhm
          231 283 404 336 -46 297 hintmask 11110100
          1208 969 rmoveto
          -98 callsubr
          -286 737 rmoveto
          hintmask 11111000
          -3 callsubr
          endchar
        </CharString>
        <CharString name="Chi">
          179 21 -21 1456 -20 hstem
          368 1456 rmoveto
          83 callsubr
          endchar
        </CharString>
        <CharString name="D">
          154 0 240 977 239 hstem
          1088 288 vstem
          1073 752 rmoveto
          -97 callsubr
          283 hmoveto
          -96 callsubr
          endchar
        </CharString>
        <CharString name="Dcaron">
          154 0 240 977 239 hstem
          1088 288 vstem
          1073 752 rmoveto
          -97 callsubr
          283 hmoveto
          -96 callsubr
          56 1154 rmoveto
          16 callsubr
          endchar
        </CharString>
        <CharString name="Dcroat">
          361 0 243 369 239 360 245 hstem
          1260 272 vstem
          390 612 rmoveto
          -130 -612 211 0 225 0 rlineto
          97 0 93 18 91 38 91 38 80 51 71 65 71 65 61 78 51 89 51 89 38 95 21 101 14 64 6 62 0 59 0 34 -2 33 -5 33 rrcurveto
          -13 89 -28 78 -42 65 -42 65 -60 52 -75 38 -75 38 -87 19 -98 0 rrcurveto
          -436 0 -128 -605 -125 0 -51 -239 rlineto
          393 hmoveto
          246 0 51 239 -247 0 76 360 169 0 rlineto
          114 0 85 -45 55 -90 36 -58 17 -70 0 -81 0 -44 -4 -46 -11 -50 -30 -143 -63 -116 -93 -90 -93 -90 -103 -45 -115 0 rrcurveto
          -168 hlineto
          endchar
        </CharString>
        <CharString name="Ddotaccent">
          154 0 240 977 239 137 328 hstemhm
          822 335 -69 288 hintmask 11110000
          825 1757 rmoveto
          113 callsubr
          248 -1005 rmoveto
          -66 -310 -194 -202 -240 0 rrcurveto
          -139 0 208 977 139 0 rlineto
          hintmask 11101000
          198 109 -134 -198 hvcurveto
          0 -42 -5 -44 -10 -47 rrcurveto
          283 hmoveto
          -96 callsubr
          endchar
        </CharString>
        <CharString name="Delta">
          429 0 240 1216 -20 hstem
          108 hmoveto
          73 callsubr
          -392 -1216 rmoveto
          436 792 106 -792 rlineto
          endchar
        </CharString>
        <CharString name="E">
          92 0 240 386 240 350 240 hstem
          424 1456 rmoveto
          -95 callsubr
          endchar
        </CharString>
        <CharString name="Eacute">
          92 0 240 386 240 350 240 hstem
          961 1533 rmoveto
          -11 callsubr
          -537 -77 rmoveto
          -95 callsubr
          endchar
        </CharString>
        <CharString name="Ebreve">
          92 0 240 386 240 350 240 60 236 hstem
          424 1456 rmoveto
          -95 callsubr
          -377 312 rmoveto
          10 callsubr
          endchar
        </CharString>
        <CharString name="Ecaron">
          92 0 240 386 240 350 240 hstem
          424 1456 rmoveto
          -95 callsubr
          36 450 rmoveto
          16 callsubr
          endchar
        </CharString>
        <CharString name="Ecircumflex">
          31 0 240 386 240 350 240 hstem
          424 1456 rmoveto
          -95 callsubr
          -30 81 rmoveto
          -14 callsubr
          endchar
        </CharString>
        <CharString name="Edieresis">
          31 0 240 386 240 350 240 63 328 hstem
          605 336 135 336 vstem
          424 1456 rmoveto
          -95 callsubr
          -797 227 rmoveto
          -10 callsubr
          471 hmoveto
          -10 callsubr
          endchar
        </CharString>
        <CharString name="Edotaccent">
          92 0 240 386 240 350 240 137 328 hstem
          870 335 vstem
          424 1456 rmoveto
          -95 callsubr
          -533 301 rmoveto
          -27 callsubr
          endchar
        </CharString>
        <CharString name="Egrave">
          92 0 240 386 240 350 240 hstem
          1032 1533 rmoveto
          -12 callsubr
          -346 -290 rmoveto
          -95 callsubr
          endchar
        </CharString>
        <CharString name="Emacron">
          92 0 240 386 240 350 240 230 127 hstem
          424 1456 rmoveto
          -95 callsubr
          -771 357 rmoveto
          -26 callsubr
          endchar
        </CharString>
        <CharString name="Eng">
          225 0 229 1019 235 -28 -20 20 -20 hstemhm
          1178 278 hintmask 11001000
          610 99 rmoveto
          27 -39 30 -27 35 -13 35 -13 45 -7 55 0 63 0 66 19 68 37 68 37 57 49 50 62 50 62 33 65 14 66 rrcurveto
          136 652 rlineto
          10 46 4 42 0 40 0 20 -1 20 -2 19 -7 57 -14 46 -24 35 -24 35 -29 26 -32 19 -32 19 -34 10 -37 0 -94 0 -93 -17 -90 -35 rrcurveto
          -47 -18 -97 -46 -147 -74 rrcurveto
          hintmask 10101000
          34 162 -258 0 -309 -1455 258 0 195 917 rlineto
          18 85 13 46 9 8 74 67 70 49 63 30 rrcurveto
          hintmask 11001000
          67 31 75 15 85 0 23 0 21 -3 16 -5 16 -5 12 -11 13 -14 13 -14 9 -19 5 -24 3 -15 1 -17 0 -20 0 -13 0 -15 -1 -15 rrcurveto
          -2 -39 -8 -47 -11 -54 rrcurveto
          -103 -486 3 0 -20 -92 rlineto
          -7 -32 -17 -27 -26 -21 -26 -21 -30 -10 -33 0 -17 0 -18 5 -15 8 -15 8 -10 10 -6 11 rrcurveto
          endchar
        </CharString>
        <CharString name="Eogonek">
          92 0 240 386 240 350 240 hstem
          717 230 vstem
          424 1456 rmoveto
          -95 callsubr
          -351 -1673 rmoveto
          12 callsubr
          endchar
        </CharString>
        <CharString name="Epsilon">
          92 0 240 387 239 351 239 hstem
          423 1456 rmoveto
          60 callsubr
          endchar
        </CharString>
        <CharString name="Epsilontonos">
          322 0 240 387 239 351 239 hstem
          488 1192 rmoveto
          59 callsubr
          179 264 rmoveto
          60 callsubr
          endchar
        </CharString>
        <CharString name="Eta">
          134 21 -21 625 239 592 -20 hstem
          424 1456 rmoveto
          61 callsubr
          endchar
        </CharString>
        <CharString name="Etatonos">
          342 21 -21 625 239 592 -20 hstem
          472 1192 rmoveto
          59 callsubr
          176 264 rmoveto
          61 callsubr
          endchar
        </CharString>
        <CharString name="Eth">
          361 0 243 369 239 360 245 hstem
          1260 272 vstem
          390 612 rmoveto
          -130 -612 211 0 225 0 rlineto
          394 0 335 320 87 407 14 64 6 63 0 59 rrcurveto
          314 -190 229 -337 vhcurveto
          -436 0 -128 -605 -125 0 -51 -239 rlineto
          393 hmoveto
          246 0 51 239 -247 0 76 360 169 0 rlineto
          188 119 -136 -210 hvcurveto
          0 -43 -5 -46 -10 -49 -61 -288 -209 -196 -227 0 rrcurveto
          -168 hlineto
          endchar
        </CharString>
        <CharString name="Euro">
          107 164 229 88 166 113 166 127 229 hstem
          399 258 vstem
          423 760 rmoveto
          -3 -4 -4 -12 -4 -19 -5 -23 -4 -26 -4 -29 rrcurveto
          -136 0 -36 -166 151 0 rlineto
          3 -88 36 -75 71 -62 71 -62 92 -30 111 0 51 0 45 4 41 8 41 8 37 14 33 17 33 17 26 18 23 17 23 17 24 23 28 27 rrcurveto
          -146 133 rlineto
          -27 -24 -25 -17 -23 -11 -23 -11 -20 -6 -16 -2 -16 -2 -25 -1 -35 0 -29 0 -34 8 -38 17 -38 17 -22 21 -5 25 rrcurveto
          262 0 36 166 -286 0 10 75 rlineto
          4 21 6 13 5 4 rrcurveto
          291 0 35 166 -269 0 rlineto
          12 34 30 30 46 25 46 25 41 13 37 0 84 0 63 -34 40 -69 rrcurveto
          184 133 rlineto
          -40 71 -45 51 -52 31 -52 31 -63 15 -71 0 -103 0 -98 -34 -95 -68 -95 -68 -76 -85 -54 -101 rrcurveto
          -150 0 -35 -166 rlineto
          endchar
        </CharString>
        <CharString name="F">
          72 424 1456 rmoveto
          -94 callsubr
          endchar
        </CharString>
        <CharString name="Fdotaccent">
          72 21 -21 627 239 351 239 137 328 hstem
          834 335 vstem
          837 1757 rmoveto
          -27 callsubr
          -413 -301 rmoveto
          -94 callsubr
          endchar
        </CharString>
        <CharString name="G">
          302 -27 238 356 240 450 240 hstem
          226 288 vstem
          707 -27 rmoveto
          -93 callsubr
          endchar
        </CharString>
        <CharString name="Gamma">
          72 21 -21 1217 239 hstem
          642 1217 rmoveto
          72 callsubr
          endchar
        </CharString>
        <CharString name="Gbreve">
          302 -27 238 356 240 450 240 19 236 hstem
          226 288 vstem
          707 -27 rmoveto
          -93 callsubr
          449 1795 rmoveto
          10 callsubr
          endchar
        </CharString>
        <CharString name="Gcircumflex">
          302 -27 238 356 240 450 240 hstem
          226 288 vstem
          707 -27 rmoveto
          -93 callsubr
          746 1589 rmoveto
          -71 callsubr
          endchar
        </CharString>
        <CharString name="Gcommaaccent">
          302 -27 238 356 240 450 240 hstem
          226 288 vstem
          707 -27 rmoveto
          -93 callsubr
          endchar
        </CharString>
        <CharString name="Gdotaccent">
          302 -27 238 356 240 450 240 96 328 hstem
          226 288 404 335 vstem
          707 -27 rmoveto
          -93 callsubr
          214 1784 rmoveto
          -27 callsubr
          endchar
        </CharString>
        <CharString name="H">
          134 21 -21 624 240 592 -20 hstem
          424 1456 rmoveto
          -92 callsubr
          endchar
        </CharString>
        <CharString name="Hbar">
          134 21 -21 624 240 210 240 142 -20 hstem
          424 1456 rmoveto
          -30 -142 -71 0 -51 -240 71 0 -228 -1074 268 0 133 624 485 0 -133 -624 270 0 228 1074 71 0 51 240 -71 0 30 142 rlineto
          -270 0 -30 -142 -485 0 30 142 rlineto
          404 -382 rmoveto
          -44 -210 -485 0 44 210 rlineto
          endchar
        </CharString>
        <CharString name="Hcircumflex">
          134 21 -21 624 240 592 -20 hstem
          424 1456 rmoveto
          -92 callsubr
          665 106 rmoveto
          -71 callsubr
          endchar
        </CharString>
        <CharString name="I">
          -564 21 -21 1456 -20 hstem
          143 577 vstem
          143 hmoveto
          -91 callsubr
          endchar
        </CharString>
        <CharString name="IJ">
          588 -35 254 -198 -21 1456 -20 hstemhm
          659 250 -227 247 hintmask 01100000
          143 hmoveto
          -91 callsubr
          231 -870 rmoveto
          hintmask 10110000
          -15 -72 -9 -67 0 -63 rrcurveto
          hintmask 10101000
          0 -61 7 -56 16 -51 16 -52 23 -45 32 -37 32 -37 43 -28 53 -21 53 -21 61 -10 70 0 111 0 100 27 89 53 89 53 73 73 57 92 rrcurveto
          57 92 42 108 26 123 rrcurveto
          184 870 -268 0 -184 -870 rlineto
          -10 -49 -14 -45 -17 -41 -17 -41 -20 -38 -25 -36 -25 -36 -32 -29 -37 -21 -37 -21 -42 -10 -46 0 -49 0 -41 10 -33 21 -33 21 -22 29 -12 36 rrcurveto
          hintmask 10110000
          24 callsubr
          endchar
        </CharString>
        <CharString name="Iacute">
          -452 21 -21 1456 -20 hstem
          587 1533 rmoveto
          -15 callsubr
          -444 -1533 rmoveto
          -91 callsubr
          endchar
        </CharString>
        <CharString name="Ibreve">
          -564 21 -21 1456 -20 80 236 hstem
          143 hmoveto
          -91 callsubr
          264 312 rmoveto
          10 callsubr
          endchar
        </CharString>
        <CharString name="Icircumflex">
          -452 21 -21 1456 -20 hstem
          143 hmoveto
          -91 callsubr
          549 81 rmoveto
          -14 callsubr
          endchar
        </CharString>
        <CharString name="Idieresis">
          -452 21 -21 1456 -20 98 328 hstem
          234 336 135 336 vstem
          143 hmoveto
          -91 callsubr
          -214 242 rmoveto
          -9 callsubr
          471 hmoveto
          -9 callsubr
          endchar
        </CharString>
        <CharString name="Idotaccent">
          -564 21 -21 1456 -20 157 328 hstem
          484 335 vstem
          143 hmoveto
          -91 callsubr
          35 301 rmoveto
          -27 callsubr
          endchar
        </CharString>
        <CharString name="Igrave">
          -452 21 -21 1456 -20 hstem
          143 613 vstem
          615 1533 rmoveto
          -16 callsubr
          -210 -1746 rmoveto
          -91 callsubr
          endchar
        </CharString>
        <CharString name="Imacron">
          -564 21 -21 1456 -20 250 127 hstem
          143 hmoveto
          -91 callsubr
          -173 357 rmoveto
          -26 callsubr
          endchar
        </CharString>
        <CharString name="Iogonek">
          -564 21 -21 1456 -20 hstem
          111 230 vstem
          143 hmoveto
          -91 callsubr
          -3 -1673 rmoveto
          12 callsubr
          endchar
        </CharString>
        <CharString name="Iota">
          -564 21 -21 1456 -20 hstem
          143 578 vstem
          143 hmoveto
          62 callsubr
          endchar
        </CharString>
        <CharString name="Iotadieresis">
          -564 21 -21 1456 -20 157 328 hstem
          248 335 136 335 vstem
          251 1757 rmoveto
          -27 callsubr
          471 hmoveto
          -27 callsubr
          -579 -1757 rmoveto
          62 callsubr
          endchar
        </CharString>
        <CharString name="Iotatonos">
          -407 21 -21 1456 -20 hstem
          301 620 vstem
          472 1192 rmoveto
          59 callsubr
          -129 -1192 rmoveto
          62 callsubr
          endchar
        </CharString>
        <CharString name="Itilde">
          -564 21 -21 1456 -20 78 247 -95 247 hstemhm
          hintmask 11000000
          143 hmoveto
          -91 callsubr
          -113 354 rmoveto
          19 callsubr
          hintmask 11010000
          20 callsubr
          hintmask 11100000
          21 callsubr
          hintmask 11010000
          22 callsubr
          endchar
        </CharString>
        <CharString name="J">
          124 -35 240 1251 -20 hstem
          203 272 vstem
          227 586 rmoveto
          -90 callsubr
          endchar
        </CharString>
        <CharString name="Jcircumflex">
          132 -35 240 1251 -20 hstem
          203 272 vstem
          227 586 rmoveto
          -90 callsubr
          1227 972 rmoveto
          -71 callsubr
          endchar
        </CharString>
        <CharString name="K">
          214 21 -21 1456 -20 hstem
          424 1456 rmoveto
          -89 callsubr
          endchar
        </CharString>
        <CharString name="Kappa">
          214 21 -21 1456 -20 hstem
          424 1456 rmoveto
          -89 callsubr
          endchar
        </CharString>
        <CharString name="Kcommaaccent">
          214 21 -21 1456 -20 hstem
          424 1456 rmoveto
          -89 callsubr
          endchar
        </CharString>
        <CharString name="L">
          51 0 240 1216 -20 hstem
          424 1456 rmoveto
          -88 callsubr
          endchar
        </CharString>
        <CharString name="Lacute">
          101 0 240 1216 -20 hstem
          424 1456 rmoveto
          -88 callsubr
          133 77 rmoveto
          -22 callsubr
          endchar
        </CharString>
        <CharString name="Lambda">
          183 21 -21 1456 -20 hstem
          954 hmoveto
          278 0 -109 1456 -316 0 -737 -1456 290 0 516 1045 rlineto
          endchar
        </CharString>
        <CharString name="Lcaron">
          101 0 240 1216 -20 hstem
          785 236 vstem
          424 1456 rmoveto
          -88 callsubr
          325 -71 rmoveto
          18 callsubr
          endchar
        </CharString>
        <CharString name="Lcommaaccent">
          101 0 240 1216 -20 hstem
          512 224 vstem
          424 1456 rmoveto
          -88 callsubr
          -341 -1694 rmoveto
          -21 callsubr
          endchar
        </CharString>
        <CharString name="Ldot">
          101 0 240 362 328 526 -20 hstem
          424 1456 rmoveto
          -88 callsubr
          71 -690 rmoveto
          -105 callsubr
          endchar
        </CharString>
        <CharString name="Lslash">
          101 0 240 1216 -20 hstem
          85 400 rmoveto
          136 100 -106 -500 1034 0 51 240 -766 0 105 493 304 223 51 234 -306 -225 104 491 -268 0 -154 -726 -136 -100 rlineto
          endchar
        </CharString>
        <CharString name="M">
          536 21 -21 1456 -20 hstem
          115 hmoveto
          -87 callsubr
          endchar
        </CharString>
        <CharString name="Mdotaccent">
          429 21 -21 1456 -20 157 328 hstem
          982 335 vstem
          985 1757 rmoveto
          -27 callsubr
          -870 -1757 rmoveto
          -87 callsubr
          endchar
        </CharString>
        <CharString name="Mu">
          429 21 -21 1456 -20 hstem
          66 hmoveto
          74 callsubr
          endchar
        </CharString>
        <CharString name="N">
          212 21 -21 1456 -20 hstem
          115 hmoveto
          -86 callsubr
          endchar
        </CharString>
        <CharString name="Nacute">
          224 21 -21 1456 -20 hstem
          115 hmoveto
          -86 callsubr
          492 77 rmoveto
          -2 callsubr
          endchar
        </CharString>
        <CharString name="Ncaron">
          224 21 -21 1456 -20 hstem
          115 hmoveto
          -86 callsubr
          1102 450 rmoveto
          16 callsubr
          endchar
        </CharString>
        <CharString name="Ncommaaccent">
          224 21 -21 1456 -20 hstem
          115 hmoveto
          -86 callsubr
          endchar
        </CharString>
        <CharString name="Ntilde">
          173 21 -21 1456 -20 61 247 -95 247 hstemhm
          hintmask 11000000
          115 hmoveto
          -86 callsubr
          278 337 rmoveto
          -51 -241 rlineto
          hintmask 11010000
          -13 callsubr
          hintmask 11100000
          -8 callsubr
          hintmask 11010000
          -7 callsubr
          endchar
        </CharString>
        <CharString name="Nu">
          224 21 -21 1456 -20 hstem
          119 hmoveto
          268 0 207 973 362 -973 265 0 309 1456 -269 0 -199 -940 -374 940 -260 0 rlineto
          endchar
        </CharString>
        <CharString name="O">
          290 -29 240 1034 240 hstem
          231 283 711 282 vstem
          1201 726 rmoveto
          -85 callsubr
          -947 hmoveto
          -84 callsubr
          endchar
        </CharString>
        <CharString name="OE">
          542 -29 242 -213 240 387 239 351 238 -206 240 hstemhm
          231 280 hintmask 01110100
          823 hmoveto
          762 0 51 240 -494 0 27 128 55 259 35 0 396 0 51 239 -396 0 -35 0 54 253 21 98 494 0 50 239 -762 -1 rlineto
          hintmask 10101100
          -51 22 -63 12 -77 0 -445 0 -186 -499 -50 -236 -15 -72 -14 -99 0 -103 0 -242 76 -267 312 0 77 0 67 13 61 23 rrcurveto
          237 1111 rmoveto
          -162 -759 rlineto
          -46 -87 -69 -59 -114 0 -126 0 -33 129 0 137 0 107 20 111 12 57 28 131 99 364 220 0 114 0 46 -53 11 -78 rrcurveto
          endchar
        </CharString>
        <CharString name="Oacute">
          228 -29 240 1034 240 hstem
          231 283 711 282 vstem
          1036 1533 rmoveto
          -12 callsubr
          427 -1020 rmoveto
          -85 callsubr
          -947 hmoveto
          -84 callsubr
          endchar
        </CharString>
        <CharString name="Obreve">
          290 -29 240 1034 240 31 236 hstem
          231 283 711 282 vstem
          1201 726 rmoveto
          -85 callsubr
          -947 hmoveto
          -84 callsubr
          915 1042 rmoveto
          10 callsubr
          endchar
        </CharString>
        <CharString name="Ocircumflex">
          228 -29 240 1034 240 hstem
          231 283 711 282 vstem
          1045 1533 rmoveto
          -11 callsubr
          156 -807 rmoveto
          -85 callsubr
          -947 hmoveto
          -84 callsubr
          endchar
        </CharString>
        <CharString name="Odieresis">
          228 -29 240 1034 240 89 328 hstemhm
          231 283 162 336 135 336 -258 282 hintmask 11111010
          1201 726 rmoveto
          -6 callsubr
          -947 hmoveto
          -15 -70 -8 -74 0 -73 0 -276 122 -262 356 0 rrcurveto
          hintmask 11111100
          450 0 252 418 72 337 rrcurveto
          hintmask 11111010
          15 72 9 76 0 74 0 277 -121 260 -355 0 -449 0 -256 -418 -72 -341 rrcurveto
          426 1012 rmoveto
          -4 callsubr
          471 hmoveto
          hintmask 11111100
          -4 callsubr
          endchar
        </CharString>
        <CharString name="Ograve">
          228 -29 240 1034 240 hstem
          231 283 711 282 vstem
          1201 726 rmoveto
          -85 callsubr
          -947 hmoveto
          -84 callsubr
          886 1202 rmoveto
          -70 callsubr
          endchar
        </CharString>
        <CharString name="Ohungarumlaut">
          228 -29 240 1034 240 20 -21 hstemhm
          231 283 711 282 hintmask 11011000
          1201 726 rmoveto
          -6 callsubr
          -947 hmoveto
          -84 callsubr
          1022 767 rmoveto
          303 286 rlineto
          9 9 5 11 3 13 1 7 1 6 0 7 0 12 -3 13 -4 13 -7 20 -8 15 -12 9 -9 9 -12 7 -16 6 -16 6 -14 4 -15 0 rrcurveto
          -20 0 -16 -6 -12 -13 rrcurveto
          -276 -312 rlineto
          -4 -4 -2 -5 -1 -5 -3 -13 3 -16 7 -18 7 -18 7 -13 9 -7 9 -7 11 -8 14 -7 rrcurveto
          hintmask 10111000
          14 -7 12 -3 11 0 10 0 8 3 6 6 rrcurveto
          -389 hmoveto
          31 callsubr
          endchar
        </CharString>
        <CharString name="Omacron">
          290 -29 240 1034 240 201 127 hstem
          231 283 711 282 vstem
          1201 726 rmoveto
          -85 callsubr
          -947 hmoveto
          -84 callsubr
          453 1087 rmoveto
          -26 callsubr
          endchar
        </CharString>
        <CharString name="Omega">
          290 0 229 1020 240 hstem
          235 284 708 285 vstem
          682 229 rmoveto
          64 callsubr
          endchar
        </CharString>
        <CharString name="Omegatonos">
          515 0 229 1020 240 hstem
          391 284 708 285 vstem
          464 1192 rmoveto
          56 callsubr
          374 -963 rmoveto
          64 callsubr
          endchar
        </CharString>
        <CharString name="Omicron">
          290 -29 242 1036 240 hstem
          235 284 708 285 vstem
          1207 754 rmoveto
          -107 callsubr
          -947 hmoveto
          -106 callsubr
          endchar
        </CharString>
        <CharString name="Omicrontonos">
          421 -29 242 1036 240 hstem
          346 284 708 285 vstem
          477 1192 rmoveto
          59 callsubr
          841 -438 rmoveto
          -107 callsubr
          -947 hmoveto
          -106 callsubr
          endchar
        </CharString>
        <CharString name="Oslash">
          306 -29 242 1036 240 hstem
          236 284 707 284 vstem
          544 -6 rmoveto
          48 -14 59 -9 58 0 475 0 244 492 56 264 17 79 10 81 0 79 0 144 -34 137 -90 101 rrcurveto
          91 145 -272 0 -13 -27 rlineto
          -39 16 -61 7 -56 0 -451 0 -253 -393 -78 -369 -12 -56 -7 -66 0 -68 0 -146 31 -158 77 -98 rrcurveto
          -102 -164 284 0 rlineto
          158 252 rmoveto
          528 844 rlineto
          10 -46 5 -44 0 -45 0 -65 -9 -66 -16 -74 -40 -190 -138 -324 -266 0 -42 0 -6 6 -26 4 rrcurveto
          -153 203 rmoveto
          -8 31 -3 43 0 45 0 69 8 73 8 40 50 234 125 288 275 0 37 0 5 -6 20 -2 rrcurveto
          endchar
        </CharString>
        <CharString name="Otilde">
          228 -29 240 1034 240 63 247 -95 247 hstemhm
          231 283 711 282 hintmask 11001100
          1201 726 rmoveto
          -6 callsubr
          -947 hmoveto
          -84 callsubr
          543 1118 rmoveto
          -51 -241 rlineto
          hintmask 11011100
          -5 callsubr
          hintmask 11101100
          82 0 50 -152 115 0 83 0 72 66 43 28 rrcurveto
          55 260 rlineto
          -52 -41 -78 -66 -70 0 rrcurveto
          hintmask 11011100
          -7 callsubr
          endchar
        </CharString>
        <CharString name="P">
          75 21 -21 584 240 392 240 hstem
          1052 280 vstem
          558 824 rmoveto
          83 392 71 0 rlineto
          211 129 -17 -126 hvcurveto
          0 -16 -2 -17 -4 -20 -37 -175 -142 -21 -238 0 rrcurveto
          -205 632 rmoveto
          -83 callsubr
          endchar
        </CharString>
        <CharString name="Pdotaccent">
          29 21 -21 584 240 392 240 137 328 hstemhm
          758 335 -41 280 hintmask 11111000
          761 1757 rmoveto
          113 callsubr
          -203 -933 rmoveto
          83 392 71 0 rlineto
          hintmask 11110100
          211 129 -17 -126 hvcurveto
          0 -16 -2 -17 -4 -20 -37 -175 -142 -21 -238 0 rrcurveto
          -205 632 rmoveto
          -83 callsubr
          endchar
        </CharString>
        <CharString name="Phi">
          439 21 -21 1056 229 169 -20 hstem
          256 223 942 222 vstem
          992 315 rmoveto
          80 callsubr
          225 1057 rmoveto
          81 callsubr
          -243 -2 rmoveto
          82 callsubr
          endchar
        </CharString>
        <CharString name="Pi">
          134 21 -21 1217 239 hstem
          424 1456 rmoveto
          75 callsubr
          endchar
        </CharString>
        <CharString name="Psi">
          -7 21 -21 1455 -20 24 -21 hstemhm
          271 256 -236 252 hintmask 11010000
          1346 1458 rmoveto
          -251 1 -106 -515 rlineto
          -29 -137 -50 -95 -68 -52 rrcurveto
          169 795 -269 0 -169 -797 rlineto
          -30 32 -16 49 0 65 rrcurveto
          hintmask 11001000
          0 38 5 45 11 50 0 2 2 3 0 2 rrcurveto
          111 514 -251 0 -112 -514 rlineto
          0 -2 -2 -2 0 -2 rrcurveto
          hintmask 11010000
          -14 -64 -6 -59 0 -54 0 -91 19 -77 38 -64 41 -69 64 -45 84 -22 rrcurveto
          -84 -393 269 0 84 395 rlineto
          91 22 80 45 69 68 104 102 70 138 37 174 rrcurveto
          64 302 36 172 9 40 rrcurveto
          endchar
        </CharString>
        <CharString name="Q">
          318 -35 242 -215 -21 1284 240 hstemhm
          234 287 707 281 hintmask 10111000
          1207 754 rmoveto
          -21 -97 -58 -168 -46 -61 rrcurveto
          -130 131 -189 -197 135 -118 rlineto
          -42 -33 -76 -4 -23 0 -181 0 -55 159 0 172 0 73 10 76 14 67 52 245 137 256 252 0 172 0 70 -134 0 -181 rrcurveto
          0 -58 -7 -63 -14 -65 rrcurveto
          -949 hmoveto
          -16 -74 -8 -77 0 -74 0 -296 134 -268 334 0 147 0 133 49 88 66 rrcurveto
          hintmask 01111000
          110 -109 190 190 -115 99 rlineto
          81 90 99 170 50 234 15 72 9 73 0 71 0 278 -128 247 -344 0 -465 0 -251 -443 -63 -298 rrcurveto
          endchar
        </CharString>
        <CharString name="R">
          105 20 -21 581 244 392 239 hstem
          1052 280 vstem
          558 824 rmoveto
          -82 callsubr
          223 -825 rmoveto
          -81 callsubr
          endchar
        </CharString>
        <CharString name="Racute">
          91 20 -21 581 244 392 239 hstem
          1052 280 vstem
          558 824 rmoveto
          -82 callsubr
          223 -825 rmoveto
          -81 callsubr
          172 951 rmoveto
          -22 callsubr
          endchar
        </CharString>
        <CharString name="Rcaron">
          91 20 -21 581 244 392 239 hstem
          1052 280 vstem
          558 824 rmoveto
          -82 callsubr
          223 -825 rmoveto
          -81 callsubr
          685 1320 rmoveto
          17 callsubr
          endchar
        </CharString>
        <CharString name="Rcommaaccent">
          91 20 -21 581 244 392 239 hstem
          512 224 316 280 vstem
          558 824 rmoveto
          -82 callsubr
          223 -825 rmoveto
          -81 callsubr
          -306 -820 rmoveto
          -21 callsubr
          endchar
        </CharString>
        <CharString name="Rho">
          29 21 -21 580 243 394 239 hstem
          1017 279 vstem
          564 823 rmoveto
          76 callsubr
          -264 633 rmoveto
          77 callsubr
          endchar
        </CharString>
        <CharString name="S">
          83 -29 242 1038 241 hstemhm
          168 278 -89 281 305 281 hintmask 11101000
          169 404 rmoveto
          -80 callsubr
          hintmask 11011000
          -79 callsubr
          hintmask 11101000
          -78 callsubr
          endchar
        </CharString>
        <CharString name="Sacute">
          83 -29 242 1038 241 hstemhm
          168 278 -89 281 305 281 hintmask 11101000
          169 404 rmoveto
          -80 callsubr
          hintmask 11011000
          -79 callsubr
          hintmask 11101000
          -78 callsubr
          479 1086 rmoveto
          -22 callsubr
          endchar
        </CharString>
        <CharString name="Scaron">
          83 -29 242 1038 241 hstemhm
          168 278 -89 281 305 281 hintmask 11101000
          169 404 rmoveto
          -80 callsubr
          hintmask 11011000
          -79 callsubr
          hintmask 11101000
          -78 callsubr
          1017 1459 rmoveto
          16 callsubr
          endchar
        </CharString>
        <CharString name="Scedilla">
          83 -8 -21 1280 241 hstemhm
          168 278 -89 281 -126 224 207 281 hintmask 11100100
          169 404 rmoveto
          -80 callsubr
          hintmask 11010100
          -79 callsubr
          hintmask 11100100
          -78 callsubr
          -95 -685 rmoveto
          2 callsubr
          hintmask 11001100
          28 callsubr
          endchar
        </CharString>
        <CharString name="Scircumflex">
          83 -29 242 1038 241 hstemhm
          168 278 -89 281 305 281 hintmask 11101000
          169 404 rmoveto
          -80 callsubr
          hintmask 11011000
          -79 callsubr
          hintmask 11101000
          -78 callsubr
          890 1115 rmoveto
          -71 callsubr
          endchar
        </CharString>
        <CharString name="Scommaaccent">
          83 -29 29 1251 241 hstemhm
          168 278 -89 281 305 281 hintmask 11001000
          741 -161 rmoveto
          2 11 1 10 0 11 0 28 -8 26 -16 25 -22 34 -37 16 -53 0 -42 0 -41 -16 -39 -34 -39 -34 -23 -37 -9 -40 -4 -18 -2 -17 0 -15 rrcurveto
          0 -25 5 -21 11 -17 17 -28 23 -18 30 -7 0 -3 1 -3 -1 -5 -3 -15 -10 -20 -17 -27 -17 -27 -14 -20 -10 -13 rrcurveto
          65 -43 rlineto
          16 11 20 16 22 20 22 20 25 25 27 30 27 30 25 35 22 39 rrcurveto
          22 39 16 39 8 38 rrcurveto
          -572 565 rmoveto
          hintmask 11101000
          -80 callsubr
          hintmask 11011000
          -79 callsubr
          hintmask 11101000
          -78 callsubr
          endchar
        </CharString>
        <CharString name="Sdotaccent">
          83 -29 242 1038 241 101 328 hstemhm
          168 278 -89 281 196 335 -226 281 hintmask 11100100
          837 1757 rmoveto
          113 callsubr
          -668 -1353 rmoveto
          hintmask 11110010
          -80 callsubr
          hintmask 11101010
          -79 callsubr
          hintmask 11110010
          -78 callsubr
          endchar
        </CharString>
        <CharString name="Sigma">
          429 0 262 901 262 hstem
          1152 hmoveto
          78 callsubr
          endchar
        </CharString>
        <CharString name="T">
          234 21 -21 1216 240 hstem
          387 1456 rmoveto
          -77 callsubr
          endchar
        </CharString>
        <CharString name="Tau">
          234 21 -21 1217 239 hstem
          387 1456 rmoveto
          79 callsubr
          endchar
        </CharString>
        <CharString name="Tbar">
          234 21 -21 514 240 462 240 hstem
          387 1456 rmoveto
          -51 -240 477 0 -98 -462 -259 0 -51 -240 259 0 -109 -514 268 0 109 514 245 0 51 240 -245 0 98 462 457 0 51 240 rlineto
          endchar
        </CharString>
        <CharString name="Tcaron">
          234 21 -21 1216 240 hstem
          387 1456 rmoveto
          -77 callsubr
          -86 452 rmoveto
          -271 0 -167 -161 -90 158 -277 0 211 -341 236 0 rlineto
          endchar
        </CharString>
        <CharString name="Tcommaaccent">
          234 21 -21 1216 240 hstem
          590 224 vstem
          387 1456 rmoveto
          -77 callsubr
          -1160 -1694 rmoveto
          -21 callsubr
          endchar
        </CharString>
        <CharString name="Tdotaccent">
          234 21 -21 1216 240 137 328 hstem
          898 335 vstem
          901 1757 rmoveto
          -27 callsubr
          -514 -301 rmoveto
          -77 callsubr
          endchar
        </CharString>
        <CharString name="Theta">
          290 -29 242 414 240 382 240 hstem
          235 284 708 285 vstem
          1207 754 rmoveto
          -107 callsubr
          -947 hmoveto
          -106 callsubr
          410 113 rmoveto
          -51 -240 453 0 51 240 rlineto
          endchar
        </CharString>
        <CharString name="Thorn">
          265 21 -21 287 239 435 238 257 -20 hstem
          969 274 vstem
          515 526 rmoveto
          92 435 rlineto
          143 219 -18 -153 hvcurveto
          0 -12 -2 -14 -3 -14 -38 -181 -219 -43 -192 0 rrcurveto
          -71 930 rmoveto
          -309 -1456 268 0 61 287 rlineto
          340 0 345 78 82 385 8 37 4 34 0 32 rrcurveto
          271 -275 75 -310 vhcurveto
          54 257 rlineto
          endchar
        </CharString>
        <CharString name="U">
          156 -35 240 1251 -20 hstem
          218 273 vstem
          630 -35 rmoveto
          -76 callsubr
          endchar
        </CharString>
        <CharString name="Uacute">
          179 -35 240 1251 -20 hstem
          218 273 vstem
          981 1533 rmoveto
          -11 callsubr
          -351 -1568 rmoveto
          -76 callsubr
          endchar
        </CharString>
        <CharString name="Ubreve">
          228 -35 240 1251 -20 80 236 hstem
          218 273 vstem
          630 -35 rmoveto
          -76 callsubr
          463 1803 rmoveto
          10 callsubr
          endchar
        </CharString>
        <CharString name="Ucircumflex">
          179 -35 240 1251 -20 hstem
          218 273 vstem
          630 -35 rmoveto
          -76 callsubr
          762 1601 rmoveto
          -71 callsubr
          endchar
        </CharString>
        <CharString name="Udieresis">
          179 -35 240 1251 -20 101 328 hstem
          218 273 124 336 135 336 vstem
          630 -35 rmoveto
          -76 callsubr
          -11 1736 rmoveto
          -3 callsubr
          471 hmoveto
          -3 callsubr
          endchar
        </CharString>
        <CharString name="Ugrave">
          179 -35 240 1251 -20 hstem
          218 273 vstem
          992 1533 rmoveto
          -12 callsubr
          -100 -1781 rmoveto
          -76 callsubr
          endchar
        </CharString>
        <CharString name="Uhungarumlaut">
          179 -35 240 1251 -20 69 -21 hstem
          218 273 vstem
          630 -35 rmoveto
          -76 callsubr
          562 1528 rmoveto
          38 callsubr
          -389 hmoveto
          31 callsubr
          endchar
        </CharString>
        <CharString name="Umacron">
          228 -35 240 1251 -20 250 127 hstem
          218 273 vstem
          630 -35 rmoveto
          -76 callsubr
          6 1848 rmoveto
          -26 callsubr
          endchar
        </CharString>
        <CharString name="Uogonek">
          228 -35 1491 hstemhm
          218 273 -13 230 hintmask 11000000
          630 -35 rmoveto
          35 callsubr
          186 -182 rmoveto
          13 callsubr
          hintmask 10100000
          14 callsubr
          endchar
        </CharString>
        <CharString name="Upsilon">
          195 21 -21 1456 -20 hstem
          375 1456 rmoveto
          63 callsubr
          endchar
        </CharString>
        <CharString name="Upsilondieresis">
          195 21 -21 1456 -20 157 328 hstem
          631 335 136 335 vstem
          634 1757 rmoveto
          -27 callsubr
          471 hmoveto
          -27 callsubr
          -730 -301 rmoveto
          63 callsubr
          endchar
        </CharString>
        <CharString name="Upsilontonos">
          195 21 -21 1456 -20 hstem
          375 1456 rmoveto
          63 callsubr
          endchar
        </CharString>
        <CharString name="Uring">
          228 -35 240 1251 -20 57 117 215 117 hstem
          218 273 295 127 214 127 vstem
          630 -35 rmoveto
          -76 callsubr
          286 1752 rmoveto
          36 callsubr
          -125 hmoveto
          37 callsubr
          endchar
        </CharString>
        <CharString name="Utilde">
          228 -35 240 1251 -20 78 247 -95 247 hstemhm
          218 273 hintmask 11001000
          630 -35 rmoveto
          35 callsubr
          89 1845 rmoveto
          19 callsubr
          hintmask 11011000
          20 callsubr
          hintmask 11101000
          21 callsubr
          hintmask 11011000
          22 callsubr
          endchar
        </CharString>
        <CharString name="V">
          183 21 -21 1456 -20 hstem
          1262 1456 rmoveto
          -75 callsubr
          endchar
        </CharString>
        <CharString name="W">
          589 21 -21 1456 -20 hstem
          383 271 363 236 vstem
          383 1456 rmoveto
          -74 callsubr
          endchar
        </CharString>
        <CharString name="Wacute">
          550 21 -21 1456 -20 hstem
          383 271 363 236 vstem
          1155 1533 rmoveto
          -11 callsubr
          -772 -77 rmoveto
          -74 callsubr
          endchar
        </CharString>
        <CharString name="Wcircumflex">
          550 21 -21 1456 -20 hstem
          383 271 363 236 vstem
          383 1456 rmoveto
          -74 callsubr
          919 106 rmoveto
          -71 callsubr
          endchar
        </CharString>
        <CharString name="Wdieresis">
          550 21 -21 1456 -20 157 328 hstemhm
          383 271 169 335 -141 236 41 335 hintmask 11111010
          826 1757 rmoveto
          113 callsubr
          471 hmoveto
          -27 callsubr
          -914 -301 rmoveto
          -71 -1456 320 0 rlineto
          hintmask 11110110
          385 975 -29 -975 320 0 547 1456 -271 0 -331 -964 18 937 -314 0 -379 -931 76 958 rlineto
          endchar
        </CharString>
        <CharString name="Wgrave">
          550 21 -21 1456 -20 hstem
          383 271 363 236 vstem
          1242 1531 rmoveto
          7 callsubr
          -598 -288 rmoveto
          -74 callsubr
          endchar
        </CharString>
        <CharString name="X">
          207 21 -21 1455 -20 20 -20 hstemhm
          hintmask 11000000
          376 1455 rmoveto
          282 -725 -594 -730 340 0 361 480 157 -480 340 0 -284 730 590 725 -340 0 -357 -475 -155 475 rlineto
          endchar
        </CharString>
        <CharString name="Xi">
          72 0 240 386 240 350 240 hstem
          166 240 rmoveto
          -51 -240 982 1 51 240 rlineto
          -724 1215 rmoveto
          -51 -240 983 1 51 240 rlineto
          -1021 -591 rmoveto
          -51 -240 786 1 51 240 rlineto
          endchar
        </CharString>
        <CharString name="Y">
          207 21 -21 1455 -20 20 -20 hstemhm
          hintmask 11000000
          376 1455 rmoveto
          -73 callsubr
          endchar
        </CharString>
        <CharString name="Yacute">
          60 21 -21 1455 -20 20 -20 hstemhm
          hintmask 11000000
          376 1455 rmoveto
          -73 callsubr
          321 445 rmoveto
          -2 callsubr
          endchar
        </CharString>
        <CharString name="Ycircumflex">
          195 21 -21 1455 -20 20 -20 hstemhm
          hintmask 11000000
          376 1455 rmoveto
          -73 callsubr
          674 107 rmoveto
          -71 callsubr
          endchar
        </CharString>
        <CharString name="Ydieresis">
          195 21 -21 1455 -20 20 -20 158 328 hstemhm
          635 335 136 335 hintmask 11011100
          376 1455 rmoveto
          -73 callsubr
          -78 302 rmoveto
          -27 callsubr
          471 hmoveto
          -27 callsubr
          endchar
        </CharString>
        <CharString name="Ygrave">
          195 21 -21 1455 -20 20 -20 hstemhm
          hintmask 10000000
          1012 1533 rmoveto
          -12 callsubr
          hintmask 11000000
          -374 -291 rmoveto
          -73 callsubr
          endchar
        </CharString>
        <CharString name="Z">
          259 0 240 976 240 hstem
          448 1456 rmoveto
          -72 callsubr
          endchar
        </CharString>
        <CharString name="Zacute">
          298 0 240 976 240 hstem
          448 1456 rmoveto
          -72 callsubr
          -599 77 rmoveto
          -2 callsubr
          endchar
        </CharString>
        <CharString name="Zcaron">
          298 0 240 976 240 hstem
          448 1456 rmoveto
          -72 callsubr
          -89 450 rmoveto
          16 callsubr
          endchar
        </CharString>
        <CharString name="Zdotaccent">
          298 0 240 976 240 85 328 hstem
          922 336 vstem
          448 1456 rmoveto
          -72 callsubr
          -689 249 rmoveto
          -4 callsubr
          endchar
        </CharString>
        <CharString name="Zeta">
          298 0 240 977 239 hstem
          448 1456 rmoveto
          -50 -239 733 0 -1059 -1217 1228 0 51 240 -792 0 1056 1216 rlineto
          endchar
        </CharString>
        <CharString name="a">
          -39 -29 220 -170 -21 524 217 156 205 hstemhm
          156 249 462 257 hintmask 10111100
          646 524 rmoveto
          -69 callsubr
          -38 217 rmoveto
          -68 callsubr
          hintmask 01111100
          -67 callsubr
          endchar
        </CharString>
        <CharString name="aacute">
          -83 -29 220 -170 -21 524 217 156 205 hstemhm
          156 249 462 257 hintmask 00111100
          724 1183 rmoveto
          354 213 rlineto
          10 7 8 10 6 13 4 8 3 9 2 9 2 10 1 9 0 10 0 24 -4 19 -9 14 -7 11 -9 12 -12 10 -12 10 -14 7 -13 4 rrcurveto
          -7 2 -5 1 -6 0 -11 0 -11 -3 -9 -7 rrcurveto
          -335 -247 rlineto
          -5 -3 -3 -5 -2 -5 -2 -5 -3 -5 -1 -5 -2 -10 0 -11 1 -13 2 -20 4 -15 6 -10 6 -10 7 -10 11 -11 11 -11 11 -6 10 -3 rrcurveto
          4 -1 2 -1 3 0 rrcurveto
          5 0 4 2 5 3 rrcurveto
          -78 -659 rmoveto
          -1 callsubr
          hintmask 10111100
          0 callsubr
          -38 217 rmoveto
          -68 callsubr
          hintmask 01111100
          -67 callsubr
          endchar
        </CharString>
        <CharString name="abreve">
          -39 -29 220 -170 -21 524 217 156 205 64 236 hstemhm
          156 249 462 257 hintmask 10111110
          646 524 rmoveto
          -69 callsubr
          -38 217 rmoveto
          -68 callsubr
          hintmask 01111110
          -67 callsubr
          300 677 rmoveto
          11 callsubr
          endchar
        </CharString>
        <CharString name="acircumflex">
          -83 -29 220 -170 -21 524 217 156 205 380 -20 hstemhm
          156 249 462 257 hintmask 10111110
          646 524 rmoveto
          -69 callsubr
          -38 217 rmoveto
          -68 callsubr
          hintmask 01111110
          -67 callsubr
          564 397 rmoveto
          -71 callsubr
          endchar
        </CharString>
        <CharString name="acute">
          -542 1528 417 hstem
          429 481 vstem
          521 1533 rmoveto
          -22 callsubr
          endchar
        </CharString>
        <CharString name="acutecomb">
          -1119 1302 254 hstem
          -687 497 vstem
          -458 1556 rmoveto
          43 callsubr
          endchar
        </CharString>
        <CharString name="adieresis">
          -83 -29 220 -170 -21 524 217 156 205 65 328 hstemhm
          156 249 32 336 94 257 -216 336 hintmask 1011111000000000
          646 524 rmoveto
          -69 callsubr
          -38 217 rmoveto
          -68 callsubr
          hintmask 0111111100000000
          -67 callsubr
          -167 590 rmoveto
          -9 callsubr
          471 hmoveto
          hintmask 0011111010000000
          -9 callsubr
          endchar
        </CharString>
        <CharString name="ae">
          645 -29 220 -170 -21 469 182 -127 217 127 230 -201 205 hstemhm
          156 249 401 277 464 241 hintmask 1001001110000000
          646 524 rmoveto
          -69 callsubr
          605 -323 rmoveto
          -65 -103 29 153 hvcurveto
          hintmask 0010101110000000
          0 25 3 29 6 32 rrcurveto
          664 0 14 68 rlineto
          12 55 6 53 0 49 0 240 -135 164 -221 0 -128 0 -128 -55 -106 -94 rrcurveto
          hintmask 1001011110000000
          -72 110 -139 43 -153 0 -107 0 -163 -46 -69 -48 rrcurveto
          68 -164 rlineto
          59 24 69 29 100 0 87 0 117 -26 0 -142 0 -21 -2 -24 -6 -26 -4 -21 -6 -28 -4 -17 -2 -9 -1 -5 0 -1 -8 78 -87 86 -139 0 rrcurveto
          -198 0 -197 -161 -47 -222 -7 -31 -3 -30 0 -29 0 -175 119 -122 173 0 140 0 120 87 42 78 rrcurveto
          hintmask 0100001110000000
          -29 -136 257 0 7 35 rlineto
          hintmask 1010101110000000
          60 -41 74 -23 83 0 133 0 177 67 114 131 rrcurveto
          -207 98 rlineto
          -48 -46 -61 -20 -59 0 rrcurveto
          -120 450 rmoveto
          -60 callsubr
          endchar
        </CharString>
        <CharString name="afii10017">
          302 21 -21 379 246 831 -20 hstem
          949 1048 rmoveto
          57 callsubr
          323 -246 rmoveto
          58 callsubr
          endchar
        </CharString>
        <CharString name="afii10018">
          29 0 239 394 243 340 240 hstem
          893 278 vstem
          121 hmoveto
          268 0 130 0 rlineto
          90 0 82 11 76 23 76 23 65 31 53 40 53 40 43 46 34 52 34 52 24 57 13 61 6 30 3 28 0 28 0 29 -3 28 -7 27 rrcurveto
          -14 53 -25 47 -37 40 -37 40 -52 32 -65 23 -65 23 -76 12 -85 0 rrcurveto
          -130 0 72 340 531 0 51 240 -799 0 -51 -240 rlineto
          145 -583 rmoveto
          100 callsubr
          endchar
        </CharString>
        <CharString name="afii10019">
          107 0 240 399 238 342 237 hstemhm
          999 264 -225 275 hintmask 11110000
          523 639 rmoveto
          66 callsubr
          208 979 rmoveto
          67 callsubr
          hintmask 11101000
          68 callsubr
          -145 579 rmoveto
          69 callsubr
          hintmask 11110000
          70 callsubr
          hintmask 11101000
          71 callsubr
          endchar
        </CharString>
        <CharString name="afii10020">
          72 21 -21 1217 239 hstem
          642 1217 rmoveto
          72 callsubr
          endchar
        </CharString>
        <CharString name="afii10021">
          557 0 240 977 239 hstem
          904 1456 rmoveto
          -391 -1116 -59 -87 rlineto
          -8 -5 -9 -4 -9 -4 rrcurveto
          -303 -1 -102 -480 240 0 51 241 1022 0 -51 -241 240 0 102 480 -240 1 258 1216 rlineto
          -525 -1213 rmoveto
          -408 -3 rlineto
          24 39 23 52 24 66 rrcurveto
          295 820 248 0 rlineto
          endchar
        </CharString>
        <CharString name="afii10022">
          92 0 240 387 239 351 239 hstem
          423 1456 rmoveto
          60 callsubr
          endchar
        </CharString>
        <CharString name="afii10023">
          92 0 240 387 239 351 239 137 328 hstem
          623 335 136 335 vstem
          626 1757 rmoveto
          -27 callsubr
          471 hmoveto
          -27 callsubr
          -674 -301 rmoveto
          60 callsubr
          endchar
        </CharString>
        <CharString name="afii10024">
          550 21 -21 1456 -20 hstem
          428 1456 rmoveto
          267 -729 -582 -727 337 0 342 456 -97 -456 269 0 97 456 3 4 149 -460 337 0 -272 727 575 729 -309 0 -375 -501 -1 4 rlineto
          110 497 -5 0 -269 0 0 -2 -1 2 1 -3 -105 -494 -162 497 rlineto
          endchar
        </CharString>
        <CharString name="afii10025">
          58 -28 242 437 213 389 237 hstemhm
          927 275 -211 265 hintmask 11110000
          162 323 rmoveto
          12 -81 26 -66 42 -54 42 -54 49 -39 58 -23 58 -23 68 -11 75 0 71 0 69 12 68 25 68 25 60 32 53 42 53 42 45 48 37 56 rrcurveto
          37 56 25 58 13 61 8 35 3 34 0 31 0 13 0 13 -1 12 -4 42 -12 37 -18 32 -18 32 -18 25 -19 21 -19 21 -24 21 -28 22 rrcurveto
          112 69 68 92 24 115 rrcurveto
          hintmask 11101000
          8 36 3 33 0 31 0 29 -3 27 -7 25 -14 52 -24 41 -36 30 -36 30 -42 23 -48 15 -48 15 -54 7 -59 0 -205 0 -159 -94 -112 -188 rrcurveto
          236 -66 rlineto
          19 30 26 26 35 22 35 22 36 11 39 0 55 0 42 -17 29 -34 19 -23 11 -30 0 -37 0 -18 -3 -19 -4 -21 -10 -47 -27 -43 -46 -40 rrcurveto
          -46 -40 -46 -20 -50 0 rrcurveto
          -142 0 -46 -213 165 0 rlineto
          61 0 50 -21 38 -44 rrcurveto
          hintmask 11110000
          28 -33 14 -38 0 -42 0 -14 -2 -15 -3 -15 -13 -61 -31 -51 -53 -41 -53 -41 -61 -21 -68 0 -49 0 -44 14 -39 29 -39 29 -25 45 -12 62 rrcurveto
          endchar
        </CharString>
        <CharString name="afii10026">
          224 21 -21 1456 -20 hstem
          428 1456 rmoveto
          102 callsubr
          endchar
        </CharString>
        <CharString name="afii10027">
          224 21 -21 1456 -20 80 236 hstem
          1109 1768 rmoveto
          10 callsubr
          -681 -312 rmoveto
          102 callsubr
          endchar
        </CharString>
        <CharString name="afii10028">
          214 21 -21 1456 -20 hstem
          424 1456 rmoveto
          -89 callsubr
          endchar
        </CharString>
        <CharString name="afii10029">
          283 0 229 988 239 hstem
          904 1456 rmoveto
          -391 -1116 -59 -87 rlineto
          -24 -16 -27 -8 -29 0 -17 0 -18 5 -15 8 -15 8 -10 10 -6 11 rrcurveto
          -206 -172 rlineto
          27 -39 29 -27 35 -13 35 -13 46 -7 55 0 63 0 65 19 68 37 68 37 59 49 50 62 33 40 31 65 32 88 rrcurveto
          295 820 248 0 -259 -1217 269 0 309 1456 rlineto
          endchar
        </CharString>
        <CharString name="afii10030">
          429 21 -21 1456 -20 hstem
          66 hmoveto
          74 callsubr
          endchar
        </CharString>
        <CharString name="afii10031">
          134 21 -21 625 239 592 -20 hstem
          424 1456 rmoveto
          61 callsubr
          endchar
        </CharString>
        <CharString name="afii10032">
          290 -29 242 1036 240 hstem
          235 284 708 285 vstem
          1207 754 rmoveto
          -107 callsubr
          -947 hmoveto
          -106 callsubr
          endchar
        </CharString>
        <CharString name="afii10033">
          134 21 -21 1217 239 hstem
          424 1456 rmoveto
          75 callsubr
          endchar
        </CharString>
        <CharString name="afii10034">
          29 21 -21 580 243 394 239 hstem
          1017 279 vstem
          564 823 rmoveto
          76 callsubr
          -264 633 rmoveto
          77 callsubr
          endchar
        </CharString>
        <CharString name="afii10035">
          191 -33 242 910 -21 159 240 hstem
          220 290 vstem
          1298 310 rmoveto
          103 callsubr
          endchar
        </CharString>
        <CharString name="afii10036">
          234 21 -21 1217 239 hstem
          387 1456 rmoveto
          79 callsubr
          endchar
        </CharString>
        <CharString name="afii10037">
          195 0 229 1227 -20 hstem
          375 1456 rmoveto
          101 callsubr
          endchar
        </CharString>
        <CharString name="afii10038">
          439 21 -21 1056 229 169 -20 hstem
          256 223 942 222 vstem
          992 315 rmoveto
          80 callsubr
          225 1057 rmoveto
          81 callsubr
          -243 -2 rmoveto
          82 callsubr
          endchar
        </CharString>
        <CharString name="afii10039">
          179 21 -21 1456 -20 hstem
          368 1456 rmoveto
          83 callsubr
          endchar
        </CharString>
        <CharString name="afii10040">
          134 0 239 1217 -20 hstem
          115 hmoveto
          1022 0 309 1456 -269 0 -258 -1217 -485 0 258 1217 -268 0 rlineto
          endchar
        </CharString>
        <CharString name="afii10041">
          2 21 -21 353 235 867 -20 20 -20 hstemhm
          272 278 hintmask 11101000
          1065 1455 rmoveto
          -114 -536 rlineto
          -11 -53 -12 -46 -16 -40 -16 -40 -16 -32 -17 -24 -17 -24 -18 -19 -21 -15 -21 -15 -20 -10 -19 -5 -19 -5 -23 -3 -23 0 -23 0 -20 3 -16 5 rrcurveto
          -16 5 -13 11 -13 14 -13 14 -9 19 -5 24 -3 15 -1 17 0 20 0 13 0 15 1 15 2 39 8 47 11 54 rrcurveto
          23 108 91 429 -258 0 -90 -423 -52 -245 rlineto
          -10 -45 -4 -43 0 -40 0 -20 2 -20 2 -19 7 -57 13 -46 24 -35 24 -35 29 -26 32 -19 32 -19 34 -10 37 0 69 0 68 18 66 36 rrcurveto
          66 36 52 45 42 55 rrcurveto
          -115 -543 258 0 309 1455 rlineto
          endchar
        </CharString>
        <CharString name="afii10042">
          525 0 239 1217 -20 hstem
          115 hmoveto
          1429 0 309 1456 -269 0 -258 -1217 -333 0 258 1217 -268 0 -258 -1217 -291 0 258 1217 -268 0 rlineto
          endchar
        </CharString>
        <CharString name="afii10043">
          765 0 239 1217 -20 hstem
          115 hmoveto
          1429 0 -48 -228 240 0 99 468 -240 -1 258 1217 -269 0 -258 -1217 -333 0 258 1217 -268 0 -258 -1217 -291 0 258 1217 -268 0 rlineto
          endchar
        </CharString>
        <CharString name="afii10044">
          169 0 239 394 243 340 240 hstem
          1082 278 vstem
          310 hmoveto
          268 0 130 0 rlineto
          90 0 83 11 76 23 76 23 64 31 53 40 53 40 44 46 34 52 34 52 23 57 13 61 6 30 3 28 0 28 0 29 -3 28 -7 27 rrcurveto
          -14 53 -25 47 -37 40 -37 40 -51 32 -65 23 -65 23 -77 12 -85 0 rrcurveto
          -130 0 123 580 -548 0 -51 -240 280 0 rlineto
          145 -583 rmoveto
          100 callsubr
          endchar
        </CharString>
        <CharString name="afii10045">
          129 0 239 1217 -20 hstem
          685 252 vstem
          879 hmoveto
          62 callsubr
          -731 -823 rmoveto
          98 hlineto
          87 43 -42 -83 hvcurveto
          0 -21 -2 -24 -6 -27 -28 -131 -69 -66 -109 0 rrcurveto
          -98 hlineto
          -252 -239 rmoveto
          201 0 98 0 rlineto
          68 0 62 11 58 23 58 23 49 31 42 40 42 40 36 46 28 52 28 52 21 57 13 61 8 38 4 38 0 35 0 20 -1 20 -3 19 rrcurveto
          -8 53 -17 47 -25 40 -25 40 -38 32 -47 23 -47 23 -56 12 -64 0 rrcurveto
          -31 0 123 580 -268 0 rlineto
          endchar
        </CharString>
        <CharString name="afii10046">
          29 0 239 394 243 580 -20 hstem
          893 278 vstem
          524 633 rmoveto
          100 callsubr
          -319 -239 rmoveto
          268 0 130 0 rlineto
          90 0 82 11 76 23 76 23 65 31 53 40 53 40 43 46 34 52 34 52 24 57 13 61 6 30 3 28 0 28 0 29 -3 28 -7 27 rrcurveto
          -14 53 -25 47 -37 40 -37 40 -52 32 -65 23 -65 23 -76 12 -85 0 rrcurveto
          -130 0 123 580 -268 0 rlineto
          endchar
        </CharString>
        <CharString name="afii10047">
          191 -33 242 910 -21 159 240 hstem
          1132 287 vstem
          156 310 rmoveto
          104 callsubr
          endchar
        </CharString>
        <CharString name="afii10048">
          533 -28 242 -193 -21 1248 242 -34 -20 hstemhm
          682 258 559 259 hintmask 01001100
          143 hmoveto
          269 0 142 666 145 0 rlineto
          -11 -71 -6 -67 0 -63 0 -40 2 -39 4 -37 14 -117 37 -93 63 -67 rrcurveto
          hintmask 10101100
          63 -67 83 -33 105 0 rrcurveto
          1 hlineto
          105 0 97 33 91 67 91 67 78 93 64 118 64 118 48 135 33 153 22 105 11 94 0 84 0 101 -16 86 -33 70 -60 129 -108 65 -159 0 rrcurveto
          -160 0 -139 -64 -118 -130 -90 -100 -70 -130 -50 -160 rrcurveto
          -150 0 rlineto
          hintmask 01011100
          116 550 -269 0 rlineto
          532 -700 rmoveto
          38 180 44 127 50 74 rrcurveto
          hintmask 10101100
          50 74 71 37 93 0 92 0 55 -36 15 -73 4 -21 3 -25 0 -29 0 -74 -14 -103 -28 -131 -20 -92 -19 -78 -21 -64 -21 -64 -25 -55 -27 -48 rrcurveto
          -27 -48 -32 -36 -36 -23 -36 -23 -42 -11 -47 0 -37 0 -29 8 -25 16 -25 16 -17 22 -12 28 -12 28 -7 36 0 46 rrcurveto
          5 vlineto
          0 45 3 48 7 52 7 54 11 65 16 73 rrcurveto
          endchar
        </CharString>
        <CharString name="afii10049">
          91 21 -21 580 243 394 239 hstem
          424 277 vstem
          1071 823 rmoveto
          -128 hlineto
          -161 -81 50 99 hvcurveto
          0 15 2 16 4 17 28 131 107 66 185 0 rrcurveto
          128 hlineto
          -728 -1217 rmoveto
          436 581 rlineto
          11 -1 21 -1 33 0 13 0 18 1 22 0 rrcurveto
          38 0 -123 -580 268 0 309 1456 -268 0 -128 0 rlineto
          -91 0 -83 -11 -76 -23 -76 -23 -64 -31 -53 -40 -53 -40 -44 -46 -34 -52 -34 -52 -23 -57 -13 -61 -6 -28 -3 -27 0 -27 0 -51 10 -50 22 -46 rrcurveto
          33 -71 56 -55 81 -38 rrcurveto
          -505 -627 rlineto
          endchar
        </CharString>
        <CharString name="afii10051">
          134 0 229 638 235 110 240 hstem
          1010 279 vstem
          377 hmoveto
          114 536 rlineto
          11 53 17 47 25 40 34 55 20 31 8 9 39 46 44 29 48 13 21 5 25 3 31 0 23 0 20 -3 16 -5 16 -5 20 -10 25 -14 rrcurveto
          25 -14 19 -20 14 -24 12 -21 6 -27 0 -32 rrcurveto
          -15 vlineto
          -2 -39 -9 -47 -11 -54 rrcurveto
          -23 -111 1 0 -19 -86 rlineto
          -7 -31 -16 -27 -27 -22 -26 -21 -30 -10 -33 0 -17 0 -18 5 -15 8 -15 8 -10 10 -6 11 rrcurveto
          -206 -172 rlineto
          27 -39 29 -27 35 -13 35 -13 46 -7 55 0 63 0 65 19 68 37 68 37 59 49 50 62 50 62 32 64 14 67 rrcurveto
          20 92 -1 0 38 179 rlineto
          10 46 5 44 0 42 0 19 -1 18 -2 18 -7 57 -21 45 -33 35 -33 35 -32 28 -32 19 -32 19 -47 9 -61 0 -94 0 -75 -18 -60 -36 rrcurveto
          -94 -57 -63 -45 -31 -34 rrcurveto
          64 300 181 0 51 240 -604 0 -51 -240 165 0 -258 -1212 rlineto
          endchar
        </CharString>
        <CharString name="afii10052">
          72 21 -21 1217 239 hstem
          837 1533 rmoveto
          -11 callsubr
          -195 -316 rmoveto
          72 callsubr
          endchar
        </CharString>
        <CharString name="afii10053">
          191 -33 242 445 240 225 -21 159 240 hstem
          220 290 vstem
          1298 310 rmoveto
          -238 100 rlineto
          -103 -134 -98 -67 -90 0 -61 0 -49 15 -40 29 -40 29 -29 41 -16 51 -16 51 -8 58 0 64 0 34 1 36 5 37 rrcurveto
          448 0 51 240 -443 0 rlineto
          2 5 1 4 2 5 17 47 22 45 26 44 26 44 29 37 33 31 33 31 39 25 45 18 45 18 49 9 53 0 43 0 40 -16 38 -31 rrcurveto
          38 -31 27 -37 18 -44 rrcurveto
          274 89 rlineto
          -20 86 -46 73 -73 60 -73 60 -97 31 -118 0 -91 0 -84 -14 -79 -27 -79 -27 -68 -37 -58 -46 -58 -46 -51 -56 -46 -64 -46 -64 -37 -68 -29 -70 rrcurveto
          -29 -70 -23 -75 -17 -79 -18 -83 -8 -77 -3 -74 0 -10 -1 -9 0 -10 0 -64 8 -62 15 -59 18 -68 27 -58 36 -50 36 -50 52 -40 67 -29 rrcurveto
          67 -29 80 -15 92 0 232 0 193 114 155 229 rrcurveto
          endchar
        </CharString>
        <CharString name="afii10054">
          83 -29 242 1038 241 hstemhm
          168 278 -89 281 305 281 hintmask 11101000
          169 404 rmoveto
          -1 -12 0 -12 0 -11 0 -113 38 -93 75 -73 83 -80 111 -39 139 0 144 0 128 39 114 79 114 79 70 105 28 131 8 36 4 34 0 32 rrcurveto
          0 8 0 9 -1 8 -3 39 -6 34 -12 28 -12 28 -17 27 -23 25 -23 25 -23 21 -25 17 -25 17 -30 18 -34 18 -19 10 -28 12 -39 16 rrcurveto
          -39 16 -33 15 -29 13 -29 13 -30 15 -29 18 -29 18 -21 19 -13 23 rrcurveto
          hintmask 11011000
          -9 16 -5 16 0 18 0 8 1 8 2 8 12 57 29 42 44 25 44 25 54 12 62 0 98 0 56 -39 17 -77 rrcurveto
          284 51 rlineto
          -10 88 -42 73 -74 58 -74 58 -92 29 -112 0 -63 0 -61 -8 -61 -17 -61 -17 -57 -24 -53 -32 -53 -32 -45 -44 -38 -52 -38 -52 -26 -59 -14 -65 rrcurveto
          -6 -30 -4 -28 0 -27 0 -10 0 -9 1 -10 4 -35 7 -29 11 -24 11 -24 15 -23 22 -21 22 -21 20 -18 19 -13 19 -13 24 -14 28 -15 rrcurveto
          27 -14 34 -15 38 -17 38 -17 33 -13 26 -11 26 -11 26 -14 29 -16 29 -16 21 -16 16 -16 16 -16 10 -21 8 -25 4 -13 2 -14 0 -15 rrcurveto
          0 -13 -2 -14 -3 -15 -12 -57 -30 -46 -47 -35 -47 -35 -63 -18 -74 0 -73 0 -53 23 -36 44 rrcurveto
          hintmask 11101000
          -36 44 -18 56 -3 67 rrcurveto
          endchar
        </CharString>
        <CharString name="afii10055">
          -564 21 -21 1456 -20 hstem
          143 578 vstem
          143 hmoveto
          62 callsubr
          endchar
        </CharString>
        <CharString name="afii10056">
          -564 21 -21 1456 -20 157 328 hstem
          253 335 136 335 vstem
          256 1757 rmoveto
          -27 callsubr
          471 hmoveto
          -27 callsubr
          -584 -1757 rmoveto
          62 callsubr
          endchar
        </CharString>
        <CharString name="afii10057">
          132 -35 254 997 240 hstemhm
          203 250 -227 247 hintmask 11100000
          227 586 rmoveto
          -15 -72 -9 -67 0 -63 rrcurveto
          hintmask 11010000
          0 -61 7 -56 16 -51 16 -52 23 -45 32 -37 32 -37 43 -28 53 -21 53 -21 61 -10 70 0 111 0 100 27 89 53 89 53 73 73 57 92 rrcurveto
          57 92 42 108 26 123 rrcurveto
          133 630 51 240 -639 0 -51 -240 371 0 -133 -630 rlineto
          -10 -49 -14 -45 -17 -41 -17 -41 -20 -38 -25 -36 -25 -36 -32 -29 -37 -21 -37 -21 -42 -10 -46 0 -49 0 -41 10 -33 21 -33 21 -22 29 -12 36 rrcurveto
          hintmask 11100000
          24 callsubr
          endchar
        </CharString>
        <CharString name="afii10058">
          838 0 229 404 243 341 239 hstem
          1716 278 vstem
          904 1456 rmoveto
          -391 -1116 -59 -87 rlineto
          -24 -16 -27 -8 -29 0 -17 0 -18 5 -15 8 -15 8 -10 10 -6 11 rrcurveto
          -206 -172 rlineto
          27 -39 29 -27 35 -13 35 -13 46 -7 55 0 63 0 65 19 68 37 68 37 59 49 50 62 33 40 31 65 32 88 rrcurveto
          295 820 125 0 -259 -1217 268 0 130 0 rlineto
          90 0 83 11 76 23 76 23 63 31 53 40 53 40 45 46 34 52 34 52 23 57 13 61 6 28 3 28 0 27 0 30 -4 29 -7 28 rrcurveto
          -14 53 -25 47 -37 40 -37 40 -51 32 -65 23 -65 23 -76 12 -85 0 rrcurveto
          -130 0 73 341 50 239 rlineto
          -174 -823 rmoveto
          100 callsubr
          endchar
        </CharString>
        <CharString name="afii10059">
          598 0 239 386 239 592 -20 hstem
          1466 278 vstem
          424 1456 rmoveto
          -309 -1456 268 0 133 625 311 0 -133 -625 269 0 129 0 rlineto
          90 0 83 11 76 23 76 23 63 31 53 40 53 40 45 46 34 52 34 52 23 57 13 61 6 28 3 28 0 27 0 30 -4 29 -7 28 rrcurveto
          -14 53 -25 47 -37 40 -37 40 -51 32 -65 23 -65 23 -76 12 -85 0 rrcurveto
          -129 0 123 580 -1 0 -268 0 -125 -592 -311 0 125 592 rlineto
          322 -1217 rmoveto
          84 394 129 0 rlineto
          160 79 -50 -99 hvcurveto
          0 -15 -1 -16 -4 -17 -28 -131 -106 -66 -184 0 rrcurveto
          endchar
        </CharString>
        <CharString name="afii10060">
          2 21 -21 867 235 112 240 hstem
          893 278 vstem
          377 hmoveto
          114 536 rlineto
          11 53 14 47 16 40 16 40 15 31 17 24 17 24 18 19 21 15 21 15 21 10 19 5 19 5 21 3 23 0 23 0 20 -3 16 -5 rrcurveto
          16 -5 14 -10 13 -14 13 -14 8 -20 5 -24 3 -16 2 -20 0 -23 0 -11 0 -12 -1 -13 -2 -39 -9 -47 -11 -54 rrcurveto
          -114 -537 258 0 142 668 rlineto
          10 47 5 44 0 41 0 19 -1 18 -2 18 -7 57 -16 45 -24 35 -24 35 -27 28 -32 19 -32 19 -35 9 -37 0 -69 0 -66 -18 -66 -36 rrcurveto
          -66 -36 -54 -45 -42 -55 rrcurveto
          64 302 127 0 51 240 -504 0 -51 -240 119 0 -258 -1214 rlineto
          endchar
        </CharString>
        <CharString name="afii10061">
          214 21 -21 1456 -20 hstem
          933 1533 rmoveto
          -11 callsubr
          -509 -77 rmoveto
          -89 callsubr
          endchar
        </CharString>
        <CharString name="afii10062">
          195 0 229 1227 -20 157 328 hstem
          637 335 136 335 vstem
          640 1757 rmoveto
          -27 callsubr
          471 hmoveto
          -27 callsubr
          -736 -301 rmoveto
          101 callsubr
          endchar
        </CharString>
        <CharString name="afii10065">
          -39 -29 220 -170 -21 524 217 156 205 hstemhm
          156 248 463 256 hintmask 10111100
          646 524 rmoveto
          59 0 43 -17 28 -33 21 -24 9 -29 0 -31 0 -11 0 -11 -3 -12 -10 -45 -25 -39 -42 -32 -42 -32 -49 -17 -59 0 -59 0 -46 16 -31 33 rrcurveto
          -24 25 -12 29 0 32 0 10 2 9 2 11 10 45 28 39 45 34 rrcurveto
          45 34 51 16 59 0 rrcurveto
          -38 217 rmoveto
          -100 0 -93 -36 -86 -73 -86 -73 -54 -91 -23 -110 -7 -33 -3 -31 0 -29 0 -70 19 -61 38 -52 54 -74 79 -37 102 0 66 0 61 17 56 34 rrcurveto
          56 34 40 37 23 43 rrcurveto
          hintmask 01111100
          -29 -136 257 0 65 305 64 304 rlineto
          11 50 5 46 0 43 0 18 -1 18 -2 17 -6 57 -15 47 -23 37 -23 37 -31 30 -39 25 -39 25 -41 17 -46 10 -46 10 -50 6 -55 0 rrcurveto
          -53 0 -61 -10 -69 -19 -69 -19 -52 -22 -35 -24 rrcurveto
          68 -164 rlineto
          28 11 23 9 15 6 15 6 24 6 31 6 31 6 30 3 31 0 23 0 21 -2 19 -3 19 -3 21 -7 21 -10 21 -10 18 -15 12 -17 rrcurveto
          12 -17 9 -23 5 -29 2 -11 1 -11 0 -13 0 -21 -3 -23 -5 -24 rrcurveto
          -18 -82 rlineto
          -4 43 -23 37 -43 34 -43 34 -54 17 -66 0 rrcurveto
          endchar
        </CharString>
        <CharString name="afii10066">
          -14 -29 235 660 234 174 240 hstem
          185 256 478 252 vstem
          800 1514 rmoveto
          -63 0 -65 -19 -68 -37 -68 -37 -60 -49 -50 -62 -50 -62 -32 -64 -14 -67 rrcurveto
          -113 -534 rlineto
          -4 -15 -4 -15 -3 -16 -14 -66 -7 -61 0 -56 0 -92 19 -77 38 -63 61 -101 105 -50 151 0 150 0 126 51 104 102 104 102 70 137 37 174 rrcurveto
          14 66 7 61 0 55 0 91 -18 76 -38 63 -61 101 -105 50 -150 0 -81 0 -76 -14 -67 -30 rrcurveto
          26 118 rlineto
          7 31 16 27 27 22 17 14 33 6 48 0 rrcurveto
          431 0 51 240 rlineto
          -775 -987 rmoveto
          7 0 25 116 rlineto
          53 148 87 75 122 0 113 0 56 -63 0 -127 0 -40 -6 -47 -11 -52 -47 -221 -97 -110 -148 0 -112 0 -57 64 0 127 0 38 5 43 10 49 rrcurveto
          endchar
        </CharString>
        <CharString name="afii10067">
          -119 -1 178 295 176 253 175 hstemhm
          761 260 -232 270 hintmask 11110000
          416 472 rmoveto
          161 hlineto
          123 61 -36 -72 hvcurveto
          0 -11 -1 -11 -3 -12 -9 -44 -24 -37 -38 -29 -38 -29 -57 -14 -76 0 rrcurveto
          -161 hlineto
          154 724 rmoveto
          117 hlineto
          68 0 45 -12 24 -25 rrcurveto
          hintmask 11101000
          18 -19 9 -21 0 -25 0 -7 0 -8 -2 -8 -7 -35 -22 -30 -34 -25 -34 -25 -51 -13 -68 0 rrcurveto
          -117 hlineto
          -172 428 rmoveto
          -229 -1077 510 0 rlineto
          63 0 58 8 51 16 51 16 41 18 32 23 32 23 26 27 24 31 24 31 16 28 11 26 11 26 7 26 6 26 rrcurveto
          hintmask 11110000
          3 16 2 15 0 17 0 16 -2 18 -3 17 -7 35 -18 32 -27 33 -27 33 -36 22 -45 11 49 14 41 24 35 33 35 33 23 44 11 54 rrcurveto
          4 17 2 17 2 17 rrcurveto
          hintmask 11101000
          0 4 1 4 0 4 0 13 -3 14 -2 15 -3 19 -6 18 -8 17 -8 17 -12 16 -17 16 -17 16 -19 13 -24 11 -24 11 -29 9 -37 7 rrcurveto
          -37 7 -40 3 -46 0 rrcurveto
          endchar
        </CharString>
        <CharString name="afii10068">
          -5 21 -21 835 239 hstem
          347 1074 rmoveto
          105 callsubr
          endchar
        </CharString>
        <CharString name="afii10069">
          71 0 240 834 -20 hstem
          1082 -228 rmoveto
          99 468 -240 0 177 834 -556 -1 -255 -737 -60 -87 rlineto
          -5 -3 -5 -3 -6 -3 rrcurveto
          -112 0 -99 -468 240 0 48 228 582 0 -48 -228 rlineto
          -163 468 rmoveto
          -171 hlineto
          23 39 25 51 22 63 rrcurveto
          157 441 70 0 rlineto
          endchar
        </CharString>
        <CharString name="afii10070">
          -26 -29 230 268 182 217 230 hstem
          176 266 465 241 vstem
          490 651 rmoveto
          106 callsubr
          -293 -450 rmoveto
          -23 0 -21 4 -20 7 -20 7 -20 11 -20 18 -20 18 -13 28 -7 38 -3 15 -2 17 0 18 0 26 4 29 6 32 rrcurveto
          664 0 14 68 rlineto
          12 56 6 54 0 50 0 45 -5 43 -10 40 -21 85 -39 68 -60 48 -60 48 -74 24 -88 0 -134 0 -124 -53 -116 -107 -116 -107 -75 -134 -34 -160 rrcurveto
          -11 -50 -5 -48 0 -46 0 -28 2 -27 4 -27 11 -71 23 -60 34 -49 34 -49 43 -39 54 -29 54 -29 61 -14 66 0 71 0 74 18 79 35 rrcurveto
          79 35 67 48 54 62 rrcurveto
          -207 98 rlineto
          -45 -44 -56 -22 -67 0 rrcurveto
          endchar
        </CharString>
        <CharString name="afii10071">
          -26 -29 230 268 182 217 230 88 328 hstemhm
          176 266 -8 336 135 336 -334 241 hintmask 11110001
          490 651 rmoveto
          106 callsubr
          -293 -450 rmoveto
          -23 0 -21 4 -20 7 -20 7 -20 11 -20 18 -20 18 -13 28 -7 38 rrcurveto
          hintmask 11111001
          -3 15 -2 17 0 18 0 26 4 29 6 32 rrcurveto
          664 0 14 68 rlineto
          12 56 6 54 0 50 0 45 -5 43 -10 40 -21 85 -39 68 -60 48 -60 48 -74 24 -88 0 -134 0 -124 -53 -116 -107 -116 -107 -75 -134 -34 -160 rrcurveto
          -11 -50 -5 -48 0 -46 0 -28 2 -27 4 -27 11 -71 23 -60 34 -49 34 -49 43 -39 54 -29 54 -29 61 -14 66 0 71 0 74 18 79 35 rrcurveto
          79 35 67 48 54 62 rrcurveto
          -207 98 rlineto
          -45 -44 -56 -22 -67 0 rrcurveto
          -173 1149 rmoveto
          hintmask 11110100
          96 callsubr
          471 hmoveto
          hintmask 11110010
          96 callsubr
          endchar
        </CharString>
        <CharString name="afii10072">
          330 21 -21 1073 -20 hstem
          582 hmoveto
          269 0 70 331 118 -331 307 0 -227 536 437 537 -290 0 -256 -325 69 325 -269 0 -70 -330 -120 330 -290 0 209 -537 -455 -536 rlineto
          307 0 261 335 1 -2 rlineto
          endchar
        </CharString>
        <CharString name="afii10073">
          -205 -29 222 246 237 219 214 hstemhm
          664 253 -194 234 hintmask 11110000
          136 234 rmoveto
          9 -60 21 -51 31 -40 31 -40 38 -29 43 -17 43 -17 51 -9 56 0 53 0 53 10 51 18 51 18 45 25 40 31 40 31 32 37 28 42 rrcurveto
          28 42 19 43 10 46 6 27 2 24 0 23 0 10 0 9 -1 10 -3 32 -10 27 -13 24 -13 24 -13 19 -15 16 -15 16 -17 16 -21 16 rrcurveto
          83 52 52 69 18 86 rrcurveto
          hintmask 11101000
          6 26 2 25 0 23 0 22 -2 21 -5 19 -10 39 -19 31 -27 22 -27 22 -32 18 -36 11 -36 11 -40 5 -44 0 -154 0 -119 -70 -84 -141 rrcurveto
          207 -65 rlineto
          11 17 14 15 20 12 20 12 20 6 22 0 31 0 24 -10 16 -19 11 -13 5 -16 0 -21 0 -10 -2 -11 -2 -12 -6 -27 -14 -24 -26 -22 rrcurveto
          -26 -22 -26 -12 -28 0 rrcurveto
          -80 0 -49 -237 93 0 rlineto
          34 0 28 -12 21 -25 rrcurveto
          hintmask 11110000
          16 -19 8 -21 0 -24 0 -8 0 -8 -2 -8 -7 -34 -19 -29 -30 -23 -30 -23 -33 -12 -38 0 -28 0 -24 9 -23 16 -23 16 -13 25 -7 35 rrcurveto
          endchar
        </CharString>
        <CharString name="afii10074">
          2 21 -21 1077 -20 hstem
          359 1077 rmoveto
          107 callsubr
          endchar
        </CharString>
        <CharString name="afii10075">
          2 21 -21 1077 -20 114 236 hstem
          930 1423 rmoveto
          11 callsubr
          -571 -346 rmoveto
          107 callsubr
          endchar
        </CharString>
        <CharString name="afii10076">
          -90 20 -20 1075 -21 hstem
          379 414 rmoveto
          27 callsubr
          endchar
        </CharString>
        <CharString name="afii10077">
          -33 -4 229 849 -20 hstem
          1052 hmoveto
          228 1074 -556 -1 -255 -737 -60 -87 rlineto
          -24 -16 -26 -8 -29 0 -17 0 -17 5 -15 8 -15 8 -11 10 -6 11 rrcurveto
          -207 -172 rlineto
          27 -39 30 -27 35 -13 35 -13 45 -7 55 0 63 0 66 19 68 37 68 37 59 49 50 62 33 40 32 65 32 88 rrcurveto
          157 441 70 0 -177 -834 rlineto
          endchar
        </CharString>
        <CharString name="afii10078">
          211 21 -21 1077 -20 hstem
          63 hmoveto
          268 0 155 731 77 -731 200 0 392 739 -157 -739 269 0 229 1077 -341 0 -426 -763 -96 763 -341 0 rlineto
          endchar
        </CharString>
        <CharString name="afii10079">
          2 21 -21 426 239 409 -20 hstem
          347 1074 rmoveto
          108 callsubr
          endchar
        </CharString>
        <CharString name="afii10080">
          -14 -29 235 660 234 hstem
          185 256 478 252 vstem
          458 537 rmoveto
          91 callsubr
          -252 hmoveto
          92 callsubr
          endchar
        </CharString>
        <CharString name="afii10081">
          351 21 -21 834 239 hstem
          347 1073 rmoveto
          -228 -1074 267 0 178 835 286 0 -177 -834 269 0 228 1074 rlineto
          endchar
        </CharString>
        <CharString name="afii10082">
          13 -405 -21 398 234 660 234 -27 -20 hstemhm
          932 267 hintmask 11101000
          286 -426 rmoveto
          124 583 rlineto
          23 -55 37 -44 49 -34 49 -34 53 -18 57 0 63 0 60 14 55 30 55 30 49 40 41 52 41 52 36 60 29 66 29 66 23 72 17 78 rrcurveto
          16 74 7 71 0 64 rrcurveto
          9 vlineto
          -1 67 -8 60 -19 53 -19 53 -31 41 -43 30 -43 30 -53 16 -64 0 -58 0 -61 -16 -63 -34 -63 -34 -54 -44 -47 -55 rrcurveto
          hintmask 11011000
          -44 callsubr
          889 963 rmoveto
          -11 -53 -17 -48 -22 -44 -22 -44 -25 -35 -27 -26 -27 -26 -27 -20 -27 -14 -27 -14 -26 -7 -24 0 -26 0 -24 5 -23 11 -23 11 -19 18 -18 24 rrcurveto
          -18 24 -10 34 -4 45 -1 11 0 12 0 13 0 37 4 41 10 45 13 60 18 52 24 45 24 45 24 35 28 24 28 24 27 17 27 11 rrcurveto
          hintmask 11101000
          27 11 26 5 26 0 26 0 24 -6 21 -12 21 -12 19 -17 16 -25 16 -25 9 -34 4 -44 1 -10 0 -10 0 -10 0 -37 -5 -41 -10 -46 rrcurveto
          endchar
        </CharString>
        <CharString name="afii10083">
          -72 -29 232 667 230 hstem
          181 269 vstem
          927 756 rmoveto
          93 callsubr
          endchar
        </CharString>
        <CharString name="afii10084">
          2 21 -21 835 239 hstem
          347 1074 rmoveto
          -51 -239 310 -1 -177 -834 268 0 177 834 321 1 51 239 rlineto
          endchar
        </CharString>
        <CharString name="afii10085">
          -13 -465 232 204 235 867 -20 hstem
          191 271 vstem
          997 -29 rmoveto
          109 callsubr
          endchar
        </CharString>
        <CharString name="afii10086">
          9 1454 -20 hstem
          185 256 478 252 vstem
          206 537 rmoveto
          97 callsubr
          411 291 rmoveto
          98 callsubr
          244 5 rmoveto
          99 callsubr
          endchar
        </CharString>
        <CharString name="afii10087">
          -65 21 -21 1073 -20 hstem
          1021 hmoveto
          -32 callsubr
          endchar
        </CharString>
        <CharString name="afii10088">
          203 0 239 835 -20 hstem
          1210 -228 rmoveto
          99 468 -241 0 177 834 -269 0 -176 -835 -362 0 176 835 -265 0 -230 -1074 899 0 -48 -228 rlineto
          endchar
        </CharString>
        <CharString name="afii10089">
          2 21 -21 265 176 632 -20 hstem
          244 256 vstem
          930 1073 rmoveto
          -82 -384 rlineto
          -9 -40 -11 -34 -12 -30 -12 -30 -12 -24 -12 -18 -12 -18 -14 -14 -18 -11 -18 -11 -19 -8 -17 -4 -17 -4 -19 -2 -21 0 -21 0 -19 2 -14 4 rrcurveto
          -14 4 -13 7 -12 11 -12 11 -8 14 -5 18 -4 15 -3 19 0 23 rrcurveto
          15 vlineto
          1 30 5 34 9 40 rrcurveto
          18 82 64 303 -241 0 -63 -299 -40 -184 rlineto
          -6 -30 -3 -29 0 -27 0 -19 2 -18 3 -17 8 -42 17 -35 25 -26 25 -26 28 -21 30 -14 30 -14 30 -7 33 0 62 0 59 13 56 27 rrcurveto
          56 27 45 34 36 41 rrcurveto
          -87 -407 240 0 228 1073 rlineto
          endchar
        </CharString>
        <CharString name="afii10090">
          451 0 240 836 -21 hstem
          875 1075 rmoveto
          -2 0 -177 -834 -258 -2 176 835 -267 0 -228 -1074 1351 0 228 1074 -269 0 -177 -834 -286 0 177 835 rlineto
          endchar
        </CharString>
        <CharString name="afii10091">
          691 0 240 836 -21 hstem
          875 1075 rmoveto
          -2 0 -177 -834 -258 -2 176 835 -267 0 -228 -1074 1351 0 -48 -228 240 0 99 468 -240 -1 177 835 -269 0 -177 -834 -286 0 rlineto
          177 835 rlineto
          endchar
        </CharString>
        <CharString name="afii10092">
          67 0 178 295 176 185 240 hstem
          940 260 vstem
          595 473 rmoveto
          110 callsubr
          -276 896 rmoveto
          -51 -240 203 0 -177 -834 511 0 rlineto
          63 0 57 7 51 16 51 16 41 19 32 23 32 23 26 27 24 31 24 31 17 28 11 26 11 26 7 26 6 26 3 15 2 16 0 16 rrcurveto
          0 16 -2 17 -3 18 -7 35 -17 35 -27 35 -27 35 -39 28 -54 20 -63 24 -92 13 -120 1 rrcurveto
          -117 0 39 185 51 240 rlineto
          endchar
        </CharString>
        <CharString name="afii10093">
          79 0 178 295 176 425 -21 hstem
          645 259 vstem
          1128 1073 rmoveto
          -54 callsubr
          -970 -600 rmoveto
          86 hlineto
          96 47 -34 -68 hvcurveto
          0 -12 -2 -14 -3 -14 -9 -44 -24 -37 -38 -29 -38 -29 -44 -14 -48 0 rrcurveto
          -86 hlineto
          -73 896 rmoveto
          -228 -1074 394 0 rlineto
          63 0 57 7 51 16 51 16 41 19 32 23 32 23 26 27 24 31 24 31 17 28 11 26 11 26 7 26 6 26 3 15 2 16 0 16 rrcurveto
          0 16 -2 17 -3 18 -7 35 -17 35 -27 35 -27 35 -39 28 -53 20 -63 24 -79 13 -92 1 rrcurveto
          -42 0 90 425 rlineto
          endchar
        </CharString>
        <CharString name="afii10094">
          -112 0 178 295 176 425 -20 hstem
          761 260 vstem
          416 473 rmoveto
          110 callsubr
          -73 896 rmoveto
          -228 -1074 511 0 rlineto
          63 0 57 7 51 16 51 16 41 19 32 23 32 23 26 27 24 31 24 31 17 28 11 26 11 26 7 26 6 26 3 15 2 16 0 16 rrcurveto
          0 16 -2 17 -3 18 -7 35 -17 35 -27 35 -27 35 -40 28 -53 20 -63 24 -91 13 -121 1 rrcurveto
          -117 0 90 425 rlineto
          endchar
        </CharString>
        <CharString name="afii10095">
          -72 -29 232 223 240 204 230 hstem
          842 268 vstem
          460 756 rmoveto
          59 76 68 38 77 0 66 0 51 -32 32 -64 16 -32 10 -36 3 -40 rrcurveto
          -343 0 -51 -240 349 0 rlineto
          -23 -51 -32 -44 -38 -37 -63 -61 -66 -30 -73 0 -25 0 -21 3 -17 7 -17 7 -11 8 -8 11 -8 11 -8 12 -5 13 -5 13 -4 14 -3 13 rrcurveto
          -238 -111 rlineto
          12 -30 15 -28 18 -27 18 -27 23 -24 26 -23 26 -23 31 -18 36 -13 36 -13 39 -7 41 0 159 0 136 51 116 102 116 102 76 136 36 170 rrcurveto
          12 56 6 52 0 49 0 98 -24 85 -48 70 -72 105 -108 53 -145 0 -77 0 -80 -22 -82 -42 -82 -42 -68 -56 -54 -70 rrcurveto
          endchar
        </CharString>
        <CharString name="afii10096">
          428 -21 179 -137 -21 493 177 254 179 -26 -20 hstemhm
          624 245 499 245 hintmask 01100110
          139 hmoveto
          253 0 105 493 136 0 rlineto
          -6 -40 -3 -38 0 -36 0 -43 4 -40 8 -38 19 -87 39 -67 61 -50 rrcurveto
          hintmask 10110110
          61 -50 82 -25 98 0 rrcurveto
          1 hlineto
          98 0 89 25 83 50 83 50 69 68 55 87 55 87 40 100 24 113 14 64 6 59 0 53 0 90 -19 74 -38 60 -61 95 -105 49 -150 0 rrcurveto
          -150 0 -128 -48 -105 -96 -81 -74 -61 -97 -40 -118 rrcurveto
          -141 0 rlineto
          hintmask 01101110
          87 407 -253 0 rlineto
          529 -518 rmoveto
          28 133 36 94 44 55 rrcurveto
          hintmask 10110110
          44 55 66 28 87 0 86 0 52 -27 18 -54 7 -21 3 -26 0 -33 0 -53 -8 -68 -18 -83 -14 -68 -16 -57 -17 -47 -17 -47 -20 -41 -24 -36 rrcurveto
          -24 -36 -28 -26 -33 -17 -33 -17 -38 -9 -44 0 -35 0 -31 6 -23 12 -23 12 -17 16 -13 21 -13 21 -6 27 -3 34 -1 13 0 13 0 14 rrcurveto
          0 22 1 24 3 25 5 40 8 47 11 54 rrcurveto
          endchar
        </CharString>
        <CharString name="afii10097">
          -112 21 -21 425 176 295 178 hstem
          206 260 vstem
          946 hmoveto
          229 1074 -511 0 rlineto
          -63 0 -57 -8 -51 -16 -51 -16 -41 -18 -32 -23 -32 -23 -26 -27 -24 -31 -24 -31 -16 -28 -11 -26 -11 -26 -8 -26 -6 -26 -3 -16 -2 -15 0 -17 rrcurveto
          0 -16 2 -18 3 -17 7 -35 17 -34 27 -35 27 -35 38 -28 54 -20 11 -4 14 -4 13 -4 rrcurveto
          -365 -451 306 0 317 425 97 0 -90 -425 rlineto
          128 601 rmoveto
          -161 hlineto
          -123 -62 35 73 hvcurveto
          0 10 1 12 3 12 9 44 24 37 38 29 38 29 58 14 76 0 rrcurveto
          161 hlineto
          endchar
        </CharString>
        <CharString name="afii10099">
          2 21 -21 867 235 352 -20 hstem
          893 278 vstem
          377 hmoveto
          114 536 rlineto
          11 53 14 47 16 40 16 40 15 31 17 24 17 24 18 19 21 15 21 15 21 10 19 5 19 5 21 3 23 0 23 0 20 -3 16 -5 rrcurveto
          16 -5 14 -10 13 -14 13 -14 8 -20 5 -24 3 -16 2 -20 0 -23 0 -11 0 -12 -1 -13 -2 -39 -9 -47 -11 -54 rrcurveto
          -114 -537 258 0 142 668 rlineto
          10 47 5 44 0 41 0 19 -1 18 -2 18 -7 57 -16 45 -24 35 -24 35 -27 28 -32 19 -32 19 -35 9 -37 0 -69 0 -66 -18 -66 -36 rrcurveto
          -66 -36 -54 -45 -42 -55 rrcurveto
          115 542 -258 0 -309 -1454 rlineto
          endchar
        </CharString>
        <CharString name="afii10100">
          -5 21 -21 835 239 hstem
          746 1185 rmoveto
          111 callsubr
          -399 -111 rmoveto
          105 callsubr
          endchar
        </CharString>
        <CharString name="afii10101">
          -72 -29 232 223 240 204 230 hstem
          181 269 vstem
          927 756 rmoveto
          236 112 rlineto
          -24 70 -43 56 -64 42 -64 42 -71 22 -77 0 -145 0 -132 -53 -116 -105 -116 -105 -76 -137 -36 -168 -12 -57 -6 -53 0 -50 0 -97 23 -83 48 -68 rrcurveto
          72 -102 117 -51 159 0 41 0 41 7 42 13 42 13 38 18 36 23 36 23 32 24 30 27 30 27 27 28 24 30 rrcurveto
          -190 111 rlineto
          -9 -13 -11 -14 -11 -13 -11 -13 -10 -12 -12 -11 -12 -11 -17 -8 -19 -7 -19 -7 -24 -3 -25 0 -73 0 -55 30 -37 61 -22 37 -11 44 -1 51 rrcurveto
          349 0 51 240 -343 0 rlineto
          21 40 25 36 30 32 60 64 62 32 66 0 77 0 52 -38 27 -76 rrcurveto
          endchar
        </CharString>
        <CharString name="afii10102">
          -161 -29 230 669 230 hstem
          446 491 rmoveto
          19 -12 26 -13 29 -14 29 -14 26 -10 20 -10 20 -10 20 -11 19 -12 19 -12 12 -14 8 -15 8 -15 3 -16 -4 -18 -3 -16 -6 -14 -9 -12 rrcurveto
          -9 -12 -9 -9 -10 -6 -10 -6 -12 -6 -15 -4 -15 -4 -16 -3 -13 -1 -13 -1 -16 0 -18 0 -43 0 -35 11 -28 23 -27 22 -13 29 0 37 rrcurveto
          0 6 -240 -39 rlineto
          0 -98 29 -78 59 -57 59 -57 84 -29 108 0 71 0 70 12 66 25 66 25 55 36 47 46 47 46 29 52 12 57 7 35 5 32 0 29 rrcurveto
          0 41 -8 35 -14 30 -24 51 -46 44 -69 37 -25 13 -28 14 -31 13 -31 13 -25 11 -19 8 -19 8 -20 8 -18 10 -18 10 -10 12 -6 13 rrcurveto
          -6 13 -3 15 4 18 4 18 7 15 9 12 9 12 11 8 14 6 14 6 14 4 14 2 14 2 16 2 19 0 39 0 29 -8 19 -16 rrcurveto
          17 -14 8 -26 0 -36 rrcurveto
          0 -12 249 43 rlineto
          0 5 1 4 0 5 0 32 -6 30 -10 31 -12 35 -19 32 -25 29 -25 29 -34 23 -42 18 -42 18 -48 8 -54 0 -113 0 -96 -26 -78 -52 rrcurveto
          -78 -52 -48 -71 -19 -89 -8 -37 -3 -32 0 -28 0 -28 3 -27 7 -20 7 -20 9 -19 16 -18 16 -18 18 -15 17 -12 17 -12 22 -16 29 -17 rrcurveto
          endchar
        </CharString>
        <CharString name="afii10103">
          -585 21 -21 1073 -20 121 320 hstem
          400 303 vstem
          367 1073 rmoveto
          -54 callsubr
          -220 261 rmoveto
          112 callsubr
          endchar
        </CharString>
        <CharString name="afii10104">
          -585 21 -21 1073 -20 114 328 hstem
          146 336 135 336 vstem
          150 1331 rmoveto
          -9 callsubr
          471 hmoveto
          -9 callsubr
          -254 -258 rmoveto
          -54 callsubr
          endchar
        </CharString>
        <CharString name="afii10105">
          -585 -432 229 1276 -20 121 320 hstem
          400 303 vstem
          -307 -333 rmoveto
          26 callsubr
          506 1495 rmoveto
          112 callsubr
          endchar
        </CharString>
        <CharString name="afii10106">
          471 -4 229 -225 178 295 176 424 -20 hstemhm
          1383 258 hintmask 01111000
          1153 473 rmoveto
          87 hlineto
          96 47 -34 -68 hvcurveto
          0 -12 -2 -14 -3 -14 -9 -44 -25 -37 -38 -29 -38 -29 -43 -14 -48 0 rrcurveto
          -87 hlineto
          -366 895 rmoveto
          -255 -737 -60 -87 rlineto
          hintmask 10111000
          -24 -16 -26 -8 -29 0 -17 0 -17 5 -15 8 -15 8 -11 10 -6 11 rrcurveto
          -207 -172 rlineto
          27 -39 30 -27 35 -13 35 -13 45 -7 55 0 63 0 66 19 68 37 68 37 59 49 50 62 33 40 32 65 32 88 rrcurveto
          157 441 70 0 rlineto
          hintmask 01111000
          -177 -834 393 0 rlineto
          63 0 58 7 51 16 51 16 41 19 32 23 32 23 26 27 24 31 24 31 17 28 11 26 11 26 7 26 6 26 3 14 1 14 0 15 rrcurveto
          0 18 -1 18 -4 19 -7 35 -17 35 -27 35 -27 35 -39 28 -53 20 -64 24 -77 13 -92 1 rrcurveto
          -43 0 90 424 rlineto
          endchar
        </CharString>
        <CharString name="afii10107">
          2 21 -21 426 239 409 -20 hstem
          347 1074 rmoveto
          108 callsubr
          endchar
        </CharString>
        <CharString name="afii10108">
          2 21 -21 867 235 112 240 hstem
          893 278 vstem
          377 hmoveto
          114 536 rlineto
          11 53 14 47 16 40 16 40 15 31 17 24 17 24 18 19 21 15 21 15 21 10 19 5 19 5 21 3 23 0 23 0 20 -3 16 -5 rrcurveto
          16 -5 14 -10 13 -14 13 -14 8 -20 5 -24 3 -16 2 -20 0 -23 0 -11 0 -12 -1 -13 -2 -39 -9 -47 -11 -54 rrcurveto
          -114 -537 258 0 142 668 rlineto
          10 47 5 44 0 41 0 19 -1 18 -2 18 -7 57 -16 45 -24 35 -24 35 -27 28 -32 19 -32 19 -35 9 -37 0 -69 0 -66 -18 -66 -36 rrcurveto
          -66 -36 -54 -45 -42 -55 rrcurveto
          64 302 351 0 51 240 -722 0 -51 -240 113 0 -258 -1214 rlineto
          endchar
        </CharString>
        <CharString name="afii10109">
          -90 20 -20 1075 -21 hstem
          685 1184 rmoveto
          353 213 rlineto
          10 7 8 10 6 13 4 8 3 9 2 9 2 11 1 11 0 12 0 22 -5 17 -8 13 -7 11 -9 12 -12 10 -12 10 -13 7 -13 4 rrcurveto
          -7 2 -6 1 -6 0 -11 0 -11 -3 -9 -7 rrcurveto
          -334 -247 rlineto
          -5 -3 -4 -5 -2 -5 -2 -5 -2 -5 -1 -5 -2 -10 -1 -11 1 -13 2 -20 4 -15 6 -10 6 -10 7 -10 11 -11 11 -11 11 -6 10 -3 rrcurveto
          4 -1 3 -1 3 0 5 0 4 2 5 3 rrcurveto
          -306 -770 rmoveto
          27 callsubr
          endchar
        </CharString>
        <CharString name="afii10110">
          -13 -465 232 204 235 867 -20 118 236 hstem
          191 271 vstem
          925 1423 rmoveto
          11 callsubr
          72 -1452 rmoveto
          109 callsubr
          endchar
        </CharString>
        <CharString name="afii10145">
          119 0 239 1217 -20 hstem
          453 -240 rmoveto
          240 0 51 240 394 0 309 1456 -270 0 -258 -1217 -484 0 258 1217 -268 0 -309 -1456 388 0 rlineto
          endchar
        </CharString>
        <CharString name="afii10193">
          -77 1076 -21 hstem
          360 -240 rmoveto
          240 0 51 240 291 1 228 1073 -269 0 -177 -834 -286 0 176 835 -267 0 -228 -1074 292 0 rlineto
          endchar
        </CharString>
        <CharString name="afii57636">
          209 0 240 978 240 hstem
          436 279 208 279 vstem
          1193 1031 rmoveto
          6 28 3 27 0 26 0 64 -18 58 -36 51 -83 115 -146 58 -215 0 rrcurveto
          -101 0 -268 0 -310 -1458 268 0 259 1218 101 0 30 0 rlineto
          10 0 8 -1 10 -1 141 -10 71 -49 0 -86 0 -13 -2 -13 -3 -14 rrcurveto
          -73 -346 275 0 rlineto
          -674 -259 rmoveto
          -6 -29 -4 -28 0 -27 0 -63 18 -57 36 -50 83 -115 147 -57 215 0 rrcurveto
          100 0 269 0 310 1458 -269 0 -259 -1218 -100 0 -31 0 rlineto
          -10 0 -9 1 -10 1 -141 10 -70 48 0 86 0 13 2 13 3 14 rrcurveto
          72 341 -274 0 rlineto
          endchar
        </CharString>
        <CharString name="afii61352">
          627 21 -21 426 240 219 158 289 157 -33 -20 hstemhm
          1365 169 199 166 hintmask 11100110
          1206 666 rmoveto
          -51 -240 612 0 51 240 rlineto
          -275 522 rmoveto
          11 52 14 37 21 22 rrcurveto
          hintmask 11110110
          21 22 24 11 29 0 29 0 21 -11 11 -22 6 -11 3 -15 0 -19 0 -18 -3 -22 -5 -26 -11 -52 -16 -38 -21 -22 -21 -22 -25 -11 -29 0 rrcurveto
          -29 0 -20 11 -11 22 -5 11 -3 13 0 18 0 19 3 24 6 27 rrcurveto
          -53 219 rmoveto
          -57 -55 -37 -73 -19 -91 -7 -35 -5 -32 0 -29 0 -49 11 -42 21 -34 33 -55 56 -27 82 0 81 0 70 28 56 55 56 55 38 73 20 92 rrcurveto
          7 34 3 31 0 29 0 49 -11 42 -20 35 -32 55 -59 26 -81 0 -81 0 -68 -27 -57 -55 rrcurveto
          -1371 -1407 rmoveto
          268 0 207 973 97 -973 265 0 rlineto
          hintmask 11101110
          309 1456 -269 0 -199 -940 -109 940 -260 0 rlineto
          endchar
        </CharString>
        <CharString name="agrave">
          -83 -29 220 -170 -21 524 217 156 205 hstemhm
          156 249 462 257 hintmask 00111100
          814 1185 rmoveto
          -12 callsubr
          94 -874 rmoveto
          -1 callsubr
          hintmask 10111100
          0 callsubr
          -38 217 rmoveto
          -68 callsubr
          hintmask 01111100
          -67 callsubr
          endchar
        </CharString>
        <CharString name="alpha">
          208 -32 235 -196 -21 878 234 -25 -20 hstemhm
          183 254 hintmask 10101000
          457 534 rmoveto
          47 219 86 111 126 0 92 0 45 -59 0 -117 0 -43 -5 -52 -13 -59 -47 -221 -87 -110 -126 0 -92 0 -46 59 0 117 rrcurveto
          0 44 7 51 13 60 rrcurveto
          971 428 rmoveto
          -18 27 -31 26 -42 26 rrcurveto
          hintmask 00011000
          86 callsubr
          hintmask 10101000
          87 callsubr
          hintmask 01011000
          88 callsubr
          endchar
        </CharString>
        <CharString name="alphatonos">
          208 -32 235 -196 -21 878 234 -25 -20 hstemhm
          183 254 hintmask 00001000
          900 1192 rmoveto
          84 callsubr
          -443 -658 rmoveto
          hintmask 10101000
          85 callsubr
          971 428 rmoveto
          -18 27 -31 26 -42 26 rrcurveto
          hintmask 00011000
          86 callsubr
          hintmask 10101000
          87 callsubr
          hintmask 01011000
          88 callsubr
          endchar
        </CharString>
        <CharString name="amacron">
          -39 -29 220 -170 -21 524 217 156 205 187 127 hstemhm
          156 249 462 257 hintmask 10111110
          646 524 rmoveto
          -69 callsubr
          -38 217 rmoveto
          -68 callsubr
          hintmask 01111110
          -67 callsubr
          -157 675 rmoveto
          -26 callsubr
          endchar
        </CharString>
        <CharString name="ampersand">
          165 -53 241 170 217 132 239 332 242 hstemhm
          133 272 -69 272 hintmask 11110100
          959 1167 rmoveto
          234 107 rlineto
          -29 136 -103 110 -195 0 -240 0 -230 -156 -52 -246 -5 -23 -3 -22 0 -21 0 -126 84 -74 54 -24 -80 -33 -186 -94 -66 -310 rrcurveto
          hintmask 11111000
          -6 -30 -3 -30 0 -28 0 -211 174 -145 233 0 334 0 194 250 35 163 rrcurveto
          158 0 45 215 -586 0 -46 -217 174 0 rlineto
          -18 -86 -81 -84 -158 0 -117 0 -69 80 0 105 0 18 2 18 4 19 33 157 124 122 143 0 rrcurveto
          166 0 51 239 -170 0 rlineto
          hintmask 11110100
          -87 -63 44 85 hvcurveto
          0 13 2 15 3 15 23 109 95 51 82 0 rrcurveto
          86 0 47 -64 13 -47 rrcurveto
          endchar
        </CharString>
        <CharString name="aogonek">
          -39 -29 220 -170 -21 524 217 156 205 hstemhm
          156 249 271 230 -39 257 hintmask 10111000
          646 524 rmoveto
          -69 callsubr
          -38 217 rmoveto
          -68 callsubr
          hintmask 01111010
          -67 callsubr
          406 -958 rmoveto
          13 callsubr
          hintmask 00111100
          14 callsubr
          endchar
        </CharString>
        <CharString name="approxequal">
          -360 92 247 -95 247 21 247 -95 247 hstemhm
          hintmask 01000000
          135 388 rmoveto
          -51 -241 rlineto
          10 7 17 11 22 15 22 15 17 12 11 7 11 7 18 6 18 7 18 7 19 3 18 0 18 0 19 -8 20 -16 20 -16 18 -17 16 -19 rrcurveto
          16 -19 20 -17 25 -16 rrcurveto
          hintmask 10000000
          25 -16 24 -8 26 0 19 0 20 4 22 8 22 8 17 8 13 8 13 8 16 10 20 14 20 14 12 9 4 3 rrcurveto
          55 260 rlineto
          -29 -23 -21 -16 -13 -10 -13 -10 -21 -13 -29 -14 -29 -14 -25 -7 -21 0 -19 0 -19 5 -18 10 -18 10 -15 13 -14 15 -21 22 0 2 -21 22 rrcurveto
          -14 15 -15 13 -17 10 rrcurveto
          hintmask 01000000
          -17 10 -18 5 -18 0 -15 0 -15 -3 -15 -4 -15 -4 -15 -7 -16 -9 -16 -9 -13 -7 -10 -7 -10 -7 -15 -9 -17 -13 rrcurveto
          -17 -13 -11 -8 -5 -3 rrcurveto
          90 420 rmoveto
          -51 -241 rlineto
          10 7 17 11 22 15 22 15 17 12 11 7 11 7 17 6 18 7 rrcurveto
          hintmask 00010000
          18 7 19 3 18 0 18 0 19 -8 20 -16 20 -16 18 -17 16 -19 16 -19 20 -17 25 -16 rrcurveto
          hintmask 00100000
          157 callsubr
          hintmask 00010000
          -17 10 -17 5 -18 0 -15 0 -16 -3 -15 -4 -15 -4 -15 -7 -16 -9 -16 -9 -13 -7 -10 -7 -10 -7 -15 -9 -17 -13 -17 -13 -10 -8 -5 -3 rrcurveto
          endchar
        </CharString>
        <CharString name="aring">
          -83 -29 220 -170 -21 524 217 156 205 12 162 300 162 hstemhm
          156 249 109 176 177 257 -137 176 hintmask 1011111100000000
          646 524 rmoveto
          -69 callsubr
          -38 217 rmoveto
          -68 callsubr
          hintmask 0111111110000000
          -67 callsubr
          86 685 rmoveto
          18 83 78 67 81 0 rrcurveto
          hintmask 0011111101000000
          70 46 -50 -67 hvcurveto
          0 -11 -2 -11 -2 -11 -18 -84 -77 -66 -81 0 -70 0 -47 50 0 67 0 11 2 11 2 11 rrcurveto
          -173 hmoveto
          -5 -22 -2 -21 0 -21 0 -142 106 -106 153 0 176 0 170 139 37 173 5 22 2 22 0 21 0 142 -105 105 -153 0 -176 0 -171 -139 -37 -173 rrcurveto
          endchar
        </CharString>
        <CharString name="arrowboth">
          366 228 hstem
          459 366 rmoveto
          912 0 -179 -327 535 441 -347 441 39 -327 -912 0 179 327 -535 -441 347 -441 rlineto
          endchar
        </CharString>
        <CharString name="arrowdown">
          -107 1484 -20 hstem
          448 263 rmoveto
          -302 109 345 -443 533 443 -348 -109 259 1221 -228 0 rlineto
          endchar
        </CharString>
        <CharString name="arrowleft">
          366 228 hstem
          498 39 rmoveto
          -39 327 1223 0 48 228 -1223 0 179 327 -535 -441 rlineto
          endchar
        </CharString>
        <CharString name="arrowright">
          366 228 hstem
          1371 366 rmoveto
          -179 -327 535 441 -347 441 39 -327 -1223 0 -48 -228 rlineto
          endchar
        </CharString>
        <CharString name="arrowup">
          -107 291 1064 rmoveto
          350 109 -260 -1223 228 0 260 1223 304 -109 -347 441 rlineto
          endchar
        </CharString>
        <CharString name="arrowupdn">
          -107 676 263 rmoveto
          193 910 304 -109 -347 441 -535 -441 350 109 -193 -910 -302 109 345 -443 533 443 rlineto
          endchar
        </CharString>
        <CharString name="arrowupdnbse">
          -107 -50 200 hstem
          710 425 rmoveto
          159 748 304 -109 -347 441 -535 -441 350 109 -159 -748 -301 109 298 -384 -377 0 -43 -200 864 0 43 200 -369 0 462 384 rlineto
          endchar
        </CharString>
        <CharString name="asciicircum">
          -38 1151 341 hstem
          1170 1148 rmoveto
          -71 callsubr
          endchar
        </CharString>
        <CharString name="asciitilde">
          -360 512 247 -95 247 hstemhm
          hintmask 01000000
          225 808 rmoveto
          -51 -241 rlineto
          72 45 51 52 77 0 rrcurveto
          hintmask 10000000
          -29 callsubr
          hintmask 01000000
          -104 0 -41 152 -98 0 rrcurveto
          -78 0 -74 -66 -53 -37 rrcurveto
          endchar
        </CharString>
        <CharString name="asterisk">
          53 604 231 hstem
          938 821 rmoveto
          178 207 rlineto
          5 6 4 6 3 6 2 4 1 4 1 4 1 3 0 4 0 3 0 33 -31 36 -20 14 -2 1 -1 0 -1 1 -14 9 -28 9 -28 0 rrcurveto
          -26 0 -26 -7 -16 -21 rrcurveto
          -156 -218 -66 219 rlineto
          -2 6 -2 6 -3 4 -8 11 -14 4 -18 0 -30 0 -38 -12 -19 -10 -2 -1 -1 -1 -1 0 -28 -15 -51 -44 -8 -39 -2 -8 1 -9 2 -8 rrcurveto
          92 -206 -246 13 rlineto
          -7 0 -7 0 -6 -2 -40 -8 -33 -72 -7 -32 0 -2 -1 -1 0 -1 -1 -7 -1 -9 0 -9 rrcurveto
          -38 14 -50 40 vhcurveto
          246 14 -176 -205 rlineto
          -5 -6 -5 -6 -2 -7 -3 -3 -1 -4 -1 -4 -1 -3 0 -4 0 -3 0 -33 33 -37 20 -13 1 -1 0 -1 1 0 14 -9 28 -9 29 0 rrcurveto
          25 0 26 7 16 20 rrcurveto
          157 219 65 -220 rlineto
          2 -6 3 -6 4 -4 7 -10 15 -4 17 0 30 0 37 12 20 10 1 1 2 0 1 1 29 14 49 44 8 39 2 9 0 8 -2 8 rrcurveto
          -91 205 243 -13 rlineto
          7 0 8 0 6 2 40 8 33 72 7 32 rrcurveto
          4 vlineto
          1 7 2 9 0 9 rrcurveto
          38 -15 50 -40 vhcurveto
          endchar
        </CharString>
</ttFont>
